SplineFontDB: 1.0
FontName: DejaVuSans-Bold
FullName: DejaVu Sans Bold
FamilyName: DejaVu Sans
Weight: Bold
Copyright: Copyright (c) 2003 by Bitstream, Inc. All Rights Reserved.\nCopyright (c) 2006 by Tavmjong Bah. All Rights Reserved.\nDejaVu changes are in public domain\n
Version: 2.15
ItalicAngle: 0
UnderlinePosition: -85
UnderlineWidth: 90
Ascent: 1556
Descent: 492
Order2: 1
NeedsXUIDChange: 1
FSType: 0
OS2Version: 0
OS2_WeightWidthSlopeOnly: 0
OS2_UseTypoMetrics: 0
PfmFamily: 17
TTFWeight: 700
TTFWidth: 5
LineGap: 0
VLineGap: 0
Panose: 2 11 8 3 3 6 4 2 2 4
OS2TypoAscent: 1556
OS2TypoAOffset: 0
OS2TypoDescent: -492
OS2TypoDOffset: 0
OS2TypoLinegap: 410
OS2WinAscent: 1901
OS2WinAOffset: 0
OS2WinDescent: 483
OS2WinDOffset: 0
HheadAscent: 1901
HheadAOffset: 0
HheadDescent: -483
HheadDOffset: 0
OS2Vendor: 'PfEd'
ScriptLang: 11
 3 cyrl 3 dflt MKD  SRB  grek 1 dflt latn 2 dflt DNK  
 1 DFLT 1 dflt 
 1 latn 2 dflt DNK  
 1 armn 1 dflt 
 1 arab 1 dflt 
 1 latn 1 DNK  
 1 grek 1 dflt 
 1 hebr 1 dflt 
 2 arab 1 dflt hebr 1 dflt 
 1 cyrl 2 MKD  SRB  
 1 lao  1 dflt 
KernClass: 37 56 2 0
 14 hyphen uni2010
 59 A Agrave Aacute Acircumflex Atilde Adieresis Amacron Abreve
 1 B
 58 C Ccedilla Cacute Ccircumflex Cdotaccent Ccaron Circumflex
 19 D Eth Dcaron Dcroat
 1 F
 8 G Gbreve
 1 K
 15 L Lacute Lcaron
 44 O Ograve Oacute Ocircumflex Otilde Odieresis
 1 P
 1 Q
 15 R Racute Rcaron
 17 S Scedilla Scaron
 1 T
 43 U Ugrave Uacute Ucircumflex Udieresis Uring
 1 V
 1 W
 1 X
 18 Y Yacute Ydieresis
 11 Z AE Zcaron
 50 a agrave aacute acircumflex atilde adieresis aring
 1 f
 1 k
 15 r racute rcaron
 1 v
 1 w
 18 y yacute ydieresis
 6 Oslash
 7 Aogonek
 4 ldot
 6 Lslash
 6 Tcaron
 17 uni02BB quoteleft
 27 quotesinglbase quotedblbase
 12 quotedblleft
 5 comma
 6 hyphen
 6 period
 15 colon semicolon
 44 A Agrave Aacute Acircumflex Atilde Adieresis
 24 C Ccedilla Cacute Ccaron
 1 J
 44 O Ograve Oacute Ocircumflex Otilde Odieresis
 17 S Scedilla Scaron
 1 T

StartChar: .notdef
Encoding: 0 -1 0
AltUni: 0
Width: 1229
Flags: W
Fore
102 -362 m 1,0,-1
 102 1444 l 1,1,-1
 1126 1444 l 1,2,-1
 1126 -362 l 1,3,-1
 102 -362 l 1,0,-1
217 -248 m 1,4,-1
 1012 -248 l 1,5,-1
 1012 1329 l 1,6,-1
 217 1329 l 1,7,-1
 217 -248 l 1,4,-1
EndSplineSet
EndChar
StartChar: exclam
Encoding: 33 33 33
Width: 934
Flags: W
Fore
287 1493 m 1,0,-1
 647 1493 l 1,1,-1
 647 920 l 1,2,-1
 596 502 l 1,3,-1
 338 502 l 1,4,-1
 287 920 l 1,5,-1
 287 1493 l 1,0,-1
287 356 m 1,6,-1
 647 356 l 1,7,-1
 647 0 l 1,8,-1
 287 0 l 1,9,-1
 287 356 l 1,6,-1
EndSplineSet
EndChar
StartChar: quotedbl
Encoding: 34 34 34
Width: 1067
Flags: W
Fore
872 1493 m 1,0,-1
 872 938 l 1,1,-1
 635 938 l 1,2,-1
 635 1493 l 1,3,-1
 872 1493 l 1,0,-1
432 1493 m 1,4,-1
 432 938 l 1,5,-1
 195 938 l 1,6,-1
 195 1493 l 1,7,-1
 432 1493 l 1,4,-1
EndSplineSet
EndChar
StartChar: numbersign
Encoding: 35 35 35
Width: 1716
Flags: W
Fore
911 1470 m 1,0,-1
 815 1085 l 1,1,-1
 1079 1085 l 1,2,-1
 1176 1470 l 1,3,-1
 1397 1470 l 1,4,-1
 1300 1085 l 1,5,-1
 1577 1085 l 1,6,-1
 1577 872 l 1,7,-1
 1247 872 l 1,8,-1
 1178 598 l 1,9,-1
 1462 598 l 1,10,-1
 1462 383 l 1,11,-1
 1126 383 l 1,12,-1
 1030 0 l 1,13,-1
 809 0 l 1,14,-1
 905 383 l 1,15,-1
 641 383 l 1,16,-1
 545 0 l 1,17,-1
 322 0 l 1,18,-1
 418 383 l 1,19,-1
 139 383 l 1,20,-1
 139 598 l 1,21,-1
 467 598 l 1,22,-1
 537 872 l 1,23,-1
 254 872 l 1,24,-1
 254 1085 l 1,25,-1
 592 1085 l 1,26,-1
 688 1470 l 1,27,-1
 911 1470 l 1,0,-1
1024 872 m 1,28,-1
 760 872 l 1,29,-1
 690 598 l 1,30,-1
 954 598 l 1,31,-1
 1024 872 l 1,28,-1
EndSplineSet
EndChar
StartChar: dollar
Encoding: 36 36 36
Width: 1425
Flags: W
Fore
795 -301 m 1,0,-1
 633 -301 l 1,1,-1
 632 0 l 1,2,3
 507 5 507 5 390 28 c 128,-1,4
 273 51 273 51 162 92 c 1,5,-1
 162 354 l 1,6,7
 277 295 277 295 394.5 263.5 c 128,-1,8
 512 232 512 232 633 228 c 1,9,-1
 633 539 l 1,10,-1
 600 545 l 2,11,12
 361 587 361 587 260.5 677 c 128,-1,13
 160 767 160 767 160 936 c 0,14,15
 160 1115 160 1115 282.5 1215.5 c 128,-1,16
 405 1316 405 1316 632 1325 c 1,17,-1
 633 1556 l 1,18,-1
 795 1556 l 1,19,-1
 795 1329 l 1,20,21
 895 1321 895 1321 995 1304 c 128,-1,22
 1095 1287 1095 1287 1196 1260 c 1,23,-1
 1196 1006 l 1,24,25
 1096 1048 1096 1048 996 1071.5 c 128,-1,26
 896 1095 896 1095 795 1100 c 1,27,-1
 795 813 l 1,28,-1
 827 807 l 2,29,30
 1081 767 1081 767 1183.5 673.5 c 128,-1,31
 1286 580 1286 580 1286 397 c 0,32,33
 1286 213 1286 213 1164 114.5 c 128,-1,34
 1042 16 1042 16 795 2 c 1,35,-1
 795 -301 l 1,0,-1
633 836 m 1,36,-1
 633 1097 l 1,37,38
 562 1093 562 1093 519.5 1058.5 c 128,-1,39
 477 1024 477 1024 477 971 c 0,40,41
 477 912 477 912 516 878.5 c 128,-1,42
 555 845 555 845 633 836 c 1,36,-1
795 510 m 1,43,-1
 795 232 l 1,44,45
 882 233 882 233 925.5 266 c 128,-1,46
 969 299 969 299 969 365 c 0,47,48
 969 433 969 433 929 466.5 c 128,-1,49
 889 500 889 500 795 510 c 1,43,-1
EndSplineSet
EndChar
StartChar: percent
Encoding: 37 37 37
Width: 2052
Flags: W
Fore
1587 616 m 0,0,1
 1516 616 1516 616 1477 554.5 c 128,-1,2
 1438 493 1438 493 1438 379 c 0,3,4
 1438 264 1438 264 1476.5 202.5 c 128,-1,5
 1515 141 1515 141 1587 141 c 0,6,7
 1659 141 1659 141 1697 202.5 c 128,-1,8
 1735 264 1735 264 1735 379 c 0,9,10
 1735 493 1735 493 1696.5 554.5 c 128,-1,11
 1658 616 1658 616 1587 616 c 0,0,1
1587 784 m 0,12,13
 1773 784 1773 784 1880 676 c 128,-1,14
 1987 568 1987 568 1987 379 c 0,15,16
 1987 190 1987 190 1880 80.5 c 128,-1,17
 1773 -29 1773 -29 1587 -29 c 0,18,19
 1401 -29 1401 -29 1293.5 80.5 c 128,-1,20
 1186 190 1186 190 1186 379 c 0,21,22
 1186 567 1186 567 1293.5 675.5 c 128,-1,23
 1401 784 1401 784 1587 784 c 0,12,13
670 -29 m 1,24,-1
 449 -29 l 1,25,-1
 1382 1520 l 1,26,-1
 1604 1520 l 1,27,-1
 670 -29 l 1,24,-1
465 1520 m 0,28,29
 651 1520 651 1520 757.5 1411.5 c 128,-1,30
 864 1303 864 1303 864 1114 c 0,31,32
 864 925 864 925 757.5 816 c 128,-1,33
 651 707 651 707 465 707 c 0,34,35
 279 707 279 707 172.5 816 c 128,-1,36
 66 925 66 925 66 1114 c 0,37,38
 66 1303 66 1303 172.5 1411.5 c 128,-1,39
 279 1520 279 1520 465 1520 c 0,28,29
465 1352 m 0,40,41
 393 1352 393 1352 354 1290 c 128,-1,42
 315 1228 315 1228 315 1114 c 0,43,44
 315 999 315 999 354 936.5 c 128,-1,45
 393 874 393 874 465 874 c 0,46,47
 537 874 537 874 575.5 936.5 c 128,-1,48
 614 999 614 999 614 1114 c 0,49,50
 614 1228 614 1228 575 1290 c 128,-1,51
 536 1352 536 1352 465 1352 c 0,40,41
EndSplineSet
EndChar
StartChar: ampersand
Encoding: 38 38 38
Width: 1786
Flags: W
Fore
799 991 m 2,0,-1
 1208 541 l 1,1,2
 1261 611 1261 611 1288.5 698 c 128,-1,3
 1316 785 1316 785 1321 895 c 1,4,-1
 1632 895 l 1,5,6
 1617 713 1617 713 1561.5 571 c 128,-1,7
 1506 429 1506 429 1407 322 c 1,8,-1
 1700 0 l 1,9,-1
 1276 0 l 1,10,-1
 1178 109 l 1,11,12
 1073 39 1073 39 957 5 c 128,-1,13
 841 -29 841 -29 711 -29 c 0,14,15
 448 -29 448 -29 285.5 109.5 c 128,-1,16
 123 248 123 248 123 467 c 0,17,18
 123 613 123 613 194.5 725.5 c 128,-1,19
 266 838 266 838 428 944 c 1,20,21
 386 997 386 997 366 1050 c 128,-1,22
 346 1103 346 1103 346 1161 c 0,23,24
 346 1324 346 1324 473 1422 c 128,-1,25
 600 1520 600 1520 811 1520 c 0,26,27
 902 1520 902 1520 1000.5 1505.5 c 128,-1,28
 1099 1491 1099 1491 1206 1462 c 1,29,-1
 1206 1184 l 1,30,31
 1112 1232 1112 1232 1028 1255 c 128,-1,32
 944 1278 944 1278 864 1278 c 0,33,34
 787 1278 787 1278 744.5 1248.5 c 128,-1,35
 702 1219 702 1219 702 1165 c 0,36,37
 702 1131 702 1131 726.5 1087.5 c 128,-1,38
 751 1044 751 1044 799 991 c 2,0,-1
600 743 m 1,39,40
 535 696 535 696 502 636.5 c 128,-1,41
 469 577 469 577 469 506 c 0,42,43
 469 391 469 391 554 310 c 128,-1,44
 639 229 639 229 758 229 c 0,45,46
 825 229 825 229 883 249.5 c 128,-1,47
 941 270 941 270 991 311 c 1,48,-1
 600 743 l 1,39,40
EndSplineSet
EndChar
StartChar: quotesingle
Encoding: 39 39 39
Width: 627
Flags: W
Fore
432 1493 m 1,0,-1
 432 938 l 1,1,-1
 195 938 l 1,2,-1
 195 1493 l 1,3,-1
 432 1493 l 1,0,-1
EndSplineSet
EndChar
StartChar: parenleft
Encoding: 40 40 40
Width: 936
Flags: W
Fore
772 -270 m 1,0,-1
 475 -270 l 1,1,2
 322 -23 322 -23 249 199.5 c 128,-1,3
 176 422 176 422 176 641 c 0,4,5
 176 860 176 860 249.5 1084.5 c 128,-1,6
 323 1309 323 1309 475 1554 c 1,7,-1
 772 1554 l 1,8,9
 644 1317 644 1317 580 1090.5 c 128,-1,10
 516 864 516 864 516 643 c 0,11,12
 516 422 516 422 579.5 195 c 128,-1,13
 643 -32 643 -32 772 -270 c 1,0,-1
EndSplineSet
EndChar
StartChar: parenright
Encoding: 41 41 41
Width: 936
Flags: W
Fore
164 -270 m 1,0,1
 292 -32 292 -32 356 195 c 128,-1,2
 420 422 420 422 420 643 c 0,3,4
 420 864 420 864 356 1090.5 c 128,-1,5
 292 1317 292 1317 164 1554 c 1,6,-1
 461 1554 l 1,7,8
 613 1309 613 1309 686.5 1084.5 c 128,-1,9
 760 860 760 860 760 641 c 0,10,11
 760 422 760 422 687 199.5 c 128,-1,12
 614 -23 614 -23 461 -270 c 1,13,-1
 164 -270 l 1,0,1
EndSplineSet
EndChar
StartChar: asterisk
Encoding: 42 42 42
Width: 1071
Flags: W
Fore
1030 1217 m 1,0,-1
 700 1044 l 1,1,-1
 1030 870 l 1,2,-1
 954 729 l 1,3,-1
 621 913 l 1,4,-1
 621 569 l 1,5,-1
 451 569 l 1,6,-1
 451 913 l 1,7,-1
 117 729 l 1,8,-1
 41 870 l 1,9,-1
 375 1044 l 1,10,-1
 41 1217 l 1,11,-1
 117 1358 l 1,12,-1
 451 1176 l 1,13,-1
 451 1520 l 1,14,-1
 621 1520 l 1,15,-1
 621 1176 l 1,16,-1
 954 1358 l 1,17,-1
 1030 1217 l 1,0,-1
EndSplineSet
EndChar
StartChar: plus
Encoding: 43 43 43
Width: 1716
Flags: W
Fore
977 1284 m 1,0,-1
 977 760 l 1,1,-1
 1499 760 l 1,2,-1
 1499 524 l 1,3,-1
 977 524 l 1,4,-1
 977 0 l 1,5,-1
 739 0 l 1,6,-1
 739 524 l 1,7,-1
 217 524 l 1,8,-1
 217 760 l 1,9,-1
 739 760 l 1,10,-1
 739 1284 l 1,11,-1
 977 1284 l 1,0,-1
EndSplineSet
EndChar
StartChar: comma
Encoding: 44 44 44
Width: 778
Flags: W
Fore
209 387 m 1,0,-1
 569 387 l 1,1,-1
 569 82 l 1,2,-1
 322 -291 l 1,3,-1
 109 -291 l 1,4,-1
 209 82 l 1,5,-1
 209 387 l 1,0,-1
EndSplineSet
EndChar
StartChar: hyphen
Encoding: 45 45 45
Width: 850
Flags: W
Fore
111 735 m 1,0,-1
 739 735 l 1,1,-1
 739 444 l 1,2,-1
 111 444 l 1,3,-1
 111 735 l 1,0,-1
EndSplineSet
EndChar
StartChar: period
Encoding: 46 46 46
Width: 778
Flags: W
Fore
209 387 m 1,0,-1
 569 387 l 1,1,-1
 569 0 l 1,2,-1
 209 0 l 1,3,-1
 209 387 l 1,0,-1
EndSplineSet
EndChar
StartChar: slash
Encoding: 47 47 47
Width: 748
Flags: W
Fore
526 1493 m 1,0,-1
 748 1493 l 1,1,-1
 221 -190 l 1,2,-1
 0 -190 l 1,3,-1
 526 1493 l 1,0,-1
EndSplineSet
EndChar
StartChar: zero
Encoding: 48 48 48
Width: 1425
Flags: W
AnchorPoint: "below" 713 0 basechar 0
AnchorPoint: "above" 713 1520 basechar 0
Fore
942 748 m 0,0,1
 942 1028 942 1028 889.5 1142.5 c 128,-1,2
 837 1257 837 1257 713 1257 c 0,3,4
 589 1257 589 1257 536 1142.5 c 128,-1,5
 483 1028 483 1028 483 748 c 0,6,7
 483 465 483 465 536 349 c 128,-1,8
 589 233 589 233 713 233 c 0,9,10
 836 233 836 233 889 349 c 128,-1,11
 942 465 942 465 942 748 c 0,0,1
1327 745 m 0,12,13
 1327 374 1327 374 1167 172.5 c 128,-1,14
 1007 -29 1007 -29 713 -29 c 0,15,16
 418 -29 418 -29 258 172.5 c 128,-1,17
 98 374 98 374 98 745 c 0,18,19
 98 1117 98 1117 258 1318.5 c 128,-1,20
 418 1520 418 1520 713 1520 c 0,21,22
 1007 1520 1007 1520 1167 1318.5 c 128,-1,23
 1327 1117 1327 1117 1327 745 c 0,12,13
EndSplineSet
EndChar
StartChar: one
Encoding: 49 49 49
Width: 1425
Flags: W
AnchorPoint: "below" 713 0 basechar 0
AnchorPoint: "above" 713 1520 basechar 0
Fore
240 266 m 1,0,-1
 580 266 l 1,1,-1
 580 1231 l 1,2,-1
 231 1159 l 1,3,-1
 231 1421 l 1,4,-1
 578 1493 l 1,5,-1
 944 1493 l 1,6,-1
 944 266 l 1,7,-1
 1284 266 l 1,8,-1
 1284 0 l 1,9,-1
 240 0 l 1,10,-1
 240 266 l 1,0,-1
EndSplineSet
EndChar
StartChar: two
Encoding: 50 50 50
Width: 1425
Flags: W
AnchorPoint: "below" 713 0 basechar 0
AnchorPoint: "above" 713 1520 basechar 0
Fore
590 283 m 1,0,-1
 1247 283 l 1,1,-1
 1247 0 l 1,2,-1
 162 0 l 1,3,-1
 162 283 l 1,4,-1
 707 764 l 1,5,6
 780 830 780 830 815 893 c 128,-1,7
 850 956 850 956 850 1024 c 0,8,9
 850 1129 850 1129 779.5 1193 c 128,-1,10
 709 1257 709 1257 592 1257 c 0,11,12
 502 1257 502 1257 395 1218.5 c 128,-1,13
 288 1180 288 1180 166 1104 c 1,14,-1
 166 1432 l 1,15,16
 296 1475 296 1475 423 1497.5 c 128,-1,17
 550 1520 550 1520 672 1520 c 0,18,19
 940 1520 940 1520 1088.5 1402 c 128,-1,20
 1237 1284 1237 1284 1237 1073 c 0,21,22
 1237 951 1237 951 1174 845.5 c 128,-1,23
 1111 740 1111 740 909 563 c 2,24,-1
 590 283 l 1,0,-1
EndSplineSet
EndChar
StartChar: three
Encoding: 51 51 51
Width: 1425
Flags: W
AnchorPoint: "below" 713 0 basechar 0
AnchorPoint: "above" 713 1520 basechar 0
Fore
954 805 m 1,0,1
 1105 766 1105 766 1183.5 669.5 c 128,-1,2
 1262 573 1262 573 1262 424 c 0,3,4
 1262 202 1262 202 1092 86.5 c 128,-1,5
 922 -29 922 -29 596 -29 c 0,6,7
 481 -29 481 -29 365.5 -10.5 c 128,-1,8
 250 8 250 8 137 45 c 1,9,-1
 137 342 l 1,10,11
 245 288 245 288 351.5 260.5 c 128,-1,12
 458 233 458 233 561 233 c 0,13,14
 714 233 714 233 795.5 286 c 128,-1,15
 877 339 877 339 877 438 c 0,16,17
 877 540 877 540 793.5 592.5 c 128,-1,18
 710 645 710 645 547 645 c 2,19,-1
 393 645 l 1,20,-1
 393 893 l 1,21,-1
 555 893 l 2,22,23
 700 893 700 893 771 938.5 c 128,-1,24
 842 984 842 984 842 1077 c 0,25,26
 842 1163 842 1163 773 1210 c 128,-1,27
 704 1257 704 1257 578 1257 c 0,28,29
 485 1257 485 1257 390 1236 c 128,-1,30
 295 1215 295 1215 201 1174 c 1,31,-1
 201 1456 l 1,32,33
 315 1488 315 1488 427 1504 c 128,-1,34
 539 1520 539 1520 647 1520 c 0,35,36
 938 1520 938 1520 1082.5 1424.5 c 128,-1,37
 1227 1329 1227 1329 1227 1137 c 0,38,39
 1227 1006 1227 1006 1158 922.5 c 128,-1,40
 1089 839 1089 839 954 805 c 1,0,1
EndSplineSet
EndChar
StartChar: four
Encoding: 52 52 52
Width: 1425
Flags: W
AnchorPoint: "below" 713 0 basechar 0
AnchorPoint: "above" 713 1520 basechar 0
Fore
754 1176 m 1,0,-1
 332 551 l 1,1,-1
 754 551 l 1,2,-1
 754 1176 l 1,0,-1
690 1493 m 1,3,-1
 1118 1493 l 1,4,-1
 1118 551 l 1,5,-1
 1331 551 l 1,6,-1
 1331 272 l 1,7,-1
 1118 272 l 1,8,-1
 1118 0 l 1,9,-1
 754 0 l 1,10,-1
 754 272 l 1,11,-1
 92 272 l 1,12,-1
 92 602 l 1,13,-1
 690 1493 l 1,3,-1
EndSplineSet
EndChar
StartChar: five
Encoding: 53 53 53
Width: 1425
Flags: W
AnchorPoint: "below" 713 0 basechar 0
AnchorPoint: "above" 713 1520 basechar 0
Fore
217 1493 m 1,0,-1
 1174 1493 l 1,1,-1
 1174 1210 l 1,2,-1
 524 1210 l 1,3,-1
 524 979 l 1,4,5
 568 991 568 991 612.5 997.5 c 128,-1,6
 657 1004 657 1004 705 1004 c 0,7,8
 978 1004 978 1004 1130 867.5 c 128,-1,9
 1282 731 1282 731 1282 487 c 0,10,11
 1282 245 1282 245 1116.5 108 c 128,-1,12
 951 -29 951 -29 657 -29 c 0,13,14
 530 -29 530 -29 405.5 -4.5 c 128,-1,15
 281 20 281 20 158 70 c 1,16,-1
 158 373 l 1,17,18
 280 303 280 303 389.5 268 c 128,-1,19
 499 233 499 233 596 233 c 0,20,21
 736 233 736 233 816.5 301.5 c 128,-1,22
 897 370 897 370 897 487 c 0,23,24
 897 605 897 605 816.5 673 c 128,-1,25
 736 741 736 741 596 741 c 0,26,27
 513 741 513 741 419 719.5 c 128,-1,28
 325 698 325 698 217 653 c 1,29,-1
 217 1493 l 1,0,-1
EndSplineSet
EndChar
StartChar: six
Encoding: 54 54 54
Width: 1425
Flags: W
AnchorPoint: "below" 713 0 basechar 0
AnchorPoint: "above" 713 1520 basechar 0
Fore
741 737 m 0,0,1
 640 737 640 737 589.5 671.5 c 128,-1,2
 539 606 539 606 539 475 c 0,3,4
 539 344 539 344 589.5 278.5 c 128,-1,5
 640 213 640 213 741 213 c 0,6,7
 843 213 843 213 893.5 278.5 c 128,-1,8
 944 344 944 344 944 475 c 0,9,10
 944 606 944 606 893.5 671.5 c 128,-1,11
 843 737 843 737 741 737 c 0,0,1
1217 1454 m 1,12,-1
 1217 1178 l 1,13,14
 1122 1223 1122 1223 1038 1244.5 c 128,-1,15
 954 1266 954 1266 874 1266 c 0,16,17
 702 1266 702 1266 606 1170.5 c 128,-1,18
 510 1075 510 1075 494 887 c 1,19,20
 560 936 560 936 637 960.5 c 128,-1,21
 714 985 714 985 805 985 c 0,22,23
 1034 985 1034 985 1174.5 851 c 128,-1,24
 1315 717 1315 717 1315 500 c 0,25,26
 1315 260 1315 260 1158 115.5 c 128,-1,27
 1001 -29 1001 -29 737 -29 c 0,28,29
 446 -29 446 -29 286.5 167.5 c 128,-1,30
 127 364 127 364 127 725 c 0,31,32
 127 1095 127 1095 313.5 1306.5 c 128,-1,33
 500 1518 500 1518 825 1518 c 0,34,35
 928 1518 928 1518 1025 1502 c 128,-1,36
 1122 1486 1122 1486 1217 1454 c 1,12,-1
EndSplineSet
EndChar
StartChar: seven
Encoding: 55 55 55
Width: 1425
Flags: W
AnchorPoint: "below" 713 0 basechar 0
AnchorPoint: "above" 713 1520 basechar 0
Fore
137 1493 m 1,0,-1
 1262 1493 l 1,1,-1
 1262 1276 l 1,2,-1
 680 0 l 1,3,-1
 305 0 l 1,4,-1
 856 1210 l 1,5,-1
 137 1210 l 1,6,-1
 137 1493 l 1,0,-1
EndSplineSet
EndChar
StartChar: eight
Encoding: 56 56 56
Width: 1425
Flags: W
AnchorPoint: "below" 713 0 basechar 0
AnchorPoint: "above" 713 1520 basechar 0
Fore
713 668 m 0,0,1
 605 668 605 668 547 609 c 128,-1,2
 489 550 489 550 489 440 c 0,3,4
 489 330 489 330 547 271.5 c 128,-1,5
 605 213 605 213 713 213 c 0,6,7
 820 213 820 213 877 271.5 c 128,-1,8
 934 330 934 330 934 440 c 0,9,10
 934 551 934 551 877 609.5 c 128,-1,11
 820 668 820 668 713 668 c 0,0,1
432 795 m 1,12,13
 296 836 296 836 227 921 c 128,-1,14
 158 1006 158 1006 158 1133 c 0,15,16
 158 1322 158 1322 299 1421 c 128,-1,17
 440 1520 440 1520 713 1520 c 0,18,19
 984 1520 984 1520 1125 1421.5 c 128,-1,20
 1266 1323 1266 1323 1266 1133 c 0,21,22
 1266 1006 1266 1006 1196.5 921 c 128,-1,23
 1127 836 1127 836 991 795 c 1,24,25
 1143 753 1143 753 1220.5 658.5 c 128,-1,26
 1298 564 1298 564 1298 420 c 0,27,28
 1298 198 1298 198 1150.5 84.5 c 128,-1,29
 1003 -29 1003 -29 713 -29 c 0,30,31
 422 -29 422 -29 273.5 84.5 c 128,-1,32
 125 198 125 198 125 420 c 0,33,34
 125 564 125 564 202.5 658.5 c 128,-1,35
 280 753 280 753 432 795 c 1,12,13
522 1094 m 0,36,37
 522 1005 522 1005 571.5 957 c 128,-1,38
 621 909 621 909 713 909 c 0,39,40
 803 909 803 909 852 957 c 128,-1,41
 901 1005 901 1005 901 1094 c 0,42,43
 901 1183 901 1183 852 1230.5 c 128,-1,44
 803 1278 803 1278 713 1278 c 0,45,46
 621 1278 621 1278 571.5 1230 c 128,-1,47
 522 1182 522 1182 522 1094 c 0,36,37
EndSplineSet
EndChar
StartChar: nine
Encoding: 57 57 57
Width: 1425
Flags: W
AnchorPoint: "below" 713 0 basechar 0
AnchorPoint: "above" 713 1520 basechar 0
Fore
205 33 m 1,0,-1
 205 309 l 1,1,2
 297 266 297 266 381 244.5 c 128,-1,3
 465 223 465 223 547 223 c 0,4,5
 719 223 719 223 815 318.5 c 128,-1,6
 911 414 911 414 928 602 c 1,7,8
 860 552 860 552 783 527 c 128,-1,9
 706 502 706 502 616 502 c 0,10,11
 387 502 387 502 246.5 635.5 c 128,-1,12
 106 769 106 769 106 987 c 0,13,14
 106 1228 106 1228 262.5 1373 c 128,-1,15
 419 1518 419 1518 682 1518 c 0,16,17
 974 1518 974 1518 1134 1321 c 128,-1,18
 1294 1124 1294 1124 1294 764 c 0,19,20
 1294 394 1294 394 1107 182.5 c 128,-1,21
 920 -29 920 -29 594 -29 c 0,22,23
 489 -29 489 -29 393 -13.5 c 128,-1,24
 297 2 297 2 205 33 c 1,0,-1
680 752 m 0,25,26
 781 752 781 752 832 817.5 c 128,-1,27
 883 883 883 883 883 1014 c 0,28,29
 883 1144 883 1144 832 1210 c 128,-1,30
 781 1276 781 1276 680 1276 c 0,31,32
 579 1276 579 1276 528 1210 c 128,-1,33
 477 1144 477 1144 477 1014 c 0,34,35
 477 883 477 883 528 817.5 c 128,-1,36
 579 752 579 752 680 752 c 0,25,26
EndSplineSet
EndChar
StartChar: colon
Encoding: 58 58 58
Width: 819
Flags: W
Fore
229 1120 m 1,0,-1
 590 1120 l 1,1,-1
 590 733 l 1,2,-1
 229 733 l 1,3,-1
 229 1120 l 1,0,-1
229 387 m 1,4,-1
 590 387 l 1,5,-1
 590 0 l 1,6,-1
 229 0 l 1,7,-1
 229 387 l 1,4,-1
EndSplineSet
EndChar
StartChar: semicolon
Encoding: 59 59 59
Width: 819
Flags: W
Fore
229 387 m 1,0,-1
 590 387 l 1,1,-1
 590 82 l 1,2,-1
 342 -291 l 1,3,-1
 129 -291 l 1,4,-1
 229 82 l 1,5,-1
 229 387 l 1,0,-1
229 1120 m 1,6,-1
 590 1120 l 1,7,-1
 590 733 l 1,8,-1
 229 733 l 1,9,-1
 229 1120 l 1,6,-1
EndSplineSet
EndChar
StartChar: less
Encoding: 60 60 60
Width: 1716
Flags: W
Fore
1499 973 m 1,0,-1
 535 641 l 1,1,-1
 1499 311 l 1,2,-1
 1499 61 l 1,3,-1
 217 524 l 1,4,-1
 217 760 l 1,5,-1
 1499 1223 l 1,6,-1
 1499 973 l 1,0,-1
EndSplineSet
EndChar
StartChar: equal
Encoding: 61 61 61
Width: 1716
Flags: W
Fore
217 987 m 1,0,-1
 1499 987 l 1,1,-1
 1499 752 l 1,2,-1
 217 752 l 1,3,-1
 217 987 l 1,0,-1
217 532 m 1,4,-1
 1499 532 l 1,5,-1
 1499 295 l 1,6,-1
 217 295 l 1,7,-1
 217 532 l 1,4,-1
EndSplineSet
EndChar
StartChar: greater
Encoding: 62 62 62
Width: 1716
Flags: W
Fore
217 973 m 1,0,-1
 217 1223 l 1,1,-1
 1499 760 l 1,2,-1
 1499 524 l 1,3,-1
 217 61 l 1,4,-1
 217 311 l 1,5,-1
 1182 641 l 1,6,-1
 217 973 l 1,0,-1
EndSplineSet
EndChar
StartChar: question
Encoding: 63 63 63
Width: 1188
Flags: W
Fore
709 504 m 1,0,-1
 348 504 l 1,1,-1
 348 553 l 2,2,3
 348 635 348 635 381 698.5 c 128,-1,4
 414 762 414 762 520 860 c 2,5,-1
 584 918 l 2,6,7
 641 970 641 970 667.5 1016 c 128,-1,8
 694 1062 694 1062 694 1108 c 0,9,10
 694 1178 694 1178 646 1217.5 c 128,-1,11
 598 1257 598 1257 512 1257 c 0,12,13
 431 1257 431 1257 337 1223.5 c 128,-1,14
 243 1190 243 1190 141 1124 c 1,15,-1
 141 1438 l 1,16,17
 262 1480 262 1480 362 1500 c 128,-1,18
 462 1520 462 1520 555 1520 c 0,19,20
 799 1520 799 1520 927 1420.5 c 128,-1,21
 1055 1321 1055 1321 1055 1130 c 0,22,23
 1055 1032 1055 1032 1016 954.5 c 128,-1,24
 977 877 977 877 883 788 c 1,25,-1
 819 731 l 2,26,27
 751 669 751 669 730 631.5 c 128,-1,28
 709 594 709 594 709 549 c 2,29,-1
 709 504 l 1,0,-1
348 356 m 1,30,-1
 709 356 l 1,31,-1
 709 0 l 1,32,-1
 348 0 l 1,33,-1
 348 356 l 1,30,-1
EndSplineSet
EndChar
StartChar: at
Encoding: 64 64 64
Width: 2048
Flags: W
Fore
831 539 m 0,0,1
 831 416 831 416 883.5 345 c 128,-1,2
 936 274 936 274 1026 274 c 0,3,4
 1115 274 1115 274 1168 345.5 c 128,-1,5
 1221 417 1221 417 1221 539 c 0,6,7
 1221 660 1221 660 1167.5 730.5 c 128,-1,8
 1114 801 1114 801 1024 801 c 0,9,10
 936 801 936 801 883.5 730.5 c 128,-1,11
 831 660 831 660 831 539 c 0,0,1
1241 238 m 1,12,13
 1211 167 1211 167 1144.5 127.5 c 128,-1,14
 1078 88 1078 88 989 88 c 0,15,16
 817 88 817 88 709.5 212.5 c 128,-1,17
 602 337 602 337 602 537 c 0,18,19
 602 737 602 737 710 862 c 128,-1,20
 818 987 818 987 989 987 c 0,21,22
 1078 987 1078 987 1144.5 947 c 128,-1,23
 1211 907 1211 907 1241 836 c 1,24,-1
 1241 967 l 1,25,-1
 1450 967 l 1,26,-1
 1450 274 l 1,27,28
 1574 293 1574 293 1645 393.5 c 128,-1,29
 1716 494 1716 494 1716 651 c 0,30,31
 1716 751 1716 751 1687 838.5 c 128,-1,32
 1658 926 1658 926 1599 999 c 1,33,34
 1504 1121 1504 1121 1361.5 1187 c 128,-1,35
 1219 1253 1219 1253 1053 1253 c 0,36,37
 937 1253 937 1253 831 1222.5 c 128,-1,38
 725 1192 725 1192 635 1133 c 0,39,40
 487 1035 487 1035 404.5 879.5 c 128,-1,41
 322 724 322 724 322 543 c 0,42,43
 322 394 322 394 375.5 263.5 c 128,-1,44
 429 133 429 133 530 33 c 0,45,46
 630 -65 630 -65 759.5 -116.5 c 128,-1,47
 889 -168 889 -168 1036 -168 c 0,48,49
 1162 -168 1162 -168 1288 -121 c 128,-1,50
 1414 -74 1414 -74 1503 6 c 1,51,-1
 1610 -156 l 1,52,53
 1485 -253 1485 -253 1337.5 -304.5 c 128,-1,54
 1190 -356 1190 -356 1038 -356 c 0,55,56
 853 -356 853 -356 689 -290.5 c 128,-1,57
 525 -225 525 -225 397 -100 c 0,58,59
 269 25 269 25 202 189.5 c 128,-1,60
 135 354 135 354 135 543 c 0,61,62
 135 725 135 725 203 890 c 128,-1,63
 271 1055 271 1055 397 1180 c 0,64,65
 523 1304 523 1304 690.5 1372 c 128,-1,66
 858 1440 858 1440 1038 1440 c 0,67,68
 1262 1440 1262 1440 1445 1354.5 c 128,-1,69
 1628 1269 1628 1269 1751 1108 c 0,70,71
 1826 1010 1826 1010 1864.5 895.5 c 128,-1,72
 1903 781 1903 781 1903 655 c 0,73,74
 1903 384 1903 384 1740 234 c 128,-1,75
 1577 84 1577 84 1280 84 c 2,76,-1
 1241 84 l 1,77,-1
 1241 238 l 1,12,13
EndSplineSet
EndChar
StartChar: A
Encoding: 65 65 65
Width: 1585
Flags: W
AnchorPoint: "below" 790 0 basechar 0
AnchorPoint: "above" 790 1520 basechar 0
Fore
1094 272 m 1,0,-1
 492 272 l 1,1,-1
 397 0 l 1,2,-1
 10 0 l 1,3,-1
 563 1493 l 1,4,-1
 1022 1493 l 1,5,-1
 1575 0 l 1,6,-1
 1188 0 l 1,7,-1
 1094 272 l 1,0,-1
588 549 m 1,8,-1
 997 549 l 1,9,-1
 793 1143 l 1,10,-1
 588 549 l 1,8,-1
EndSplineSet
EndChar
StartChar: B
Encoding: 66 66 66
Width: 1561
Flags: W
AnchorPoint: "above" 800 1520 basechar 0
AnchorPoint: "below" 800 0 basechar 0
Fore
786 915 m 2,0,1
 877 915 877 915 924 955 c 128,-1,2
 971 995 971 995 971 1073 c 0,3,4
 971 1150 971 1150 924 1190.5 c 128,-1,5
 877 1231 877 1231 786 1231 c 2,6,-1
 573 1231 l 1,7,-1
 573 915 l 1,8,-1
 786 915 l 2,0,1
799 262 m 2,9,10
 915 262 915 262 973.5 311 c 128,-1,11
 1032 360 1032 360 1032 459 c 0,12,13
 1032 556 1032 556 974 604.5 c 128,-1,14
 916 653 916 653 799 653 c 2,15,-1
 573 653 l 1,16,-1
 573 262 l 1,17,-1
 799 262 l 2,9,10
1157 799 m 1,18,19
 1281 763 1281 763 1349 666 c 128,-1,20
 1417 569 1417 569 1417 428 c 0,21,22
 1417 212 1417 212 1271 106 c 128,-1,23
 1125 0 1125 0 827 0 c 2,24,-1
 188 0 l 1,25,-1
 188 1493 l 1,26,-1
 766 1493 l 2,27,28
 1077 1493 1077 1493 1216.5 1399 c 128,-1,29
 1356 1305 1356 1305 1356 1098 c 0,30,31
 1356 989 1356 989 1305 912.5 c 128,-1,32
 1254 836 1254 836 1157 799 c 1,18,19
EndSplineSet
EndChar
StartChar: C
Encoding: 67 67 67
Width: 1503
Flags: W
AnchorPoint: "below" 909 0 basechar 0
AnchorPoint: "above" 909 1520 basechar 0
Fore
1372 82 m 1,0,1
 1266 27 1266 27 1151 -1 c 128,-1,2
 1036 -29 1036 -29 911 -29 c 0,3,4
 538 -29 538 -29 320 179.5 c 128,-1,5
 102 388 102 388 102 745 c 0,6,7
 102 1103 102 1103 320 1311.5 c 128,-1,8
 538 1520 538 1520 911 1520 c 0,9,10
 1036 1520 1036 1520 1151 1492 c 128,-1,11
 1266 1464 1266 1464 1372 1409 c 1,12,-1
 1372 1100 l 1,13,14
 1265 1173 1265 1173 1161 1207 c 128,-1,15
 1057 1241 1057 1241 942 1241 c 0,16,17
 736 1241 736 1241 618 1109 c 128,-1,18
 500 977 500 977 500 745 c 0,19,20
 500 514 500 514 618 382 c 128,-1,21
 736 250 736 250 942 250 c 0,22,23
 1057 250 1057 250 1161 284 c 128,-1,24
 1265 318 1265 318 1372 391 c 1,25,-1
 1372 82 l 1,0,1
EndSplineSet
EndChar
StartChar: D
Encoding: 68 68 68
Width: 1700
Flags: W
AnchorPoint: "below" 777 0 basechar 0
AnchorPoint: "above" 777 1520 basechar 0
Fore
573 1202 m 1,0,-1
 573 291 l 1,1,-1
 711 291 l 2,2,3
 947 291 947 291 1071.5 408 c 128,-1,4
 1196 525 1196 525 1196 748 c 0,5,6
 1196 970 1196 970 1072 1086 c 128,-1,7
 948 1202 948 1202 711 1202 c 2,8,-1
 573 1202 l 1,0,-1
188 1493 m 1,9,-1
 594 1493 l 2,10,11
 934 1493 934 1493 1100.5 1444.5 c 128,-1,12
 1267 1396 1267 1396 1386 1280 c 0,13,14
 1491 1179 1491 1179 1542 1047 c 128,-1,15
 1593 915 1593 915 1593 748 c 0,16,17
 1593 579 1593 579 1542 446.5 c 128,-1,18
 1491 314 1491 314 1386 213 c 0,19,20
 1266 97 1266 97 1098 48.5 c 128,-1,21
 930 0 930 0 594 0 c 2,22,-1
 188 0 l 1,23,-1
 188 1493 l 1,9,-1
EndSplineSet
EndChar
StartChar: E
Encoding: 69 69 69
Width: 1399
Flags: W
AnchorPoint: "below" 690 0 basechar 0
AnchorPoint: "above" 690 1520 basechar 0
Fore
188 1493 m 1,0,-1
 1227 1493 l 1,1,-1
 1227 1202 l 1,2,-1
 573 1202 l 1,3,-1
 573 924 l 1,4,-1
 1188 924 l 1,5,-1
 1188 633 l 1,6,-1
 573 633 l 1,7,-1
 573 291 l 1,8,-1
 1249 291 l 1,9,-1
 1249 0 l 1,10,-1
 188 0 l 1,11,-1
 188 1493 l 1,0,-1
EndSplineSet
EndChar
StartChar: F
Encoding: 70 70 70
Width: 1399
Flags: W
AnchorPoint: "above" 690 1520 basechar 0
AnchorPoint: "below" 380 0 basechar 0
Fore
188 1493 m 1,0,-1
 1227 1493 l 1,1,-1
 1227 1202 l 1,2,-1
 573 1202 l 1,3,-1
 573 924 l 1,4,-1
 1188 924 l 1,5,-1
 1188 633 l 1,6,-1
 573 633 l 1,7,-1
 573 0 l 1,8,-1
 188 0 l 1,9,-1
 188 1493 l 1,0,-1
EndSplineSet
EndChar
StartChar: G
Encoding: 71 71 71
Width: 1681
Flags: W
AnchorPoint: "below" 930 0 basechar 0
AnchorPoint: "above" 930 1520 basechar 0
Fore
1530 111 m 1,0,1
 1386 41 1386 41 1231 6 c 128,-1,2
 1076 -29 1076 -29 911 -29 c 0,3,4
 538 -29 538 -29 320 179.5 c 128,-1,5
 102 388 102 388 102 745 c 0,6,7
 102 1106 102 1106 324 1313 c 128,-1,8
 546 1520 546 1520 932 1520 c 0,9,10
 1081 1520 1081 1520 1217.5 1492 c 128,-1,11
 1354 1464 1354 1464 1475 1409 c 1,12,-1
 1475 1100 l 1,13,14
 1350 1171 1350 1171 1226.5 1206 c 128,-1,15
 1103 1241 1103 1241 979 1241 c 0,16,17
 749 1241 749 1241 624.5 1112.5 c 128,-1,18
 500 984 500 984 500 745 c 0,19,20
 500 508 500 508 620 379 c 128,-1,21
 740 250 740 250 961 250 c 0,22,23
 1021 250 1021 250 1072.5 257.5 c 128,-1,24
 1124 265 1124 265 1165 281 c 1,25,-1
 1165 571 l 1,26,-1
 930 571 l 1,27,-1
 930 829 l 1,28,-1
 1530 829 l 1,29,-1
 1530 111 l 1,0,1
EndSplineSet
EndChar
StartChar: H
Encoding: 72 72 72
Width: 1714
Flags: W
AnchorPoint: "below" 855 0 basechar 0
AnchorPoint: "above" 855 1520 basechar 0
Fore
188 1493 m 1,0,-1
 573 1493 l 1,1,-1
 573 924 l 1,2,-1
 1141 924 l 1,3,-1
 1141 1493 l 1,4,-1
 1526 1493 l 1,5,-1
 1526 0 l 1,6,-1
 1141 0 l 1,7,-1
 1141 633 l 1,8,-1
 573 633 l 1,9,-1
 573 0 l 1,10,-1
 188 0 l 1,11,-1
 188 1493 l 1,0,-1
EndSplineSet
EndChar
StartChar: I
Encoding: 73 73 73
Width: 762
Flags: W
AnchorPoint: "below" 378 6 basechar 0
AnchorPoint: "above" 378 1520 basechar 0
Fore
188 1493 m 1,0,-1
 573 1493 l 1,1,-1
 573 0 l 1,2,-1
 188 0 l 1,3,-1
 188 1493 l 1,0,-1
EndSplineSet
AlternateSubs: 0 2 'aalt' I.alt
Substitution: 0 2 'salt' I.alt
EndChar
StartChar: J
Encoding: 74 74 74
Width: 762
Flags: W
AnchorPoint: "below" 378 -430 basechar 0
AnchorPoint: "above" 378 1520 basechar 0
Fore
188 1493 m 1,0,-1
 573 1493 l 1,1,-1
 573 145 l 2,2,3
 573 -134 573 -134 421.5 -272 c 128,-1,4
 270 -410 270 -410 -37 -410 c 2,5,-1
 -115 -410 l 1,6,-1
 -115 -119 l 1,7,-1
 -55 -119 l 2,8,9
 65 -119 65 -119 126.5 -52 c 128,-1,10
 188 15 188 15 188 145 c 2,11,-1
 188 1493 l 1,0,-1
EndSplineSet
AlternateSubs: 0 2 'aalt' J.alt
Substitution: 0 2 'salt' J.alt
EndChar
StartChar: K
Encoding: 75 75 75
Width: 1587
Flags: W
AnchorPoint: "below" 881 0 basechar 0
AnchorPoint: "above" 881 1520 basechar 0
Fore
188 1493 m 1,0,-1
 573 1493 l 1,1,-1
 573 948 l 1,2,-1
 1128 1493 l 1,3,-1
 1575 1493 l 1,4,-1
 856 786 l 1,5,-1
 1649 0 l 1,6,-1
 1167 0 l 1,7,-1
 573 588 l 1,8,-1
 573 0 l 1,9,-1
 188 0 l 1,10,-1
 188 1493 l 1,0,-1
EndSplineSet
EndChar
StartChar: L
Encoding: 76 76 76
Width: 1305
Flags: W
AnchorPoint: "below" 718 0 basechar 0
AnchorPoint: "above" 380 1520 basechar 0
Fore
188 1493 m 1,0,-1
 573 1493 l 1,1,-1
 573 291 l 1,2,-1
 1249 291 l 1,3,-1
 1249 0 l 1,4,-1
 188 0 l 1,5,-1
 188 1493 l 1,0,-1
EndSplineSet
EndChar
StartChar: M
Encoding: 77 77 77
Width: 2038
Flags: W
AnchorPoint: "below" 1018 0 basechar 0
AnchorPoint: "above" 1018 1520 basechar 0
Fore
188 1493 m 1,0,-1
 678 1493 l 1,1,-1
 1018 694 l 1,2,-1
 1360 1493 l 1,3,-1
 1849 1493 l 1,4,-1
 1849 0 l 1,5,-1
 1485 0 l 1,6,-1
 1485 1092 l 1,7,-1
 1141 287 l 1,8,-1
 897 287 l 1,9,-1
 553 1092 l 1,10,-1
 553 0 l 1,11,-1
 188 0 l 1,12,-1
 188 1493 l 1,0,-1
EndSplineSet
EndChar
StartChar: N
Encoding: 78 78 78
Width: 1714
Flags: W
AnchorPoint: "below" 879 0 basechar 0
AnchorPoint: "above" 879 1520 basechar 0
Fore
188 1493 m 1,0,-1
 618 1493 l 1,1,-1
 1161 469 l 1,2,-1
 1161 1493 l 1,3,-1
 1526 1493 l 1,4,-1
 1526 0 l 1,5,-1
 1096 0 l 1,6,-1
 553 1024 l 1,7,-1
 553 0 l 1,8,-1
 188 0 l 1,9,-1
 188 1493 l 1,0,-1
EndSplineSet
EndChar
StartChar: O
Encoding: 79 79 79
Width: 1741
Flags: W
AnchorPoint: "below" 870 0 basechar 0
AnchorPoint: "above" 870 1520 basechar 0
Fore
870 1241 m 0,0,1
 694 1241 694 1241 597 1111 c 128,-1,2
 500 981 500 981 500 745 c 0,3,4
 500 510 500 510 597 380 c 128,-1,5
 694 250 694 250 870 250 c 0,6,7
 1047 250 1047 250 1144 380 c 128,-1,8
 1241 510 1241 510 1241 745 c 0,9,10
 1241 981 1241 981 1144 1111 c 128,-1,11
 1047 1241 1047 1241 870 1241 c 0,0,1
870 1520 m 0,12,13
 1230 1520 1230 1520 1434 1314 c 128,-1,14
 1638 1108 1638 1108 1638 745 c 0,15,16
 1638 383 1638 383 1434 177 c 128,-1,17
 1230 -29 1230 -29 870 -29 c 0,18,19
 511 -29 511 -29 306.5 177 c 128,-1,20
 102 383 102 383 102 745 c 0,21,22
 102 1108 102 1108 306.5 1314 c 128,-1,23
 511 1520 511 1520 870 1520 c 0,12,13
EndSplineSet
EndChar
StartChar: P
Encoding: 80 80 80
Width: 1501
Flags: W
AnchorPoint: "above" 802 1520 basechar 0
AnchorPoint: "below" 380 0 basechar 0
Fore
188 1493 m 1,0,-1
 827 1493 l 2,1,2
 1112 1493 1112 1493 1264.5 1366.5 c 128,-1,3
 1417 1240 1417 1240 1417 1006 c 0,4,5
 1417 771 1417 771 1264.5 644.5 c 128,-1,6
 1112 518 1112 518 827 518 c 2,7,-1
 573 518 l 1,8,-1
 573 0 l 1,9,-1
 188 0 l 1,10,-1
 188 1493 l 1,0,-1
573 1214 m 1,11,-1
 573 797 l 1,12,-1
 786 797 l 2,13,14
 898 797 898 797 959 851.5 c 128,-1,15
 1020 906 1020 906 1020 1006 c 0,16,17
 1020 1106 1020 1106 959 1160 c 128,-1,18
 898 1214 898 1214 786 1214 c 2,19,-1
 573 1214 l 1,11,-1
EndSplineSet
EndChar
StartChar: Q
Encoding: 81 81 81
Width: 1741
Flags: W
AnchorPoint: "above" 870 1520 basechar 0
AnchorPoint: "below" 870 0 basechar 0
Fore
911 -27 m 1,0,-1
 881 -27 l 2,1,2
 512 -27 512 -27 307 177 c 128,-1,3
 102 381 102 381 102 745 c 0,4,5
 102 1108 102 1108 306.5 1314 c 128,-1,6
 511 1520 511 1520 870 1520 c 0,7,8
 1233 1520 1233 1520 1435.5 1316 c 128,-1,9
 1638 1112 1638 1112 1638 745 c 0,10,11
 1638 493 1638 493 1530.5 311 c 128,-1,12
 1423 129 1423 129 1221 37 c 1,13,-1
 1522 -299 l 1,14,-1
 1155 -299 l 1,15,-1
 911 -27 l 1,0,-1
870 1241 m 0,16,17
 694 1241 694 1241 597 1111 c 128,-1,18
 500 981 500 981 500 745 c 0,19,20
 500 505 500 505 595 377.5 c 128,-1,21
 690 250 690 250 870 250 c 0,22,23
 1047 250 1047 250 1144 380 c 128,-1,24
 1241 510 1241 510 1241 745 c 0,25,26
 1241 981 1241 981 1144 1111 c 128,-1,27
 1047 1241 1047 1241 870 1241 c 0,16,17
EndSplineSet
EndChar
StartChar: R
Encoding: 82 82 82
Width: 1577
Flags: W
AnchorPoint: "below" 711 0 basechar 0
AnchorPoint: "above" 711 1520 basechar 0
Fore
735 831 m 2,0,1
 856 831 856 831 908.5 876 c 128,-1,2
 961 921 961 921 961 1024 c 0,3,4
 961 1126 961 1126 908.5 1170 c 128,-1,5
 856 1214 856 1214 735 1214 c 2,6,-1
 573 1214 l 1,7,-1
 573 831 l 1,8,-1
 735 831 l 2,0,1
573 565 m 1,9,-1
 573 0 l 1,10,-1
 188 0 l 1,11,-1
 188 1493 l 1,12,-1
 776 1493 l 2,13,14
 1071 1493 1071 1493 1208.5 1394 c 128,-1,15
 1346 1295 1346 1295 1346 1081 c 0,16,17
 1346 933 1346 933 1274.5 838 c 128,-1,18
 1203 743 1203 743 1059 698 c 1,19,20
 1138 680 1138 680 1200.5 616.5 c 128,-1,21
 1263 553 1263 553 1327 424 c 2,22,-1
 1536 0 l 1,23,-1
 1126 0 l 1,24,-1
 944 371 l 2,25,26
 889 483 889 483 832.5 524 c 128,-1,27
 776 565 776 565 682 565 c 2,28,-1
 573 565 l 1,9,-1
EndSplineSet
EndChar
StartChar: S
Encoding: 83 83 83
Width: 1475
Flags: W
AnchorPoint: "below" 703 0 basechar 0
AnchorPoint: "above" 703 1520 basechar 0
Fore
1227 1446 m 1,0,-1
 1227 1130 l 1,1,2
 1104 1185 1104 1185 987 1213 c 128,-1,3
 870 1241 870 1241 766 1241 c 0,4,5
 628 1241 628 1241 562 1203 c 128,-1,6
 496 1165 496 1165 496 1085 c 0,7,8
 496 1025 496 1025 540.5 991.5 c 128,-1,9
 585 958 585 958 702 934 c 2,10,-1
 866 901 l 2,11,12
 1115 851 1115 851 1220 749 c 128,-1,13
 1325 647 1325 647 1325 459 c 0,14,15
 1325 212 1325 212 1178.5 91.5 c 128,-1,16
 1032 -29 1032 -29 731 -29 c 0,17,18
 589 -29 589 -29 446 -2 c 128,-1,19
 303 25 303 25 160 78 c 1,20,-1
 160 403 l 1,21,22
 303 327 303 327 436.5 288.5 c 128,-1,23
 570 250 570 250 694 250 c 0,24,25
 820 250 820 250 887 292 c 128,-1,26
 954 334 954 334 954 412 c 0,27,28
 954 482 954 482 908.5 520 c 128,-1,29
 863 558 863 558 727 588 c 2,30,-1
 578 621 l 2,31,32
 354 669 354 669 250.5 774 c 128,-1,33
 147 879 147 879 147 1057 c 0,34,35
 147 1280 147 1280 291 1400 c 128,-1,36
 435 1520 435 1520 705 1520 c 0,37,38
 828 1520 828 1520 958 1501.5 c 128,-1,39
 1088 1483 1088 1483 1227 1446 c 1,0,-1
EndSplineSet
EndChar
StartChar: T
Encoding: 84 84 84
Width: 1397
Flags: W
AnchorPoint: "below" 698 0 basechar 0
AnchorPoint: "above" 698 1520 basechar 0
Fore
10 1493 m 1,0,-1
 1386 1493 l 1,1,-1
 1386 1202 l 1,2,-1
 891 1202 l 1,3,-1
 891 0 l 1,4,-1
 506 0 l 1,5,-1
 506 1202 l 1,6,-1
 10 1202 l 1,7,-1
 10 1493 l 1,0,-1
EndSplineSet
EndChar
StartChar: U
Encoding: 85 85 85
Width: 1663
Flags: W
AnchorPoint: "below" 830 0 basechar 0
AnchorPoint: "above" 830 1520 basechar 0
Fore
188 1493 m 1,0,-1
 573 1493 l 1,1,-1
 573 598 l 2,2,3
 573 413 573 413 633.5 333.5 c 128,-1,4
 694 254 694 254 831 254 c 0,5,6
 969 254 969 254 1029.5 333.5 c 128,-1,7
 1090 413 1090 413 1090 598 c 2,8,-1
 1090 1493 l 1,9,-1
 1475 1493 l 1,10,-1
 1475 598 l 2,11,12
 1475 281 1475 281 1316 126 c 128,-1,13
 1157 -29 1157 -29 831 -29 c 0,14,15
 506 -29 506 -29 347 126 c 128,-1,16
 188 281 188 281 188 598 c 2,17,-1
 188 1493 l 1,0,-1
EndSplineSet
EndChar
StartChar: V
Encoding: 86 86 86
Width: 1585
Flags: W
AnchorPoint: "above" 793 1520 basechar 0
AnchorPoint: "below" 793 0 basechar 0
Fore
10 1493 m 1,0,-1
 397 1493 l 1,1,-1
 793 391 l 1,2,-1
 1188 1493 l 1,3,-1
 1575 1493 l 1,4,-1
 1022 0 l 1,5,-1
 563 0 l 1,6,-1
 10 1493 l 1,0,-1
EndSplineSet
EndChar
StartChar: W
Encoding: 87 87 87
Width: 2259
Flags: W
AnchorPoint: "below" 1126 0 basechar 0
AnchorPoint: "above" 1126 1527 basechar 0
Fore
61 1493 m 1,0,-1
 430 1493 l 1,1,-1
 688 408 l 1,2,-1
 944 1493 l 1,3,-1
 1315 1493 l 1,4,-1
 1571 408 l 1,5,-1
 1829 1493 l 1,6,-1
 2195 1493 l 1,7,-1
 1843 0 l 1,8,-1
 1399 0 l 1,9,-1
 1128 1135 l 1,10,-1
 860 0 l 1,11,-1
 416 0 l 1,12,-1
 61 1493 l 1,0,-1
EndSplineSet
EndChar
StartChar: X
Encoding: 88 88 88
Width: 1579
Flags: W
AnchorPoint: "above" 788 1527 basechar 0
AnchorPoint: "below" 788 0 basechar 0
Fore
1020 762 m 1,0,-1
 1538 0 l 1,1,-1
 1137 0 l 1,2,-1
 788 510 l 1,3,-1
 442 0 l 1,4,-1
 39 0 l 1,5,-1
 557 762 l 1,6,-1
 59 1493 l 1,7,-1
 461 1493 l 1,8,-1
 788 1012 l 1,9,-1
 1114 1493 l 1,10,-1
 1518 1493 l 1,11,-1
 1020 762 l 1,0,-1
EndSplineSet
EndChar
StartChar: Y
Encoding: 89 89 89
Width: 1483
Flags: W
AnchorPoint: "below" 741 0 basechar 0
AnchorPoint: "above" 741 1527 basechar 0
Fore
-20 1493 m 1,0,-1
 401 1493 l 1,1,-1
 741 961 l 1,2,-1
 1081 1493 l 1,3,-1
 1503 1493 l 1,4,-1
 934 629 l 1,5,-1
 934 0 l 1,6,-1
 549 0 l 1,7,-1
 549 629 l 1,8,-1
 -20 1493 l 1,0,-1
EndSplineSet
EndChar
StartChar: Z
Encoding: 90 90 90
Width: 1485
Flags: W
AnchorPoint: "below" 742 -12 basechar 0
AnchorPoint: "above" 742 1520 basechar 0
Fore
115 1493 m 1,0,-1
 1370 1493 l 1,1,-1
 1370 1260 l 1,2,-1
 569 291 l 1,3,-1
 1393 291 l 1,4,-1
 1393 0 l 1,5,-1
 92 0 l 1,6,-1
 92 233 l 1,7,-1
 893 1202 l 1,8,-1
 115 1202 l 1,9,-1
 115 1493 l 1,0,-1
EndSplineSet
EndChar
StartChar: bracketleft
Encoding: 91 91 91
Width: 936
Flags: W
Fore
176 1556 m 1,0,-1
 797 1556 l 1,1,-1
 797 1331 l 1,2,-1
 516 1331 l 1,3,-1
 516 -45 l 1,4,-1
 797 -45 l 1,5,-1
 797 -270 l 1,6,-1
 176 -270 l 1,7,-1
 176 1556 l 1,0,-1
EndSplineSet
EndChar
StartChar: backslash
Encoding: 92 92 92
Width: 748
Flags: W
Fore
526 -190 m 1,0,-1
 0 1493 l 1,1,-1
 221 1493 l 1,2,-1
 748 -190 l 1,3,-1
 526 -190 l 1,0,-1
EndSplineSet
EndChar
StartChar: bracketright
Encoding: 93 93 93
Width: 936
Flags: W
Fore
760 -270 m 1,0,-1
 139 -270 l 1,1,-1
 139 -45 l 1,2,-1
 420 -45 l 1,3,-1
 420 1331 l 1,4,-1
 139 1331 l 1,5,-1
 139 1556 l 1,6,-1
 760 1556 l 1,7,-1
 760 -270 l 1,0,-1
EndSplineSet
EndChar
StartChar: asciicircum
Encoding: 94 94 94
Width: 1716
Flags: W
Fore
981 1493 m 1,0,-1
 1509 936 l 1,1,-1
 1268 936 l 1,2,-1
 858 1237 l 1,3,-1
 449 936 l 1,4,-1
 207 936 l 1,5,-1
 735 1493 l 1,6,-1
 981 1493 l 1,0,-1
EndSplineSet
EndChar
StartChar: underscore
Encoding: 95 95 95
Width: 1024
Flags: W
Fore
1024 -293 m 1,0,-1
 1024 -483 l 1,1,-1
 0 -483 l 1,2,-1
 0 -293 l 1,3,-1
 1024 -293 l 1,0,-1
EndSplineSet
EndChar
StartChar: grave
Encoding: 96 96 96
Width: 1024
Flags: W
Fore
377 1638 m 1,0,-1
 659 1262 l 1,1,-1
 463 1262 l 1,2,-1
 94 1638 l 1,3,-1
 377 1638 l 1,0,-1
EndSplineSet
EndChar
StartChar: a
Encoding: 97 97 97
Width: 1382
Flags: W
AnchorPoint: "below" 698 0 basechar 0
AnchorPoint: "above" 698 1147 basechar 0
Fore
674 504 m 2,0,1
 562 504 562 504 505.5 466 c 128,-1,2
 449 428 449 428 449 354 c 0,3,4
 449 286 449 286 494.5 247.5 c 128,-1,5
 540 209 540 209 621 209 c 0,6,7
 722 209 722 209 791 281.5 c 128,-1,8
 860 354 860 354 860 463 c 2,9,-1
 860 504 l 1,10,-1
 674 504 l 2,0,1
1221 639 m 2,11,-1
 1221 0 l 1,12,-1
 860 0 l 1,13,-1
 860 166 l 1,14,15
 788 64 788 64 698 17.5 c 128,-1,16
 608 -29 608 -29 479 -29 c 0,17,18
 305 -29 305 -29 196.5 72.5 c 128,-1,19
 88 174 88 174 88 336 c 0,20,21
 88 533 88 533 223.5 625 c 128,-1,22
 359 717 359 717 649 717 c 2,23,-1
 860 717 l 1,24,-1
 860 745 l 2,25,26
 860 830 860 830 793 869.5 c 128,-1,27
 726 909 726 909 584 909 c 0,28,29
 469 909 469 909 370 886 c 128,-1,30
 271 863 271 863 186 817 c 1,31,-1
 186 1090 l 1,32,33
 301 1118 301 1118 417 1132.5 c 128,-1,34
 533 1147 533 1147 649 1147 c 0,35,36
 952 1147 952 1147 1086.5 1027.5 c 128,-1,37
 1221 908 1221 908 1221 639 c 2,11,-1
EndSplineSet
Substitution: 0 2 'salt' uni0251
Substitution: 0 2 'aalt' uni0251
EndChar
StartChar: b
Encoding: 98 98 98
Width: 1466
Flags: W
AnchorPoint: "below" 698 0 basechar 0
AnchorPoint: "above" 356 1520 basechar 0
Fore
768 231 m 0,0,1
 883 231 883 231 943.5 315 c 128,-1,2
 1004 399 1004 399 1004 559 c 0,3,4
 1004 719 1004 719 943.5 803 c 128,-1,5
 883 887 883 887 768 887 c 0,6,7
 653 887 653 887 591.5 802.5 c 128,-1,8
 530 718 530 718 530 559 c 0,9,10
 530 400 530 400 591.5 315.5 c 128,-1,11
 653 231 653 231 768 231 c 0,0,1
530 956 m 1,12,13
 604 1054 604 1054 694 1100.5 c 128,-1,14
 784 1147 784 1147 901 1147 c 0,15,16
 1108 1147 1108 1147 1241 982.5 c 128,-1,17
 1374 818 1374 818 1374 559 c 0,18,19
 1374 300 1374 300 1241 135.5 c 128,-1,20
 1108 -29 1108 -29 901 -29 c 0,21,22
 784 -29 784 -29 694 17.5 c 128,-1,23
 604 64 604 64 530 162 c 1,24,-1
 530 0 l 1,25,-1
 172 0 l 1,26,-1
 172 1556 l 1,27,-1
 530 1556 l 1,28,-1
 530 956 l 1,12,13
EndSplineSet
EndChar
StartChar: c
Encoding: 99 99 99
Width: 1214
Flags: W
AnchorPoint: "below" 733 0 basechar 0
AnchorPoint: "above" 733 1147 basechar 0
Fore
1077 1085 m 1,0,-1
 1077 793 l 1,1,2
 1004 843 1004 843 930.5 867 c 128,-1,3
 857 891 857 891 778 891 c 0,4,5
 628 891 628 891 544.5 803.5 c 128,-1,6
 461 716 461 716 461 559 c 0,7,8
 461 402 461 402 544.5 314.5 c 128,-1,9
 628 227 628 227 778 227 c 0,10,11
 862 227 862 227 937.5 252 c 128,-1,12
 1013 277 1013 277 1077 326 c 1,13,-1
 1077 33 l 1,14,15
 993 2 993 2 906.5 -13.5 c 128,-1,16
 820 -29 820 -29 733 -29 c 0,17,18
 430 -29 430 -29 259 126.5 c 128,-1,19
 88 282 88 282 88 559 c 0,20,21
 88 836 88 836 259 991.5 c 128,-1,22
 430 1147 430 1147 733 1147 c 0,23,24
 821 1147 821 1147 906.5 1131.5 c 128,-1,25
 992 1116 992 1116 1077 1085 c 1,0,-1
EndSplineSet
EndChar
StartChar: d
Encoding: 100 100 100
Width: 1466
Flags: W
AnchorPoint: "below" 729 0 basechar 0
AnchorPoint: "above" 1114 1520 basechar 0
Fore
934 956 m 1,0,-1
 934 1556 l 1,1,-1
 1294 1556 l 1,2,-1
 1294 0 l 1,3,-1
 934 0 l 1,4,-1
 934 162 l 1,5,6
 860 63 860 63 771 17 c 128,-1,7
 682 -29 682 -29 565 -29 c 0,8,9
 358 -29 358 -29 225 135.5 c 128,-1,10
 92 300 92 300 92 559 c 0,11,12
 92 818 92 818 225 982.5 c 128,-1,13
 358 1147 358 1147 565 1147 c 0,14,15
 681 1147 681 1147 770.5 1100.5 c 128,-1,16
 860 1054 860 1054 934 956 c 1,0,-1
698 231 m 0,17,18
 813 231 813 231 873.5 315 c 128,-1,19
 934 399 934 399 934 559 c 0,20,21
 934 719 934 719 873.5 803 c 128,-1,22
 813 887 813 887 698 887 c 0,23,24
 584 887 584 887 523.5 803 c 128,-1,25
 463 719 463 719 463 559 c 0,26,27
 463 399 463 399 523.5 315 c 128,-1,28
 584 231 584 231 698 231 c 0,17,18
EndSplineSet
EndChar
StartChar: e
Encoding: 101 101 101
Width: 1389
Flags: W
AnchorPoint: "below" 729 0 basechar 0
AnchorPoint: "above" 729 1147 basechar 0
Fore
1290 563 m 2,0,-1
 1290 461 l 1,1,-1
 453 461 l 1,2,3
 466 335 466 335 544 272 c 128,-1,4
 622 209 622 209 762 209 c 0,5,6
 875 209 875 209 993.5 242.5 c 128,-1,7
 1112 276 1112 276 1237 344 c 1,8,-1
 1237 68 l 1,9,10
 1110 20 1110 20 983 -4.5 c 128,-1,11
 856 -29 856 -29 729 -29 c 0,12,13
 425 -29 425 -29 256.5 125.5 c 128,-1,14
 88 280 88 280 88 559 c 0,15,16
 88 833 88 833 253.5 990 c 128,-1,17
 419 1147 419 1147 709 1147 c 0,18,19
 973 1147 973 1147 1131.5 988 c 128,-1,20
 1290 829 1290 829 1290 563 c 2,0,-1
922 682 m 1,21,22
 922 784 922 784 862.5 846.5 c 128,-1,23
 803 909 803 909 707 909 c 0,24,25
 603 909 603 909 538 850.5 c 128,-1,26
 473 792 473 792 457 682 c 1,27,-1
 922 682 l 1,21,22
EndSplineSet
EndChar
StartChar: f
Encoding: 102 102 102
Width: 891
Flags: W
AnchorPoint: "below" 394 0 basechar 0
AnchorPoint: "above" 394 1520 basechar 0
Fore
909 1556 m 1,0,-1
 909 1321 l 1,1,-1
 711 1321 l 2,2,3
 635 1321 635 1321 605 1293.5 c 128,-1,4
 575 1266 575 1266 575 1198 c 2,5,-1
 575 1120 l 1,6,-1
 881 1120 l 1,7,-1
 881 864 l 1,8,-1
 575 864 l 1,9,-1
 575 0 l 1,10,-1
 217 0 l 1,11,-1
 217 864 l 1,12,-1
 39 864 l 1,13,-1
 39 1120 l 1,14,-1
 217 1120 l 1,15,-1
 217 1198 l 2,16,17
 217 1381 217 1381 319 1468.5 c 128,-1,18
 421 1556 421 1556 635 1556 c 2,19,-1
 909 1556 l 1,0,-1
EndSplineSet
EndChar
StartChar: g
Encoding: 103 103 103
Width: 1466
Flags: W
AnchorPoint: "below" 698 -430 basechar 0
AnchorPoint: "above" 698 1147 basechar 0
Fore
934 190 m 1,0,1
 860 92 860 92 771 46 c 128,-1,2
 682 0 682 0 565 0 c 0,3,4
 360 0 360 0 226 161.5 c 128,-1,5
 92 323 92 323 92 573 c 0,6,7
 92 824 92 824 226 984.5 c 128,-1,8
 360 1145 360 1145 565 1145 c 0,9,10
 682 1145 682 1145 771 1099 c 128,-1,11
 860 1053 860 1053 934 954 c 1,12,-1
 934 1120 l 1,13,-1
 1294 1120 l 1,14,-1
 1294 113 l 2,15,16
 1294 -157 1294 -157 1123.5 -299.5 c 128,-1,17
 953 -442 953 -442 629 -442 c 0,18,19
 524 -442 524 -442 426 -426 c 128,-1,20
 328 -410 328 -410 229 -377 c 1,21,-1
 229 -98 l 1,22,23
 323 -152 323 -152 413 -178.5 c 128,-1,24
 503 -205 503 -205 594 -205 c 0,25,26
 770 -205 770 -205 852 -128 c 128,-1,27
 934 -51 934 -51 934 113 c 2,28,-1
 934 190 l 1,0,1
698 887 m 0,29,30
 587 887 587 887 525 805 c 128,-1,31
 463 723 463 723 463 573 c 0,32,33
 463 419 463 419 523 339.5 c 128,-1,34
 583 260 583 260 698 260 c 0,35,36
 810 260 810 260 872 342 c 128,-1,37
 934 424 934 424 934 573 c 0,38,39
 934 723 934 723 872 805 c 128,-1,40
 810 887 810 887 698 887 c 0,29,30
EndSplineSet
EndChar
StartChar: h
Encoding: 104 104 104
Width: 1458
Flags: W
AnchorPoint: "below" 698 0 basechar 0
AnchorPoint: "above" 356 1520 basechar 0
Fore
1298 682 m 2,0,-1
 1298 0 l 1,1,-1
 938 0 l 1,2,-1
 938 111 l 1,3,-1
 938 520 l 2,4,5
 938 667 938 667 931.5 722 c 128,-1,6
 925 777 925 777 909 803 c 0,7,8
 888 838 888 838 852 857.5 c 128,-1,9
 816 877 816 877 770 877 c 0,10,11
 658 877 658 877 594 790.5 c 128,-1,12
 530 704 530 704 530 551 c 2,13,-1
 530 0 l 1,14,-1
 172 0 l 1,15,-1
 172 1556 l 1,16,-1
 530 1556 l 1,17,-1
 530 956 l 1,18,19
 611 1054 611 1054 702 1100.5 c 128,-1,20
 793 1147 793 1147 903 1147 c 0,21,22
 1097 1147 1097 1147 1197.5 1028 c 128,-1,23
 1298 909 1298 909 1298 682 c 2,0,-1
EndSplineSet
EndChar
StartChar: i
Encoding: 105 105 105
Width: 702
Flags: W
AnchorPoint: "below" 350 0 basechar 0
AnchorPoint: "above" 350 1583 basechar 0
Fore
172 1120 m 1,0,-1
 530 1120 l 1,1,-1
 530 0 l 1,2,-1
 172 0 l 1,3,-1
 172 1120 l 1,0,-1
172 1556 m 1,4,-1
 530 1556 l 1,5,-1
 530 1264 l 1,6,-1
 172 1264 l 1,7,-1
 172 1556 l 1,4,-1
EndSplineSet
Substitution: 0 65534 'DTLS' dotlessi
EndChar
StartChar: j
Encoding: 106 106 106
Width: 702
Flags: W
AnchorPoint: "below" 351 -430 basechar 0
AnchorPoint: "above" 351 1583 basechar 0
Fore
172 1120 m 1,0,-1
 530 1120 l 1,1,-1
 530 20 l 2,2,3
 530 -205 530 -205 422 -323.5 c 128,-1,4
 314 -442 314 -442 109 -442 c 2,5,-1
 -68 -442 l 1,6,-1
 -68 -207 l 1,7,-1
 -6 -207 l 2,8,9
 96 -207 96 -207 134 -161 c 128,-1,10
 172 -115 172 -115 172 20 c 2,11,-1
 172 1120 l 1,0,-1
172 1556 m 1,12,-1
 530 1556 l 1,13,-1
 530 1264 l 1,14,-1
 172 1264 l 1,15,-1
 172 1556 l 1,12,-1
EndSplineSet
Substitution: 0 65534 'DTLS' dotlessj
EndChar
StartChar: k
Encoding: 107 107 107
Width: 1362
Flags: W
AnchorPoint: "below" 698 0 basechar 0
AnchorPoint: "above" 356 1520 basechar 0
Fore
172 1556 m 1,0,-1
 530 1556 l 1,1,-1
 530 709 l 1,2,-1
 942 1120 l 1,3,-1
 1358 1120 l 1,4,-1
 811 606 l 1,5,-1
 1401 0 l 1,6,-1
 967 0 l 1,7,-1
 530 467 l 1,8,-1
 530 0 l 1,9,-1
 172 0 l 1,10,-1
 172 1556 l 1,0,-1
EndSplineSet
EndChar
StartChar: l
Encoding: 108 108 108
Width: 702
Flags: W
AnchorPoint: "below" 356 0 basechar 0
AnchorPoint: "above" 356 1520 basechar 0
Fore
172 1556 m 1,0,-1
 530 1556 l 1,1,-1
 530 0 l 1,2,-1
 172 0 l 1,3,-1
 172 1556 l 1,0,-1
EndSplineSet
AlternateSubs: 0 2 'aalt' l.alt
Substitution: 0 2 'salt' l.alt
EndChar
StartChar: m
Encoding: 109 109 109
Width: 2134
Flags: W
AnchorPoint: "below" 1071 0 basechar 0
AnchorPoint: "above" 1071 1147 basechar 0
Fore
1210 934 m 1,0,1
 1278 1038 1278 1038 1371.5 1092.5 c 128,-1,2
 1465 1147 1465 1147 1577 1147 c 0,3,4
 1770 1147 1770 1147 1871 1028 c 128,-1,5
 1972 909 1972 909 1972 682 c 2,6,-1
 1972 0 l 1,7,-1
 1612 0 l 1,8,-1
 1612 584 l 1,9,10
 1613 597 1613 597 1613.5 611 c 128,-1,11
 1614 625 1614 625 1614 651 c 0,12,13
 1614 770 1614 770 1579 823.5 c 128,-1,14
 1544 877 1544 877 1466 877 c 0,15,16
 1364 877 1364 877 1308.5 793 c 128,-1,17
 1253 709 1253 709 1251 550 c 1,18,-1
 1251 0 l 1,19,-1
 891 0 l 1,20,-1
 891 584 l 2,21,22
 891 770 891 770 859 823.5 c 128,-1,23
 827 877 827 877 745 877 c 0,24,25
 642 877 642 877 586 792.5 c 128,-1,26
 530 708 530 708 530 551 c 2,27,-1
 530 0 l 1,28,-1
 170 0 l 1,29,-1
 170 1120 l 1,30,-1
 530 1120 l 1,31,-1
 530 956 l 1,32,33
 596 1051 596 1051 681.5 1099 c 128,-1,34
 767 1147 767 1147 870 1147 c 0,35,36
 986 1147 986 1147 1075 1091 c 128,-1,37
 1164 1035 1164 1035 1210 934 c 1,0,1
EndSplineSet
EndChar
StartChar: n
Encoding: 110 110 110
Width: 1458
Flags: W
AnchorPoint: "below" 681 0 basechar 0
AnchorPoint: "above" 681 1147 basechar 0
Fore
1298 682 m 2,0,-1
 1298 0 l 1,1,-1
 938 0 l 1,2,-1
 938 111 l 1,3,-1
 938 522 l 2,4,5
 938 667 938 667 931.5 722 c 128,-1,6
 925 777 925 777 909 803 c 0,7,8
 888 838 888 838 852 857.5 c 128,-1,9
 816 877 816 877 770 877 c 0,10,11
 658 877 658 877 594 790.5 c 128,-1,12
 530 704 530 704 530 551 c 2,13,-1
 530 0 l 1,14,-1
 172 0 l 1,15,-1
 172 1120 l 1,16,-1
 530 1120 l 1,17,-1
 530 956 l 1,18,19
 611 1054 611 1054 702 1100.5 c 128,-1,20
 793 1147 793 1147 903 1147 c 0,21,22
 1097 1147 1097 1147 1197.5 1028 c 128,-1,23
 1298 909 1298 909 1298 682 c 2,0,-1
EndSplineSet
EndChar
StartChar: o
Encoding: 111 111 111
Width: 1407
Flags: W
AnchorPoint: "below" 705 0 basechar 0
AnchorPoint: "above" 705 1147 basechar 0
Fore
705 891 m 0,0,1
 586 891 586 891 523.5 805.5 c 128,-1,2
 461 720 461 720 461 559 c 0,3,4
 461 398 461 398 523.5 312.5 c 128,-1,5
 586 227 586 227 705 227 c 0,6,7
 822 227 822 227 884 312.5 c 128,-1,8
 946 398 946 398 946 559 c 0,9,10
 946 720 946 720 884 805.5 c 128,-1,11
 822 891 822 891 705 891 c 0,0,1
705 1147 m 0,12,13
 994 1147 994 1147 1156.5 991 c 128,-1,14
 1319 835 1319 835 1319 559 c 0,15,16
 1319 283 1319 283 1156.5 127 c 128,-1,17
 994 -29 994 -29 705 -29 c 0,18,19
 415 -29 415 -29 251.5 127 c 128,-1,20
 88 283 88 283 88 559 c 0,21,22
 88 835 88 835 251.5 991 c 128,-1,23
 415 1147 415 1147 705 1147 c 0,12,13
EndSplineSet
EndChar
StartChar: p
Encoding: 112 112 112
Width: 1466
Flags: W
AnchorPoint: "below" 729 -430 basechar 0
AnchorPoint: "above" 729 1147 basechar 0
Fore
530 162 m 1,0,-1
 530 -426 l 1,1,-1
 172 -426 l 1,2,-1
 172 1120 l 1,3,-1
 530 1120 l 1,4,-1
 530 956 l 1,5,6
 604 1054 604 1054 694 1100.5 c 128,-1,7
 784 1147 784 1147 901 1147 c 0,8,9
 1108 1147 1108 1147 1241 982.5 c 128,-1,10
 1374 818 1374 818 1374 559 c 0,11,12
 1374 300 1374 300 1241 135.5 c 128,-1,13
 1108 -29 1108 -29 901 -29 c 0,14,15
 784 -29 784 -29 694 17.5 c 128,-1,16
 604 64 604 64 530 162 c 1,0,-1
768 887 m 0,17,18
 653 887 653 887 591.5 802.5 c 128,-1,19
 530 718 530 718 530 559 c 0,20,21
 530 400 530 400 591.5 315.5 c 128,-1,22
 653 231 653 231 768 231 c 0,23,24
 883 231 883 231 943.5 315 c 128,-1,25
 1004 399 1004 399 1004 559 c 0,26,27
 1004 719 1004 719 943.5 803 c 128,-1,28
 883 887 883 887 768 887 c 0,17,18
EndSplineSet
EndChar
StartChar: q
Encoding: 113 113 113
Width: 1466
Flags: W
AnchorPoint: "below" 729 -430 basechar 0
AnchorPoint: "above" 729 1147 basechar 0
Fore
698 887 m 0,0,1
 584 887 584 887 523.5 803 c 128,-1,2
 463 719 463 719 463 559 c 0,3,4
 463 399 463 399 523.5 315 c 128,-1,5
 584 231 584 231 698 231 c 0,6,7
 813 231 813 231 873.5 315 c 128,-1,8
 934 399 934 399 934 559 c 0,9,10
 934 719 934 719 873.5 803 c 128,-1,11
 813 887 813 887 698 887 c 0,0,1
934 162 m 1,12,13
 860 63 860 63 771 17 c 128,-1,14
 682 -29 682 -29 565 -29 c 0,15,16
 358 -29 358 -29 225 135.5 c 128,-1,17
 92 300 92 300 92 559 c 0,18,19
 92 818 92 818 225 981.5 c 128,-1,20
 358 1145 358 1145 565 1145 c 0,21,22
 682 1145 682 1145 771 1099 c 128,-1,23
 860 1053 860 1053 934 954 c 1,24,-1
 934 1120 l 1,25,-1
 1294 1120 l 1,26,-1
 1294 -426 l 1,27,-1
 934 -426 l 1,28,-1
 934 162 l 1,12,13
EndSplineSet
EndChar
StartChar: r
Encoding: 114 114 114
Width: 1010
Flags: W
AnchorPoint: "below" 350 0 basechar 0
AnchorPoint: "above" 597 1147 basechar 0
Fore
1004 815 m 1,0,1
 957 837 957 837 910.5 847.5 c 128,-1,2
 864 858 864 858 817 858 c 0,3,4
 679 858 679 858 604.5 769.5 c 128,-1,5
 530 681 530 681 530 516 c 2,6,-1
 530 0 l 1,7,-1
 172 0 l 1,8,-1
 172 1120 l 1,9,-1
 530 1120 l 1,10,-1
 530 936 l 1,11,12
 599 1046 599 1046 688.5 1096.5 c 128,-1,13
 778 1147 778 1147 903 1147 c 0,14,15
 921 1147 921 1147 942 1145.5 c 128,-1,16
 963 1144 963 1144 1003 1139 c 1,17,-1
 1004 815 l 1,0,1
EndSplineSet
EndChar
StartChar: s
Encoding: 115 115 115
Width: 1219
Flags: W
AnchorPoint: "below" 602 0 basechar 0
AnchorPoint: "above" 602 1147 basechar 0
Fore
1047 1085 m 1,0,-1
 1047 813 l 1,1,2
 932 861 932 861 825 885 c 128,-1,3
 718 909 718 909 623 909 c 0,4,5
 521 909 521 909 471.5 883.5 c 128,-1,6
 422 858 422 858 422 805 c 0,7,8
 422 762 422 762 459.5 739 c 128,-1,9
 497 716 497 716 594 705 c 1,10,-1
 657 696 l 2,11,12
 932 661 932 661 1027 581 c 128,-1,13
 1122 501 1122 501 1122 330 c 0,14,15
 1122 151 1122 151 990 61 c 128,-1,16
 858 -29 858 -29 596 -29 c 0,17,18
 485 -29 485 -29 366.5 -11.5 c 128,-1,19
 248 6 248 6 123 41 c 1,20,-1
 123 313 l 1,21,22
 230 261 230 261 342.5 235 c 128,-1,23
 455 209 455 209 571 209 c 0,24,25
 676 209 676 209 729 238 c 128,-1,26
 782 267 782 267 782 324 c 0,27,28
 782 372 782 372 745.5 395.5 c 128,-1,29
 709 419 709 419 600 432 c 2,30,-1
 537 440 l 2,31,32
 298 470 298 470 202 551 c 128,-1,33
 106 632 106 632 106 797 c 0,34,35
 106 975 106 975 228 1061 c 128,-1,36
 350 1147 350 1147 602 1147 c 0,37,38
 701 1147 701 1147 810 1132 c 128,-1,39
 919 1117 919 1117 1047 1085 c 1,0,-1
EndSplineSet
EndChar
StartChar: t
Encoding: 116 116 116
Width: 979
Flags: W
AnchorPoint: "below" 394 0 basechar 0
AnchorPoint: "above" 394 1520 basechar 0
Fore
563 1438 m 1,0,-1
 563 1120 l 1,1,-1
 932 1120 l 1,2,-1
 932 864 l 1,3,-1
 563 864 l 1,4,-1
 563 389 l 2,5,6
 563 311 563 311 594 283.5 c 128,-1,7
 625 256 625 256 717 256 c 2,8,-1
 901 256 l 1,9,-1
 901 0 l 1,10,-1
 594 0 l 2,11,12
 382 0 382 0 293.5 88.5 c 128,-1,13
 205 177 205 177 205 389 c 2,14,-1
 205 864 l 1,15,-1
 27 864 l 1,16,-1
 27 1120 l 1,17,-1
 205 1120 l 1,18,-1
 205 1438 l 1,19,-1
 563 1438 l 1,0,-1
EndSplineSet
EndChar
StartChar: u
Encoding: 117 117 117
Width: 1458
Flags: W
AnchorPoint: "below" 724 0 basechar 0
AnchorPoint: "above" 724 1147 basechar 0
Fore
160 436 m 2,0,-1
 160 1120 l 1,1,-1
 520 1120 l 1,2,-1
 520 1008 l 2,3,4
 520 917 520 917 519 779.5 c 128,-1,5
 518 642 518 642 518 596 c 0,6,7
 518 461 518 461 525 401.5 c 128,-1,8
 532 342 532 342 549 315 c 0,9,10
 571 280 571 280 606.5 261 c 128,-1,11
 642 242 642 242 688 242 c 0,12,13
 800 242 800 242 864 328 c 128,-1,14
 928 414 928 414 928 567 c 2,15,-1
 928 1120 l 1,16,-1
 1286 1120 l 1,17,-1
 1286 0 l 1,18,-1
 928 0 l 1,19,-1
 928 162 l 1,20,21
 847 64 847 64 756.5 17.5 c 128,-1,22
 666 -29 666 -29 557 -29 c 0,23,24
 363 -29 363 -29 261.5 90 c 128,-1,25
 160 209 160 209 160 436 c 2,0,-1
EndSplineSet
EndChar
StartChar: v
Encoding: 118 118 118
Width: 1335
Flags: W
AnchorPoint: "below" 668 0 basechar 0
AnchorPoint: "above" 668 1147 basechar 0
Fore
31 1120 m 1,0,-1
 389 1120 l 1,1,-1
 668 346 l 1,2,-1
 946 1120 l 1,3,-1
 1305 1120 l 1,4,-1
 864 0 l 1,5,-1
 471 0 l 1,6,-1
 31 1120 l 1,0,-1
EndSplineSet
EndChar
StartChar: w
Encoding: 119 119 119
Width: 1892
Flags: W
AnchorPoint: "below" 946 0 basechar 0
AnchorPoint: "above" 946 1147 basechar 0
Fore
72 1120 m 1,0,-1
 420 1120 l 1,1,-1
 608 348 l 1,2,-1
 797 1120 l 1,3,-1
 1096 1120 l 1,4,-1
 1284 356 l 1,5,-1
 1473 1120 l 1,6,-1
 1821 1120 l 1,7,-1
 1526 0 l 1,8,-1
 1135 0 l 1,9,-1
 946 770 l 1,10,-1
 758 0 l 1,11,-1
 367 0 l 1,12,-1
 72 1120 l 1,0,-1
EndSplineSet
EndChar
StartChar: x
Encoding: 120 120 120
Width: 1321
Flags: W
AnchorPoint: "below" 659 0 basechar 0
AnchorPoint: "above" 659 1147 basechar 0
Fore
455 573 m 1,0,-1
 51 1120 l 1,1,-1
 430 1120 l 1,2,-1
 659 788 l 1,3,-1
 891 1120 l 1,4,-1
 1270 1120 l 1,5,-1
 866 575 l 1,6,-1
 1290 0 l 1,7,-1
 911 0 l 1,8,-1
 659 354 l 1,9,-1
 410 0 l 1,10,-1
 31 0 l 1,11,-1
 455 573 l 1,0,-1
EndSplineSet
EndChar
StartChar: y
Encoding: 121 121 121
Width: 1335
Flags: W
AnchorPoint: "below" 661 -430 basechar 0
AnchorPoint: "above" 661 1147 basechar 0
Fore
25 1120 m 1,0,-1
 383 1120 l 1,1,-1
 684 360 l 1,2,-1
 940 1120 l 1,3,-1
 1298 1120 l 1,4,-1
 827 -106 l 1,5,6
 756 -293 756 -293 661.5 -367.5 c 128,-1,7
 567 -442 567 -442 412 -442 c 2,8,-1
 205 -442 l 1,9,-1
 205 -207 l 1,10,-1
 317 -207 l 2,11,12
 408 -207 408 -207 449.5 -178 c 128,-1,13
 491 -149 491 -149 514 -74 c 1,14,-1
 524 -43 l 1,15,-1
 25 1120 l 1,0,-1
EndSplineSet
EndChar
StartChar: z
Encoding: 122 122 122
Width: 1192
Flags: W
AnchorPoint: "below" 596 0 basechar 0
AnchorPoint: "above" 596 1147 basechar 0
Fore
117 1120 m 1,0,-1
 1094 1120 l 1,1,-1
 1094 870 l 1,2,-1
 504 256 l 1,3,-1
 1094 256 l 1,4,-1
 1094 0 l 1,5,-1
 92 0 l 1,6,-1
 92 250 l 1,7,-1
 682 864 l 1,8,-1
 117 864 l 1,9,-1
 117 1120 l 1,0,-1
EndSplineSet
EndChar
StartChar: braceleft
Encoding: 123 123 123
Width: 1458
Flags: W
Fore
1202 -109 m 1,0,-1
 1202 -334 l 1,1,-1
 985 -334 l 2,2,3
 767 -334 767 -334 667 -246 c 128,-1,4
 567 -158 567 -158 567 35 c 2,5,-1
 567 227 l 2,6,7
 567 377 567 377 513 435.5 c 128,-1,8
 459 494 459 494 317 494 c 2,9,-1
 256 494 l 1,10,-1
 256 717 l 1,11,-1
 317 717 l 2,12,13
 459 717 459 717 513 775 c 128,-1,14
 567 833 567 833 567 983 c 2,15,-1
 567 1188 l 2,16,17
 567 1381 567 1381 667 1468.5 c 128,-1,18
 767 1556 767 1556 985 1556 c 2,19,-1
 1202 1556 l 1,20,-1
 1202 1331 l 1,21,-1
 1133 1331 l 2,22,23
 992 1331 992 1331 949.5 1287.5 c 128,-1,24
 907 1244 907 1244 907 1102 c 2,25,-1
 907 936 l 2,26,27
 907 779 907 779 862 708 c 128,-1,28
 817 637 817 637 707 612 c 1,29,30
 818 585 818 585 862.5 514 c 128,-1,31
 907 443 907 443 907 287 c 2,32,-1
 907 121 l 2,33,34
 907 -22 907 -22 949.5 -65.5 c 128,-1,35
 992 -109 992 -109 1133 -109 c 2,36,-1
 1202 -109 l 1,0,-1
EndSplineSet
EndChar
StartChar: bar
Encoding: 124 124 124
Width: 748
Flags: W
Fore
487 1565 m 1,0,-1
 487 -483 l 1,1,-1
 260 -483 l 1,2,-1
 260 1565 l 1,3,-1
 487 1565 l 1,0,-1
EndSplineSet
EndChar
StartChar: braceright
Encoding: 125 125 125
Width: 1458
Flags: W
Fore
256 -109 m 1,0,-1
 326 -109 l 2,1,2
 466 -109 466 -109 508.5 -65.5 c 128,-1,3
 551 -22 551 -22 551 121 c 2,4,-1
 551 287 l 2,5,6
 551 443 551 443 596 514 c 128,-1,7
 641 585 641 585 752 612 c 1,8,9
 641 637 641 637 596 708 c 128,-1,10
 551 779 551 779 551 936 c 2,11,-1
 551 1102 l 2,12,13
 551 1244 551 1244 508.5 1287.5 c 128,-1,14
 466 1331 466 1331 326 1331 c 2,15,-1
 256 1331 l 1,16,-1
 256 1556 l 1,17,-1
 473 1556 l 2,18,19
 691 1556 691 1556 791 1468.5 c 128,-1,20
 891 1381 891 1381 891 1188 c 2,21,-1
 891 983 l 2,22,23
 891 833 891 833 945 775 c 128,-1,24
 999 717 999 717 1141 717 c 2,25,-1
 1202 717 l 1,26,-1
 1202 494 l 1,27,-1
 1141 494 l 2,28,29
 999 494 999 494 945 435.5 c 128,-1,30
 891 377 891 377 891 227 c 2,31,-1
 891 35 l 2,32,33
 891 -158 891 -158 791 -246 c 128,-1,34
 691 -334 691 -334 473 -334 c 2,35,-1
 256 -334 l 1,36,-1
 256 -109 l 1,0,-1
EndSplineSet
EndChar
StartChar: asciitilde
Encoding: 126 126 126
Width: 1716
Flags: W
Fore
1499 850 m 1,0,-1
 1499 606 l 1,1,2
 1393 526 1393 526 1303.5 491.5 c 128,-1,3
 1214 457 1214 457 1118 457 c 0,4,5
 1011 457 1011 457 868 515 c 0,6,7
 854 521 854 521 846 524 c 0,8,9
 839 527 839 527 824 533 c 0,10,11
 669 594 669 594 575 594 c 0,12,13
 487 594 487 594 401 555.5 c 128,-1,14
 315 517 315 517 217 434 c 1,15,-1
 217 678 l 1,16,17
 324 758 324 758 413 792.5 c 128,-1,18
 502 827 502 827 598 827 c 0,19,20
 705 827 705 827 848 769 c 0,21,22
 863 763 863 763 870 760 c 0,23,24
 877 757 877 757 892 751 c 0,25,26
 1047 690 1047 690 1141 690 c 0,27,28
 1227 690 1227 690 1311.5 727.5 c 128,-1,29
 1396 765 1396 765 1499 850 c 1,0,-1
EndSplineSet
EndChar
StartChar: exclamdown
Encoding: 161 161 161
Width: 934
Flags: W
Fore
287 0 m 1,0,-1
 287 573 l 1,1,-1
 338 991 l 1,2,-1
 596 991 l 1,3,-1
 647 573 l 1,4,-1
 647 0 l 1,5,-1
 287 0 l 1,0,-1
287 1137 m 1,6,-1
 287 1493 l 1,7,-1
 647 1493 l 1,8,-1
 647 1137 l 1,9,-1
 287 1137 l 1,6,-1
EndSplineSet
EndChar
StartChar: cent
Encoding: 162 162 162
Width: 1425
Flags: W
Fore
702 858 m 1,0,1
 624 814 624 814 585.5 740.5 c 128,-1,2
 547 667 547 667 547 559 c 0,3,4
 547 450 547 450 585.5 376 c 128,-1,5
 624 302 624 302 702 260 c 1,6,-1
 702 858 l 1,0,1
1161 1085 m 1,7,-1
 1161 793 l 1,8,9
 1087 841 1087 841 1015.5 866 c 128,-1,10
 944 891 944 891 879 891 c 2,11,-1
 864 891 l 1,12,-1
 864 228 l 1,13,14
 953 229 953 229 1028.5 254 c 128,-1,15
 1104 279 1104 279 1161 326 c 1,16,-1
 1161 33 l 1,17,18
 1078 3 1078 3 1005 -13 c 128,-1,19
 932 -29 932 -29 874 -29 c 2,20,-1
 864 -29 l 1,21,-1
 864 -313 l 1,22,-1
 702 -313 l 1,23,-1
 702 -25 l 1,24,25
 440 15 440 15 307 166 c 128,-1,26
 174 317 174 317 174 575 c 0,27,28
 174 819 174 819 309 964.5 c 128,-1,29
 444 1110 444 1110 702 1145 c 1,30,-1
 702 1432 l 1,31,-1
 864 1432 l 1,32,-1
 865 1145 l 1,33,34
 936 1142 936 1142 1009.5 1127.5 c 128,-1,35
 1083 1113 1083 1113 1161 1085 c 1,7,-1
EndSplineSet
EndChar
StartChar: sterling
Encoding: 163 163 163
Width: 1425
Flags: W
Fore
1243 1466 m 1,0,-1
 1243 1180 l 1,1,2
 1173 1219 1173 1219 1099 1238 c 128,-1,3
 1025 1257 1025 1257 948 1257 c 0,4,5
 830 1257 830 1257 773.5 1194.5 c 128,-1,6
 717 1132 717 1132 717 1001 c 2,7,-1
 717 831 l 1,8,-1
 1090 831 l 1,9,-1
 1090 592 l 1,10,-1
 717 592 l 1,11,-1
 717 266 l 1,12,-1
 1255 266 l 1,13,-1
 1255 0 l 1,14,-1
 125 0 l 1,15,-1
 125 266 l 1,16,-1
 352 266 l 1,17,-1
 352 592 l 1,18,-1
 158 592 l 1,19,-1
 158 831 l 1,20,-1
 352 831 l 1,21,-1
 352 1001 l 2,22,23
 352 1272 352 1272 479 1396 c 128,-1,24
 606 1520 606 1520 881 1520 c 0,25,26
 973 1520 973 1520 1063.5 1506.5 c 128,-1,27
 1154 1493 1154 1493 1243 1466 c 1,0,-1
EndSplineSet
EndChar
StartChar: currency
Encoding: 164 164 164
Width: 1303
Flags: W
Fore
434 268 m 1,0,-1
 227 61 l 1,1,-1
 74 215 l 1,2,-1
 281 422 l 1,3,4
 253 471 253 471 239 524.5 c 128,-1,5
 225 578 225 578 225 641 c 0,6,7
 225 704 225 704 240 758 c 128,-1,8
 255 812 255 812 285 858 c 1,9,-1
 76 1063 l 1,10,-1
 229 1217 l 1,11,-1
 436 1010 l 1,12,13
 484 1040 484 1040 538 1054.5 c 128,-1,14
 592 1069 592 1069 653 1069 c 0,15,16
 707 1069 707 1069 761 1055.5 c 128,-1,17
 815 1042 815 1042 872 1014 c 1,18,-1
 1079 1221 l 1,19,-1
 1231 1067 l 1,20,-1
 1024 860 l 1,21,22
 1053 805 1053 805 1067 750 c 128,-1,23
 1081 695 1081 695 1081 641 c 0,24,25
 1081 578 1081 578 1066.5 525.5 c 128,-1,26
 1052 473 1052 473 1022 426 c 1,27,-1
 1229 219 l 1,28,-1
 1075 66 l 1,29,-1
 868 272 l 1,30,31
 822 242 822 242 769 227.5 c 128,-1,32
 716 213 716 213 653 213 c 0,33,34
 595 213 595 213 541 226.5 c 128,-1,35
 487 240 487 240 434 268 c 1,0,-1
653 422 m 0,36,37
 744 422 744 422 808 485.5 c 128,-1,38
 872 549 872 549 872 641 c 0,39,40
 872 733 872 733 808.5 796.5 c 128,-1,41
 745 860 745 860 653 860 c 0,42,43
 562 860 562 860 498 796.5 c 128,-1,44
 434 733 434 733 434 641 c 0,45,46
 434 548 434 548 497 485 c 128,-1,47
 560 422 560 422 653 422 c 0,36,37
EndSplineSet
EndChar
StartChar: yen
Encoding: 165 165 165
Width: 1425
Flags: W
Fore
1358 416 m 1,0,-1
 903 416 l 1,1,-1
 903 0 l 1,2,-1
 522 0 l 1,3,-1
 522 416 l 1,4,-1
 68 416 l 1,5,-1
 68 610 l 1,6,-1
 522 610 l 1,7,-1
 522 676 l 1,8,-1
 473 762 l 1,9,-1
 68 762 l 1,10,-1
 68 954 l 1,11,-1
 360 954 l 1,12,-1
 25 1493 l 1,13,-1
 424 1493 l 1,14,-1
 713 1032 l 1,15,-1
 1001 1493 l 1,16,-1
 1401 1493 l 1,17,-1
 1065 954 l 1,18,-1
 1358 954 l 1,19,-1
 1358 762 l 1,20,-1
 952 762 l 1,21,-1
 903 676 l 1,22,-1
 903 610 l 1,23,-1
 1358 610 l 1,24,-1
 1358 416 l 1,0,-1
EndSplineSet
EndChar
StartChar: brokenbar
Encoding: 166 166 166
Width: 748
Flags: W
Fore
487 1432 m 1,0,-1
 487 674 l 1,1,-1
 260 674 l 1,2,-1
 260 1432 l 1,3,-1
 487 1432 l 1,0,-1
487 408 m 1,4,-1
 487 -350 l 1,5,-1
 260 -350 l 1,6,-1
 260 408 l 1,7,-1
 487 408 l 1,4,-1
EndSplineSet
EndChar
StartChar: section
Encoding: 167 167 167
Width: 1024
Flags: W
Fore
885 1462 m 1,0,-1
 885 1235 l 1,1,2
 786 1274 786 1274 707 1293.5 c 128,-1,3
 628 1313 628 1313 571 1313 c 0,4,5
 496 1313 496 1313 458 1288.5 c 128,-1,6
 420 1264 420 1264 420 1217 c 0,7,8
 420 1150 420 1150 608 1071 c 0,9,10
 634 1060 634 1060 647 1055 c 0,11,12
 857 966 857 966 936.5 879.5 c 128,-1,13
 1016 793 1016 793 1016 668 c 0,14,15
 1016 551 1016 551 959.5 471.5 c 128,-1,16
 903 392 903 392 786 344 c 1,17,18
 863 303 863 303 900.5 246.5 c 128,-1,19
 938 190 938 190 938 117 c 0,20,21
 938 -28 938 -28 817 -111.5 c 128,-1,22
 696 -195 696 -195 483 -195 c 0,23,24
 398 -195 398 -195 307.5 -180.5 c 128,-1,25
 217 -166 217 -166 115 -137 c 1,26,-1
 115 100 l 1,27,28
 230 59 230 59 321 37.5 c 128,-1,29
 412 16 412 16 469 16 c 0,30,31
 534 16 534 16 573 41 c 128,-1,32
 612 66 612 66 612 106 c 0,33,34
 612 176 612 176 432 250 c 0,35,36
 396 264 396 264 377 272 c 0,37,38
 174 359 174 359 94 448.5 c 128,-1,39
 14 538 14 538 14 668 c 0,40,41
 14 772 14 772 69.5 849 c 128,-1,42
 125 926 125 926 238 977 c 1,43,44
 163 1028 163 1028 130.5 1083.5 c 128,-1,45
 98 1139 98 1139 98 1214 c 0,46,47
 98 1358 98 1358 212.5 1439 c 128,-1,48
 327 1520 327 1520 528 1520 c 0,49,50
 612 1520 612 1520 702 1505.5 c 128,-1,51
 792 1491 792 1491 885 1462 c 1,0,-1
434 856 m 1,52,53
 366 828 366 828 332.5 790 c 128,-1,54
 299 752 299 752 299 702 c 0,55,56
 299 635 299 635 360.5 586 c 128,-1,57
 422 537 422 537 604 471 c 1,58,59
 669 494 669 494 704 533.5 c 128,-1,60
 739 573 739 573 739 625 c 0,61,62
 739 692 739 692 670 745 c 128,-1,63
 601 798 601 798 434 856 c 1,52,53
EndSplineSet
EndChar
StartChar: dieresis
Encoding: 168 168 168
Width: 1024
Flags: W
Fore
197 1585 m 1,0,-1
 432 1585 l 1,1,-1
 432 1339 l 1,2,-1
 197 1339 l 1,3,-1
 197 1585 l 1,0,-1
592 1585 m 1,4,-1
 827 1585 l 1,5,-1
 827 1339 l 1,6,-1
 592 1339 l 1,7,-1
 592 1585 l 1,4,-1
EndSplineSet
Ligature: 0 1 'liga' space uni0308
EndChar
StartChar: copyright
Encoding: 169 169 169
Width: 2048
Flags: W
Fore
1323 1126 m 1,0,-1
 1323 911 l 1,1,2
 1266 948 1266 948 1210.5 965.5 c 128,-1,3
 1155 983 1155 983 1098 983 c 0,4,5
 985 983 985 983 921.5 919 c 128,-1,6
 858 855 858 855 858 741 c 0,7,8
 858 626 858 626 921 563 c 128,-1,9
 984 500 984 500 1098 500 c 0,10,11
 1162 500 1162 500 1219.5 518 c 128,-1,12
 1277 536 1277 536 1323 571 c 1,13,-1
 1323 358 l 1,14,15
 1258 336 1258 336 1192.5 324.5 c 128,-1,16
 1127 313 1127 313 1065 313 c 0,17,18
 854 313 854 313 727 430 c 128,-1,19
 600 547 600 547 600 741 c 0,20,21
 600 936 600 936 727 1052.5 c 128,-1,22
 854 1169 854 1169 1065 1169 c 0,23,24
 1134 1169 1134 1169 1198 1158.5 c 128,-1,25
 1262 1148 1262 1148 1323 1126 c 1,0,-1
1024 1331 m 0,26,27
 903 1331 903 1331 799 1287.5 c 128,-1,28
 695 1244 695 1244 608 1157 c 0,29,30
 521 1070 521 1070 477.5 966.5 c 128,-1,31
 434 863 434 863 434 741 c 0,32,33
 434 620 434 620 477.5 516.5 c 128,-1,34
 521 413 521 413 608 326 c 0,35,36
 694 240 694 240 798.5 197 c 128,-1,37
 903 154 903 154 1024 154 c 0,38,39
 1147 154 1147 154 1250 196.5 c 128,-1,40
 1353 239 1353 239 1440 326 c 0,41,42
 1527 413 1527 413 1570.5 516.5 c 128,-1,43
 1614 620 1614 620 1614 741 c 0,44,45
 1614 863 1614 863 1570.5 966.5 c 128,-1,46
 1527 1070 1527 1070 1440 1157 c 0,47,48
 1352 1245 1352 1245 1248.5 1288 c 128,-1,49
 1145 1331 1145 1331 1024 1331 c 0,26,27
1024 1485 m 0,50,51
 1176 1485 1176 1485 1307.5 1430 c 128,-1,52
 1439 1375 1439 1375 1548 1266 c 0,53,54
 1657 1157 1657 1157 1711 1026 c 128,-1,55
 1765 895 1765 895 1765 741 c 0,56,57
 1765 589 1765 589 1711 458.5 c 128,-1,58
 1657 328 1657 328 1548 219 c 0,59,60
 1439 110 1439 110 1307.5 55 c 128,-1,61
 1176 0 1176 0 1024 0 c 0,62,63
 872 0 872 0 740.5 55 c 128,-1,64
 609 110 609 110 500 219 c 0,65,66
 391 328 391 328 337 458.5 c 128,-1,67
 283 589 283 589 283 741 c 0,68,69
 283 895 283 895 337 1026 c 128,-1,70
 391 1157 391 1157 500 1266 c 0,71,72
 609 1375 609 1375 740.5 1430 c 128,-1,73
 872 1485 872 1485 1024 1485 c 0,50,51
EndSplineSet
EndChar
StartChar: ordfeminine
Encoding: 170 170 170
Width: 1155
Flags: W
Fore
176 573 m 1,0,-1
 989 573 l 1,1,-1
 989 373 l 1,2,-1
 176 373 l 1,3,-1
 176 573 l 1,0,-1
643 1081 m 2,4,5
 510 1081 510 1081 458 1055 c 128,-1,6
 406 1029 406 1029 406 967 c 0,7,8
 406 916 406 916 439 887 c 128,-1,9
 472 858 472 858 530 858 c 0,10,11
 619 858 619 858 676 915 c 128,-1,12
 733 972 733 972 733 1059 c 2,13,-1
 733 1081 l 1,14,-1
 643 1081 l 2,4,5
1001 1165 m 2,15,-1
 1001 717 l 1,16,-1
 756 717 l 1,17,-1
 756 844 l 1,18,19
 701 768 701 768 631 732 c 128,-1,20
 561 696 561 696 467 696 c 0,21,22
 322 696 322 696 240 763 c 128,-1,23
 158 830 158 830 158 946 c 0,24,25
 158 1087 158 1087 263 1153 c 128,-1,26
 368 1219 368 1219 594 1219 c 2,27,-1
 731 1219 l 1,28,-1
 731 1239 l 2,29,30
 731 1295 731 1295 686.5 1324.5 c 128,-1,31
 642 1354 642 1354 557 1354 c 0,32,33
 470 1354 470 1354 387 1336.5 c 128,-1,34
 304 1319 304 1319 225 1284 c 1,35,-1
 225 1464 l 1,36,37
 317 1492 317 1492 401.5 1506 c 128,-1,38
 486 1520 486 1520 561 1520 c 0,39,40
 785 1520 785 1520 893 1432.5 c 128,-1,41
 1001 1345 1001 1345 1001 1165 c 2,15,-1
EndSplineSet
EndChar
StartChar: guillemotleft
Encoding: 171 171 171
Width: 1323
Flags: W
Fore
651 1063 m 1,0,-1
 651 821 l 1,1,-1
 358 600 l 1,2,-1
 651 379 l 1,3,-1
 651 137 l 1,4,-1
 158 506 l 1,5,-1
 158 692 l 1,6,-1
 651 1063 l 1,0,-1
1130 1063 m 1,7,-1
 1130 821 l 1,8,-1
 838 600 l 1,9,-1
 1130 379 l 1,10,-1
 1130 137 l 1,11,-1
 637 506 l 1,12,-1
 637 692 l 1,13,-1
 1130 1063 l 1,7,-1
EndSplineSet
EndChar
StartChar: logicalnot
Encoding: 172 172 172
Width: 1716
Flags: W
Fore
217 909 m 1,0,-1
 1499 909 l 1,1,-1
 1499 287 l 1,2,-1
 1264 287 l 1,3,-1
 1264 672 l 1,4,-1
 217 672 l 1,5,-1
 217 909 l 1,0,-1
EndSplineSet
EndChar
StartChar: sfthyphen
Encoding: 173 173 173
Width: 850
Flags: W
Fore
111 735 m 1,0,-1
 739 735 l 1,1,-1
 739 444 l 1,2,-1
 111 444 l 1,3,-1
 111 735 l 1,0,-1
EndSplineSet
EndChar
StartChar: registered
Encoding: 174 174 174
Width: 2048
Flags: W
Fore
1024 1331 m 0,0,1
 903 1331 903 1331 799 1287.5 c 128,-1,2
 695 1244 695 1244 608 1157 c 0,3,4
 521 1070 521 1070 477.5 966.5 c 128,-1,5
 434 863 434 863 434 741 c 0,6,7
 434 620 434 620 477.5 516.5 c 128,-1,8
 521 413 521 413 608 326 c 0,9,10
 694 240 694 240 798.5 197 c 128,-1,11
 903 154 903 154 1024 154 c 0,12,13
 1147 154 1147 154 1250 196.5 c 128,-1,14
 1353 239 1353 239 1440 326 c 0,15,16
 1527 413 1527 413 1570.5 516.5 c 128,-1,17
 1614 620 1614 620 1614 741 c 0,18,19
 1614 863 1614 863 1570.5 966.5 c 128,-1,20
 1527 1070 1527 1070 1440 1157 c 0,21,22
 1352 1245 1352 1245 1248.5 1288 c 128,-1,23
 1145 1331 1145 1331 1024 1331 c 0,0,1
967 1036 m 2,24,-1
 932 1036 l 1,25,-1
 932 829 l 1,26,-1
 967 829 l 2,27,28
 1045 829 1045 829 1084.5 855.5 c 128,-1,29
 1124 882 1124 882 1124 934 c 0,30,31
 1124 986 1124 986 1085.5 1011 c 128,-1,32
 1047 1036 1047 1036 967 1036 c 2,24,-1
1004 1174 m 2,33,34
 1180 1174 1180 1174 1267 1114.5 c 128,-1,35
 1354 1055 1354 1055 1354 934 c 0,36,37
 1354 848 1354 848 1301.5 792 c 128,-1,38
 1249 736 1249 736 1153 719 c 1,39,40
 1194 697 1194 697 1229.5 657 c 128,-1,41
 1265 617 1265 617 1294 559 c 2,42,-1
 1405 338 l 1,43,-1
 1176 338 l 1,44,-1
 1069 551 l 1,45,46
 1031 629 1031 629 1002 661.5 c 128,-1,47
 973 694 973 694 944 694 c 2,48,-1
 932 694 l 1,49,-1
 932 338 l 1,50,-1
 719 338 l 1,51,-1
 719 1174 l 1,52,-1
 1004 1174 l 2,33,34
1024 1485 m 0,53,54
 1176 1485 1176 1485 1307.5 1430 c 128,-1,55
 1439 1375 1439 1375 1548 1266 c 0,56,57
 1657 1157 1657 1157 1711 1026 c 128,-1,58
 1765 895 1765 895 1765 741 c 0,59,60
 1765 589 1765 589 1711 458.5 c 128,-1,61
 1657 328 1657 328 1548 219 c 0,62,63
 1439 110 1439 110 1307.5 55 c 128,-1,64
 1176 0 1176 0 1024 0 c 0,65,66
 872 0 872 0 740.5 55 c 128,-1,67
 609 110 609 110 500 219 c 0,68,69
 391 328 391 328 337 458.5 c 128,-1,70
 283 589 283 589 283 741 c 0,71,72
 283 895 283 895 337 1026 c 128,-1,73
 391 1157 391 1157 500 1266 c 0,74,75
 609 1375 609 1375 740.5 1430 c 128,-1,76
 872 1485 872 1485 1024 1485 c 0,53,54
EndSplineSet
EndChar
StartChar: macron
Encoding: 175 175 175
Width: 1024
Flags: W
Fore
197 1556 m 1,0,-1
 827 1556 l 1,1,-1
 827 1368 l 1,2,-1
 197 1368 l 1,3,-1
 197 1556 l 1,0,-1
EndSplineSet
LCarets: 0 65535 '    ' 1 0 
Ligature: 0 1 'liga' space uni0304
EndChar
StartChar: degree
Encoding: 176 176 176
Width: 1024
Flags: W
Fore
512 1372 m 0,0,1
 440 1372 440 1372 390 1322 c 128,-1,2
 340 1272 340 1272 340 1200 c 0,3,4
 340 1128 340 1128 389.5 1079 c 128,-1,5
 439 1030 439 1030 512 1030 c 0,6,7
 584 1030 584 1030 634 1079.5 c 128,-1,8
 684 1129 684 1129 684 1200 c 0,9,10
 684 1272 684 1272 633.5 1322 c 128,-1,11
 583 1372 583 1372 512 1372 c 0,0,1
512 1534 m 0,12,13
 578 1534 578 1534 639 1508.5 c 128,-1,14
 700 1483 700 1483 748 1436 c 1,15,16
 795 1388 795 1388 819.5 1328 c 128,-1,17
 844 1268 844 1268 844 1200 c 0,18,19
 844 1133 844 1133 819.5 1072.5 c 128,-1,20
 795 1012 795 1012 750 967 c 0,21,22
 702 919 702 919 640 893.5 c 128,-1,23
 578 868 578 868 510 868 c 0,24,25
 369 868 369 868 273.5 963.5 c 128,-1,26
 178 1059 178 1059 178 1200 c 0,27,28
 178 1341 178 1341 274.5 1437.5 c 128,-1,29
 371 1534 371 1534 512 1534 c 0,12,13
EndSplineSet
EndChar
StartChar: plusminus
Encoding: 177 177 177
Width: 1716
Flags: W
Fore
977 1284 m 1,0,-1
 977 930 l 1,1,-1
 1499 930 l 1,2,-1
 1499 694 l 1,3,-1
 977 694 l 1,4,-1
 977 340 l 1,5,-1
 739 340 l 1,6,-1
 739 694 l 1,7,-1
 217 694 l 1,8,-1
 217 930 l 1,9,-1
 739 930 l 1,10,-1
 739 1284 l 1,11,-1
 977 1284 l 1,0,-1
217 238 m 1,12,-1
 1499 238 l 1,13,-1
 1499 0 l 1,14,-1
 217 0 l 1,15,-1
 217 238 l 1,12,-1
EndSplineSet
EndChar
StartChar: twosuperior
Encoding: 178 178 178
Width: 897
Flags: W
Fore
412 836 m 1,0,-1
 782 836 l 1,1,-1
 782 668 l 1,2,-1
 109 668 l 1,3,-1
 109 821 l 1,4,-1
 422 1087 l 2,5,6
 483 1140 483 1140 509 1180 c 128,-1,7
 535 1220 535 1220 535 1260 c 0,8,9
 535 1310 535 1310 498.5 1341 c 128,-1,10
 462 1372 462 1372 403 1372 c 0,11,12
 341 1372 341 1372 270 1349.5 c 128,-1,13
 199 1327 199 1327 115 1280 c 1,14,-1
 115 1466 l 1,15,16
 202 1493 202 1493 283.5 1506.5 c 128,-1,17
 365 1520 365 1520 440 1520 c 0,18,19
 598 1520 598 1520 688 1455.5 c 128,-1,20
 778 1391 778 1391 778 1280 c 0,21,22
 778 1208 778 1208 742.5 1147.5 c 128,-1,23
 707 1087 707 1087 606 1001 c 2,24,-1
 412 836 l 1,0,-1
EndSplineSet
EndChar
StartChar: threesuperior
Encoding: 179 179 179
Width: 897
Flags: W
Fore
592 1120 m 1,0,1
 684 1102 684 1102 735 1047 c 128,-1,2
 786 992 786 992 786 911 c 0,3,4
 786 782 786 782 687 717.5 c 128,-1,5
 588 653 588 653 387 653 c 0,6,7
 306 653 306 653 232 664.5 c 128,-1,8
 158 676 158 676 90 698 c 1,9,-1
 90 872 l 1,10,11
 156 836 156 836 220 817.5 c 128,-1,12
 284 799 284 799 344 799 c 0,13,14
 439 799 439 799 491 831 c 128,-1,15
 543 863 543 863 543 922 c 0,16,17
 543 986 543 986 489.5 1016.5 c 128,-1,18
 436 1047 436 1047 322 1047 c 2,19,-1
 248 1047 l 1,20,-1
 248 1184 l 1,21,-1
 332 1184 l 2,22,23
 430 1184 430 1184 475 1207.5 c 128,-1,24
 520 1231 520 1231 520 1282 c 0,25,26
 520 1327 520 1327 481 1349.5 c 128,-1,27
 442 1372 442 1372 362 1372 c 0,28,29
 310 1372 310 1372 248.5 1359 c 128,-1,30
 187 1346 187 1346 117 1319 c 1,31,-1
 117 1485 l 1,32,33
 182 1502 182 1502 257.5 1511 c 128,-1,34
 333 1520 333 1520 420 1520 c 0,35,36
 587 1520 587 1520 675.5 1464 c 128,-1,37
 764 1408 764 1408 764 1303 c 0,38,39
 764 1234 764 1234 719 1186 c 128,-1,40
 674 1138 674 1138 592 1120 c 1,0,1
EndSplineSet
EndChar
StartChar: acute
Encoding: 180 180 180
Width: 1024
Flags: W
Fore
647 1638 m 1,0,-1
 930 1638 l 1,1,-1
 561 1262 l 1,2,-1
 365 1262 l 1,3,-1
 647 1638 l 1,0,-1
EndSplineSet
LCarets: 0 65535 '    ' 1 0 
Ligature: 0 1 'liga' space acutecomb
EndChar
StartChar: mu
Encoding: 181 181 181
Width: 1507
Flags: W
Fore
174 -428 m 1,0,-1
 174 1120 l 1,1,-1
 535 1120 l 1,2,-1
 535 469 l 2,3,4
 535 353 535 353 585 296.5 c 128,-1,5
 635 240 635 240 737 240 c 0,6,7
 840 240 840 240 890 296.5 c 128,-1,8
 940 353 940 353 940 469 c 2,9,-1
 940 1120 l 1,10,-1
 1300 1120 l 1,11,-1
 1300 371 l 2,12,13
 1300 300 1300 300 1316.5 272 c 128,-1,14
 1333 244 1333 244 1372 244 c 0,15,16
 1390 244 1390 244 1406.5 249 c 128,-1,17
 1423 254 1423 254 1442 266 c 1,18,-1
 1442 16 l 1,19,20
 1389 -7 1389 -7 1342.5 -18 c 128,-1,21
 1296 -29 1296 -29 1251 -29 c 0,22,23
 1162 -29 1162 -29 1105.5 8.5 c 128,-1,24
 1049 46 1049 46 1014 129 c 1,25,26
 967 50 967 50 899.5 10.5 c 128,-1,27
 832 -29 832 -29 743 -29 c 0,28,29
 669 -29 669 -29 617 -5.5 c 128,-1,30
 565 18 565 18 535 66 c 1,31,-1
 535 -428 l 1,32,-1
 174 -428 l 1,0,-1
EndSplineSet
EndChar
StartChar: paragraph
Encoding: 182 182 182
Width: 1303
Flags: W
Fore
604 1493 m 2,0,-1
 1124 1493 l 1,1,-1
 1124 -197 l 1,2,-1
 934 -197 l 1,3,-1
 934 1346 l 1,4,-1
 745 1346 l 1,5,-1
 745 -197 l 1,6,-1
 555 -197 l 1,7,-1
 555 649 l 1,8,9
 351 674 351 674 240 783.5 c 128,-1,10
 129 893 129 893 129 1071 c 0,11,12
 129 1261 129 1261 259 1377 c 128,-1,13
 389 1493 389 1493 604 1493 c 2,0,-1
EndSplineSet
EndChar
StartChar: periodcentered
Encoding: 183 183 183
Width: 778
Flags: W
Fore
209 905 m 1,0,-1
 569 905 l 1,1,-1
 569 518 l 1,2,-1
 209 518 l 1,3,-1
 209 905 l 1,0,-1
EndSplineSet
EndChar
StartChar: cedilla
Encoding: 184 184 184
Width: 1024
Flags: W
Fore
602 0 m 1,0,1
 660 -62 660 -62 687.5 -115 c 128,-1,2
 715 -168 715 -168 715 -215 c 0,3,4
 715 -310 715 -310 653.5 -355.5 c 128,-1,5
 592 -401 592 -401 465 -401 c 0,6,7
 417 -401 417 -401 366 -394.5 c 128,-1,8
 315 -388 315 -388 263 -375 c 1,9,-1
 262 -223 l 1,10,11
 312 -239 312 -239 353.5 -246.5 c 128,-1,12
 395 -254 395 -254 428 -254 c 0,13,14
 486 -254 486 -254 518.5 -231 c 128,-1,15
 551 -208 551 -208 551 -168 c 0,16,17
 551 -142 551 -142 529.5 -101 c 128,-1,18
 508 -60 508 -60 463 0 c 1,19,-1
 602 0 l 1,0,1
EndSplineSet
LCarets: 0 65535 '    ' 1 0 
Ligature: 0 1 'liga' space uni0327
EndChar
StartChar: onesuperior
Encoding: 185 185 185
Width: 897
Flags: W
Fore
141 825 m 1,0,-1
 348 825 l 1,1,-1
 348 1346 l 1,2,-1
 123 1294 l 1,3,-1
 123 1454 l 1,4,-1
 352 1503 l 1,5,-1
 578 1503 l 1,6,-1
 578 825 l 1,7,-1
 782 825 l 1,8,-1
 782 668 l 1,9,-1
 141 668 l 1,10,-1
 141 825 l 1,0,-1
EndSplineSet
EndChar
StartChar: ordmasculine
Encoding: 186 186 186
Width: 1155
Flags: W
Fore
578 1520 m 0,0,1
 791 1520 791 1520 914.5 1409 c 128,-1,2
 1038 1298 1038 1298 1038 1108 c 0,3,4
 1038 918 1038 918 915 808 c 128,-1,5
 792 698 792 698 578 698 c 0,6,7
 364 698 364 698 240.5 808 c 128,-1,8
 117 918 117 918 117 1108 c 0,9,10
 117 1298 117 1298 240.5 1409 c 128,-1,11
 364 1520 364 1520 578 1520 c 0,0,1
166 573 m 1,12,-1
 989 573 l 1,13,-1
 989 373 l 1,14,-1
 166 373 l 1,15,-1
 166 573 l 1,12,-1
578 1350 m 0,16,17
 494 1350 494 1350 448.5 1287 c 128,-1,18
 403 1224 403 1224 403 1108 c 0,19,20
 403 992 403 992 448.5 930 c 128,-1,21
 494 868 494 868 578 868 c 0,22,23
 661 868 661 868 706.5 930 c 128,-1,24
 752 992 752 992 752 1108 c 0,25,26
 752 1224 752 1224 706.5 1287 c 128,-1,27
 661 1350 661 1350 578 1350 c 0,16,17
EndSplineSet
EndChar
StartChar: guillemotright
Encoding: 187 187 187
Width: 1323
Flags: W
Fore
672 1063 m 1,0,-1
 1165 692 l 1,1,-1
 1165 506 l 1,2,-1
 672 137 l 1,3,-1
 672 379 l 1,4,-1
 965 600 l 1,5,-1
 672 821 l 1,6,-1
 672 1063 l 1,0,-1
193 1063 m 1,7,-1
 684 692 l 1,8,-1
 684 506 l 1,9,-1
 193 137 l 1,10,-1
 193 379 l 1,11,-1
 485 600 l 1,12,-1
 193 821 l 1,13,-1
 193 1063 l 1,7,-1
EndSplineSet
EndChar
StartChar: questiondown
Encoding: 191 191 191
Width: 1188
Flags: W
Fore
487 987 m 1,0,-1
 848 987 l 1,1,-1
 848 938 l 2,2,3
 848 857 848 857 815.5 794 c 128,-1,4
 783 731 783 731 674 631 c 2,5,-1
 610 573 l 2,6,7
 554 522 554 522 528 476 c 128,-1,8
 502 430 502 430 502 383 c 0,9,10
 502 313 502 313 550 273 c 128,-1,11
 598 233 598 233 684 233 c 0,12,13
 765 233 765 233 859.5 267 c 128,-1,14
 954 301 954 301 1055 367 c 1,15,-1
 1055 53 l 1,16,17
 936 11 936 11 834.5 -9 c 128,-1,18
 733 -29 733 -29 641 -29 c 0,19,20
 397 -29 397 -29 269 70.5 c 128,-1,21
 141 170 141 170 141 360 c 0,22,23
 141 459 141 459 180 536.5 c 128,-1,24
 219 614 219 614 313 702 c 1,25,-1
 377 760 l 2,26,27
 445 821 445 821 466 859 c 128,-1,28
 487 897 487 897 487 942 c 2,29,-1
 487 987 l 1,0,-1
848 1137 m 1,30,-1
 487 1137 l 1,31,-1
 487 1493 l 1,32,-1
 848 1493 l 1,33,-1
 848 1137 l 1,30,-1
EndSplineSet
EndChar
StartChar: Aring
Encoding: 197 197 197
Width: 1585
Flags: W
Fore
1032 1464 m 1,0,-1
 1575 0 l 1,1,-1
 1188 0 l 1,2,-1
 1094 272 l 1,3,-1
 492 272 l 1,4,-1
 397 0 l 1,5,-1
 10 0 l 1,6,-1
 553 1464 l 1,7,8
 530 1498 530 1498 519 1535.5 c 128,-1,9
 508 1573 508 1573 508 1616 c 0,10,11
 508 1733 508 1733 591.5 1817 c 128,-1,12
 675 1901 675 1901 793 1901 c 0,13,14
 909 1901 909 1901 993 1817 c 128,-1,15
 1077 1733 1077 1733 1077 1616 c 0,16,17
 1077 1569 1077 1569 1066 1531 c 128,-1,18
 1055 1493 1055 1493 1032 1464 c 1,0,-1
662 1616 m 0,19,20
 662 1562 662 1562 700.5 1523.5 c 128,-1,21
 739 1485 739 1485 793 1485 c 0,22,23
 847 1485 847 1485 885.5 1523.5 c 128,-1,24
 924 1562 924 1562 924 1616 c 0,25,26
 924 1670 924 1670 885 1708.5 c 128,-1,27
 846 1747 846 1747 793 1747 c 0,28,29
 739 1747 739 1747 700.5 1708.5 c 128,-1,30
 662 1670 662 1670 662 1616 c 0,19,20
588 549 m 1,31,-1
 997 549 l 1,32,-1
 793 1143 l 1,33,-1
 588 549 l 1,31,-1
EndSplineSet
EndChar
StartChar: AE
Encoding: 198 198 198
Width: 2222
Flags: W
Fore
891 1237 m 1,0,-1
 635 627 l 1,1,-1
 1012 627 l 1,2,-1
 1012 1237 l 1,3,-1
 891 1237 l 1,0,-1
625 1493 m 1,4,-1
 2050 1493 l 1,5,-1
 2050 1202 l 1,6,-1
 1397 1202 l 1,7,-1
 1397 924 l 1,8,-1
 2011 924 l 1,9,-1
 2011 633 l 1,10,-1
 1397 633 l 1,11,-1
 1397 291 l 1,12,-1
 2073 291 l 1,13,-1
 2073 0 l 1,14,-1
 1012 0 l 1,15,-1
 1012 350 l 1,16,-1
 518 350 l 1,17,-1
 371 0 l 1,18,-1
 0 0 l 1,19,-1
 625 1493 l 1,4,-1
EndSplineSet
EndChar
StartChar: Eth
Encoding: 208 208 208
Width: 1716
Flags: W
Fore
592 1202 m 1,0,-1
 592 881 l 1,1,-1
 827 881 l 1,2,-1
 827 621 l 1,3,-1
 592 621 l 1,4,-1
 592 291 l 1,5,-1
 729 291 l 2,6,7
 965 291 965 291 1089.5 408 c 128,-1,8
 1214 525 1214 525 1214 748 c 0,9,10
 1214 970 1214 970 1090 1086 c 128,-1,11
 966 1202 966 1202 729 1202 c 2,12,-1
 592 1202 l 1,0,-1
207 1493 m 1,13,-1
 612 1493 l 2,14,15
 953 1493 953 1493 1119 1444.5 c 128,-1,16
 1285 1396 1285 1396 1405 1280 c 0,17,18
 1509 1179 1509 1179 1560.5 1047 c 128,-1,19
 1612 915 1612 915 1612 748 c 0,20,21
 1612 579 1612 579 1560.5 446.5 c 128,-1,22
 1509 314 1509 314 1405 213 c 0,23,24
 1284 97 1284 97 1116 48.5 c 128,-1,25
 948 0 948 0 612 0 c 2,26,-1
 207 0 l 1,27,-1
 207 621 l 1,28,-1
 33 621 l 1,29,-1
 33 881 l 1,30,-1
 207 881 l 1,31,-1
 207 1493 l 1,13,-1
EndSplineSet
EndChar
StartChar: multiply
Encoding: 215 215 215
Width: 1716
Flags: W
Fore
1460 1075 m 1,0,-1
 1026 641 l 1,1,-1
 1460 209 l 1,2,-1
 1292 41 l 1,3,-1
 858 473 l 1,4,-1
 424 41 l 1,5,-1
 256 209 l 1,6,-1
 690 641 l 1,7,-1
 256 1075 l 1,8,-1
 424 1243 l 1,9,-1
 858 809 l 1,10,-1
 1292 1243 l 1,11,-1
 1460 1075 l 1,0,-1
EndSplineSet
EndChar
StartChar: Oslash
Encoding: 216 216 216
Width: 1741
Flags: W
AnchorPoint: "above" 844 1520 basechar 0
Fore
604 371 m 1,0,1
 656 309 656 309 721.5 279.5 c 128,-1,2
 787 250 787 250 870 250 c 0,3,4
 1047 250 1047 250 1144 380 c 128,-1,5
 1241 510 1241 510 1241 745 c 0,6,7
 1241 813 1241 813 1233.5 871.5 c 128,-1,8
 1226 930 1226 930 1210 979 c 1,9,-1
 604 371 l 1,0,1
1133 1126 m 1,10,11
 1082 1184 1082 1184 1017 1212.5 c 128,-1,12
 952 1241 952 1241 870 1241 c 0,13,14
 694 1241 694 1241 597 1111 c 128,-1,15
 500 981 500 981 500 745 c 0,16,17
 500 681 500 681 507 624.5 c 128,-1,18
 514 568 514 568 528 522 c 1,19,-1
 1133 1126 l 1,10,11
250 244 m 1,20,21
 176 344 176 344 139 469 c 128,-1,22
 102 594 102 594 102 745 c 0,23,24
 102 1108 102 1108 306.5 1314 c 128,-1,25
 511 1520 511 1520 870 1520 c 0,26,27
 1024 1520 1024 1520 1148 1482.5 c 128,-1,28
 1272 1445 1272 1445 1374 1368 c 1,29,-1
 1573 1567 l 1,30,-1
 1686 1452 l 1,31,-1
 1485 1253 l 1,32,33
 1562 1154 1562 1154 1600 1026.5 c 128,-1,34
 1638 899 1638 899 1638 745 c 0,35,36
 1638 383 1638 383 1434 177 c 128,-1,37
 1230 -29 1230 -29 870 -29 c 0,38,39
 717 -29 717 -29 589.5 10.5 c 128,-1,40
 462 50 462 50 360 129 c 1,41,-1
 158 -74 l 1,42,-1
 45 39 l 1,43,-1
 250 244 l 1,20,21
EndSplineSet
EndChar
StartChar: Thorn
Encoding: 222 222 222
Width: 1511
Flags: W
Fore
573 258 m 1,0,-1
 573 0 l 1,1,-1
 188 0 l 1,2,-1
 188 1493 l 1,3,-1
 573 1493 l 1,4,-1
 573 1233 l 1,5,-1
 827 1233 l 2,6,7
 1112 1233 1112 1233 1264.5 1106.5 c 128,-1,8
 1417 980 1417 980 1417 745 c 0,9,10
 1417 511 1417 511 1264.5 384.5 c 128,-1,11
 1112 258 1112 258 827 258 c 2,12,-1
 573 258 l 1,0,-1
573 956 m 1,13,-1
 573 537 l 1,14,-1
 786 537 l 2,15,16
 898 537 898 537 959 591.5 c 128,-1,17
 1020 646 1020 646 1020 745 c 0,18,19
 1020 846 1020 846 959 901 c 128,-1,20
 898 956 898 956 786 956 c 2,21,-1
 573 956 l 1,13,-1
EndSplineSet
EndChar
StartChar: germandbls
Encoding: 223 223 223
Width: 1473
Flags: W
Fore
172 1114 m 2,0,1
 172 1336 172 1336 307 1446 c 128,-1,2
 442 1556 442 1556 715 1556 c 0,3,4
 977 1556 977 1556 1111 1444 c 128,-1,5
 1245 1332 1245 1332 1245 1114 c 2,6,-1
 1245 1043 l 1,7,8
 1094 1033 1094 1033 1022 994 c 128,-1,9
 950 955 950 955 950 881 c 0,10,11
 950 844 950 844 974.5 815.5 c 128,-1,12
 999 787 999 787 1092 735 c 2,13,-1
 1161 698 l 2,14,15
 1277 634 1277 634 1330.5 549.5 c 128,-1,16
 1384 465 1384 465 1384 348 c 0,17,18
 1384 159 1384 159 1269.5 65 c 128,-1,19
 1155 -29 1155 -29 924 -29 c 0,20,21
 859 -29 859 -29 790 -16.5 c 128,-1,22
 721 -4 721 -4 647 20 c 1,23,-1
 647 264 l 1,24,25
 703 237 703 237 760.5 223 c 128,-1,26
 818 209 818 209 872 209 c 0,27,28
 944 209 944 209 988 245 c 128,-1,29
 1032 281 1032 281 1032 338 c 0,30,31
 1032 385 1032 385 1004.5 419 c 128,-1,32
 977 453 977 453 879 508 c 2,33,-1
 809 547 l 2,34,35
 721 596 721 596 679 663.5 c 128,-1,36
 637 731 637 731 637 821 c 0,37,38
 637 937 637 937 706.5 1016 c 128,-1,39
 776 1095 776 1095 921 1145 c 1,40,41
 920 1230 920 1230 872 1274.5 c 128,-1,42
 824 1319 824 1319 733 1319 c 0,43,44
 632 1319 632 1319 581 1264 c 128,-1,45
 530 1209 530 1209 530 1100 c 2,46,-1
 530 0 l 1,47,-1
 172 0 l 1,48,-1
 172 1114 l 2,0,1
EndSplineSet
EndChar
StartChar: ae
Encoding: 230 230 230
Width: 2146
Flags: W
AnchorPoint: "below" 1063 0 basechar 0
AnchorPoint: "above" 1063 1147 basechar 0
Fore
1679 682 m 1,0,1
 1679 784 1679 784 1619.5 846.5 c 128,-1,2
 1560 909 1560 909 1464 909 c 0,3,4
 1361 909 1361 909 1297 850.5 c 128,-1,5
 1233 792 1233 792 1217 682 c 1,6,-1
 1679 682 l 1,0,1
674 504 m 2,7,8
 562 504 562 504 505.5 466 c 128,-1,9
 449 428 449 428 449 354 c 0,10,11
 449 286 449 286 494.5 247.5 c 128,-1,12
 540 209 540 209 621 209 c 0,13,14
 722 209 722 209 791 281.5 c 128,-1,15
 860 354 860 354 860 463 c 2,16,-1
 860 504 l 1,17,-1
 674 504 l 2,7,8
186 1090 m 1,18,19
 305 1118 305 1118 416.5 1132.5 c 128,-1,20
 528 1147 528 1147 625 1147 c 0,21,22
 775 1147 775 1147 883.5 1108.5 c 128,-1,23
 992 1070 992 1070 1063 991 c 1,24,25
 1140 1068 1140 1068 1242 1107.5 c 128,-1,26
 1344 1147 1344 1147 1466 1147 c 0,27,28
 1731 1147 1731 1147 1889.5 988 c 128,-1,29
 2048 829 2048 829 2048 563 c 2,30,-1
 2048 461 l 1,31,-1
 1210 461 l 1,32,33
 1224 335 1224 335 1301.5 272 c 128,-1,34
 1379 209 1379 209 1520 209 c 0,35,36
 1633 209 1633 209 1751.5 242.5 c 128,-1,37
 1870 276 1870 276 1995 344 c 1,38,-1
 1995 68 l 1,39,40
 1868 20 1868 20 1740.5 -4.5 c 128,-1,41
 1613 -29 1613 -29 1487 -29 c 0,42,43
 1308 -29 1308 -29 1175.5 24.5 c 128,-1,44
 1043 78 1043 78 971 178 c 1,45,46
 870 71 870 71 758.5 21 c 128,-1,47
 647 -29 647 -29 508 -29 c 0,48,49
 314 -29 314 -29 201 69.5 c 128,-1,50
 88 168 88 168 88 336 c 0,51,52
 88 533 88 533 223.5 625 c 128,-1,53
 359 717 359 717 649 717 c 2,54,-1
 860 717 l 1,55,-1
 860 745 l 2,56,57
 860 830 860 830 793 869.5 c 128,-1,58
 726 909 726 909 584 909 c 0,59,60
 469 909 469 909 370 886 c 128,-1,61
 271 863 271 863 186 817 c 1,62,-1
 186 1090 l 1,18,19
EndSplineSet
EndChar
StartChar: eth
Encoding: 240 240 240
Width: 1407
Flags: W
AnchorPoint: "above" 705 1520 basechar 0
AnchorPoint: "below" 705 0 basechar 0
Fore
920 743 m 1,0,1
 865 770 865 770 811 783.5 c 128,-1,2
 757 797 757 797 705 797 c 0,3,4
 588 797 588 797 524.5 730.5 c 128,-1,5
 461 664 461 664 461 543 c 0,6,7
 461 395 461 395 526 311 c 128,-1,8
 591 227 591 227 705 227 c 0,9,10
 822 227 822 227 884 312.5 c 128,-1,11
 946 398 946 398 946 559 c 0,12,13
 946 604 946 604 939.5 650 c 128,-1,14
 933 696 933 696 920 743 c 1,0,1
1096 1100 m 1,15,16
 1213 964 1213 964 1266 835.5 c 128,-1,17
 1319 707 1319 707 1319 559 c 0,18,19
 1319 283 1319 283 1156.5 127 c 128,-1,20
 994 -29 994 -29 705 -29 c 0,21,22
 415 -29 415 -29 251.5 127 c 128,-1,23
 88 283 88 283 88 559 c 0,24,25
 88 790 88 790 238.5 922.5 c 128,-1,26
 389 1055 389 1055 653 1055 c 0,27,28
 699 1055 699 1055 738 1048.5 c 128,-1,29
 777 1042 777 1042 813 1028 c 1,30,-1
 623 1247 l 1,31,-1
 250 1128 l 1,32,-1
 213 1257 l 1,33,-1
 520 1354 l 1,34,-1
 332 1556 l 1,35,-1
 684 1556 l 1,36,-1
 795 1440 l 1,37,-1
 1171 1554 l 1,38,-1
 1206 1425 l 1,39,-1
 891 1329 l 1,40,-1
 1096 1100 l 1,15,16
EndSplineSet
EndChar
StartChar: divide
Encoding: 247 247 247
Width: 1716
Flags: W
Fore
705 395 m 1,0,-1
 1012 395 l 1,1,-1
 1012 86 l 1,2,-1
 705 86 l 1,3,-1
 705 395 l 1,0,-1
705 1198 m 1,4,-1
 1012 1198 l 1,5,-1
 1012 889 l 1,6,-1
 705 889 l 1,7,-1
 705 1198 l 1,4,-1
217 760 m 1,8,-1
 1499 760 l 1,9,-1
 1499 524 l 1,10,-1
 217 524 l 1,11,-1
 217 760 l 1,8,-1
EndSplineSet
EndChar
StartChar: oslash
Encoding: 248 248 248
Width: 1407
Flags: W
AnchorPoint: "below" 705 0 basechar 0
AnchorPoint: "above" 705 1147 basechar 0
Fore
856 836 m 1,0,1
 827 864 827 864 789.5 877.5 c 128,-1,2
 752 891 752 891 705 891 c 0,3,4
 586 891 586 891 523.5 805.5 c 128,-1,5
 461 720 461 720 461 559 c 0,6,7
 461 518 461 518 464.5 485.5 c 128,-1,8
 468 453 468 453 475 426 c 1,9,-1
 856 836 l 1,0,1
547 287 m 1,10,11
 578 257 578 257 617.5 242 c 128,-1,12
 657 227 657 227 705 227 c 0,13,14
 822 227 822 227 884 312.5 c 128,-1,15
 946 398 946 398 946 559 c 0,16,17
 946 602 946 602 942.5 635.5 c 128,-1,18
 939 669 939 669 932 698 c 1,19,-1
 547 287 l 1,10,11
223 158 m 1,20,21
 156 236 156 236 122 336 c 128,-1,22
 88 436 88 436 88 559 c 0,23,24
 88 835 88 835 251.5 991 c 128,-1,25
 415 1147 415 1147 705 1147 c 0,26,27
 811 1147 811 1147 900.5 1125 c 128,-1,28
 990 1103 990 1103 1065 1059 c 1,29,-1
 1212 1217 l 1,30,-1
 1321 1116 l 1,31,-1
 1180 967 l 1,32,33
 1250 887 1250 887 1284.5 786 c 128,-1,34
 1319 685 1319 685 1319 559 c 0,35,36
 1319 283 1319 283 1156.5 127 c 128,-1,37
 994 -29 994 -29 705 -29 c 0,38,39
 597 -29 597 -29 506 -6.5 c 128,-1,40
 415 16 415 16 338 61 c 1,41,-1
 190 -94 l 1,42,-1
 78 0 l 1,43,-1
 223 158 l 1,20,21
EndSplineSet
EndChar
StartChar: thorn
Encoding: 254 254 254
Width: 1466
Flags: W
Fore
530 162 m 1,0,-1
 530 -426 l 1,1,-1
 172 -426 l 1,2,-1
 172 1556 l 1,3,-1
 530 1556 l 1,4,-1
 530 956 l 1,5,6
 604 1054 604 1054 694 1100.5 c 128,-1,7
 784 1147 784 1147 901 1147 c 0,8,9
 1108 1147 1108 1147 1241 982.5 c 128,-1,10
 1374 818 1374 818 1374 559 c 0,11,12
 1374 300 1374 300 1241 135.5 c 128,-1,13
 1108 -29 1108 -29 901 -29 c 0,14,15
 784 -29 784 -29 694 17.5 c 128,-1,16
 604 64 604 64 530 162 c 1,0,-1
768 887 m 0,17,18
 653 887 653 887 591.5 802.5 c 128,-1,19
 530 718 530 718 530 559 c 0,20,21
 530 400 530 400 591.5 315.5 c 128,-1,22
 653 231 653 231 768 231 c 0,23,24
 883 231 883 231 943.5 315 c 128,-1,25
 1004 399 1004 399 1004 559 c 0,26,27
 1004 719 1004 719 943.5 803 c 128,-1,28
 883 887 883 887 768 887 c 0,17,18
EndSplineSet
EndChar
StartChar: dcroat
Encoding: 273 273 273
Width: 1466
Flags: W
Fore
934 956 m 1,0,-1
 934 1237 l 1,1,-1
 608 1237 l 1,2,-1
 608 1442 l 1,3,-1
 934 1442 l 1,4,-1
 934 1556 l 1,5,-1
 1294 1556 l 1,6,-1
 1294 1442 l 1,7,-1
 1448 1442 l 1,8,-1
 1448 1237 l 1,9,-1
 1294 1237 l 1,10,-1
 1294 0 l 1,11,-1
 934 0 l 1,12,-1
 934 162 l 1,13,14
 860 63 860 63 771 17 c 128,-1,15
 682 -29 682 -29 565 -29 c 0,16,17
 358 -29 358 -29 225 135.5 c 128,-1,18
 92 300 92 300 92 559 c 0,19,20
 92 818 92 818 225 982.5 c 128,-1,21
 358 1147 358 1147 565 1147 c 0,22,23
 681 1147 681 1147 770.5 1100.5 c 128,-1,24
 860 1054 860 1054 934 956 c 1,0,-1
698 231 m 0,25,26
 813 231 813 231 873.5 315 c 128,-1,27
 934 399 934 399 934 559 c 0,28,29
 934 719 934 719 873.5 803 c 128,-1,30
 813 887 813 887 698 887 c 0,31,32
 584 887 584 887 523.5 803 c 128,-1,33
 463 719 463 719 463 559 c 0,34,35
 463 399 463 399 523.5 315 c 128,-1,36
 584 231 584 231 698 231 c 0,25,26
EndSplineSet
EndChar
StartChar: Hbar
Encoding: 294 294 294
Width: 1994
Flags: W
AnchorPoint: "above" 995 1520 basechar 0
Fore
328 1493 m 1,0,-1
 713 1493 l 1,1,-1
 713 1306 l 1,2,-1
 1281 1306 l 1,3,-1
 1281 1493 l 1,4,-1
 1666 1493 l 1,5,-1
 1666 1306 l 1,6,-1
 1806 1306 l 1,7,-1
 1806 1112 l 1,8,-1
 1666 1112 l 1,9,-1
 1666 0 l 1,10,-1
 1281 0 l 1,11,-1
 1281 633 l 1,12,-1
 713 633 l 1,13,-1
 713 0 l 1,14,-1
 328 0 l 1,15,-1
 328 1112 l 1,16,-1
 188 1112 l 1,17,-1
 188 1306 l 1,18,-1
 328 1306 l 1,19,-1
 328 1493 l 1,0,-1
713 1112 m 1,20,-1
 713 924 l 1,21,-1
 1281 924 l 1,22,-1
 1281 1112 l 1,23,-1
 713 1112 l 1,20,-1
EndSplineSet
EndChar
StartChar: hbar
Encoding: 295 295 295
Width: 1618
Flags: W
AnchorPoint: "above" 510 1520 basechar 0
Fore
1452 682 m 2,0,-1
 1452 0 l 1,1,-1
 1092 0 l 1,2,-1
 1092 111 l 1,3,-1
 1092 520 l 2,4,5
 1092 667 1092 667 1085.5 722 c 128,-1,6
 1079 777 1079 777 1063 803 c 0,7,8
 1042 838 1042 838 1006 857.5 c 128,-1,9
 970 877 970 877 924 877 c 0,10,11
 812 877 812 877 748 790.5 c 128,-1,12
 684 704 684 704 684 551 c 2,13,-1
 684 0 l 1,14,-1
 326 0 l 1,15,-1
 326 1255 l 1,16,-1
 166 1255 l 1,17,-1
 166 1449 l 1,18,-1
 326 1449 l 1,19,-1
 326 1556 l 1,20,-1
 684 1556 l 1,21,-1
 684 1449 l 1,22,-1
 1047 1449 l 1,23,-1
 1047 1255 l 1,24,-1
 684 1255 l 1,25,-1
 684 956 l 1,26,27
 765 1054 765 1054 856 1100.5 c 128,-1,28
 947 1147 947 1147 1057 1147 c 0,29,30
 1251 1147 1251 1147 1351.5 1028 c 128,-1,31
 1452 909 1452 909 1452 682 c 2,0,-1
EndSplineSet
EndChar
StartChar: dotlessi
Encoding: 305 305 305
Width: 702
Flags: W
AnchorPoint: "below" 350 0 basechar 0
AnchorPoint: "above" 350 1147 basechar 0
Fore
172 1120 m 1,0,-1
 530 1120 l 1,1,-1
 530 0 l 1,2,-1
 172 0 l 1,3,-1
 172 1120 l 1,0,-1
EndSplineSet
EndChar
StartChar: kgreenlandic
Encoding: 312 312 312
Width: 1362
Flags: W
AnchorPoint: "below" 698 0 basechar 0
AnchorPoint: "above" 698 1147 basechar 0
Fore
172 1120 m 1,0,-1
 530 1120 l 1,1,-1
 530 709 l 1,2,-1
 942 1120 l 1,3,-1
 1358 1120 l 1,4,-1
 811 606 l 1,5,-1
 1401 0 l 1,6,-1
 967 0 l 1,7,-1
 530 467 l 1,8,-1
 530 0 l 1,9,-1
 172 0 l 1,10,-1
 172 1120 l 1,0,-1
EndSplineSet
EndChar
StartChar: Lslash
Encoding: 321 321 321
Width: 1315
Flags: W
Fore
199 1493 m 1,0,-1
 584 1493 l 1,1,-1
 584 1077 l 1,2,-1
 838 1262 l 1,3,-1
 981 1069 l 1,4,-1
 584 797 l 1,5,-1
 584 291 l 1,6,-1
 1260 291 l 1,7,-1
 1260 0 l 1,8,-1
 199 0 l 1,9,-1
 199 524 l 1,10,-1
 51 418 l 1,11,-1
 -92 608 l 1,12,-1
 199 805 l 1,13,-1
 199 1493 l 1,0,-1
EndSplineSet
EndChar
StartChar: lslash
Encoding: 322 322 322
Width: 760
Flags: W
Fore
199 1556 m 1,0,-1
 559 1556 l 1,1,-1
 559 1055 l 1,2,-1
 688 1143 l 1,3,-1
 799 989 l 1,4,-1
 559 825 l 1,5,-1
 559 0 l 1,6,-1
 199 0 l 1,7,-1
 199 641 l 1,8,-1
 74 555 l 1,9,-1
 -37 709 l 1,10,-1
 199 872 l 1,11,-1
 199 1556 l 1,0,-1
EndSplineSet
EndChar
StartChar: Eng
Encoding: 330 330 330
Width: 1714
Flags: W
AnchorPoint: "above" 879 1520 basechar 0
Fore
207 1493 m 1,0,-1
 553 1493 l 1,1,-1
 1161 529 l 1,2,-1
 1161 1493 l 1,3,-1
 1508 1493 l 1,4,-1
 1508 20 l 2,5,6
 1508 -203 1508 -203 1398 -324 c 0,7,8
 1290 -442 1290 -442 1085 -442 c 2,9,-1
 804 -442 l 1,10,-1
 804 -207 l 1,11,-1
 970 -207 l 2,12,13
 1072 -207 1072 -207 1110 -161 c 128,-1,14
 1148 -115 1148 -115 1148 20 c 1,15,-1
 553 964 l 1,16,-1
 553 0 l 1,17,-1
 207 0 l 1,18,-1
 207 1493 l 1,0,-1
EndSplineSet
Substitution: 0 2 'salt' Eng.alt
Substitution: 0 5 'locl' Eng.alt
Substitution: 0 2 'aalt' Eng.alt
EndChar
StartChar: eng
Encoding: 331 331 331
Width: 1458
Flags: W
Fore
1298 682 m 2,0,-1
 1298 20 l 2,1,2
 1298 -203 1298 -203 1188 -324 c 0,3,4
 1080 -442 1080 -442 875 -442 c 2,5,-1
 594 -442 l 1,6,-1
 594 -207 l 1,7,-1
 760 -207 l 2,8,9
 862 -207 862 -207 900 -161 c 128,-1,10
 938 -115 938 -115 938 20 c 2,11,-1
 938 522 l 2,12,13
 938 667 938 667 932 722 c 0,14,15
 925 777 925 777 909 803 c 0,16,17
 888 838 888 838 852 858 c 0,18,19
 816 877 816 877 770 877 c 0,20,21
 658 877 658 877 594 790 c 0,22,23
 530 704 530 704 530 551 c 2,24,-1
 530 0 l 1,25,-1
 172 0 l 1,26,-1
 172 1120 l 1,27,-1
 530 1120 l 1,28,-1
 530 956 l 1,29,30
 611 1054 611 1054 702 1100 c 0,31,32
 793 1147 793 1147 903 1147 c 0,33,34
 1097 1147 1097 1147 1198 1028 c 0,35,36
 1298 909 1298 909 1298 682 c 2,0,-1
EndSplineSet
EndChar
StartChar: OE
Encoding: 338 338 338
Width: 2390
Flags: W
Fore
1180 1202 m 1,0,-1
 1075 1202 l 2,1,2
 786 1202 786 1202 643 1089 c 128,-1,3
 500 976 500 976 500 748 c 0,4,5
 500 519 500 519 643.5 405 c 128,-1,6
 787 291 787 291 1075 291 c 2,7,-1
 1180 291 l 1,8,-1
 1180 1202 l 1,0,-1
1090 1493 m 2,9,-1
 2218 1493 l 1,10,-1
 2218 1202 l 1,11,-1
 1565 1202 l 1,12,-1
 1565 924 l 1,13,-1
 2179 924 l 1,14,-1
 2179 633 l 1,15,-1
 1565 633 l 1,16,-1
 1565 291 l 1,17,-1
 2241 291 l 1,18,-1
 2241 0 l 1,19,-1
 1090 0 l 2,20,21
 1077 0 1077 0 1053.5 -1 c 128,-1,22
 1030 -2 1030 -2 1018 -2 c 0,23,24
 576 -2 576 -2 339 192.5 c 128,-1,25
 102 387 102 387 102 748 c 0,26,27
 102 1108 102 1108 339 1301.5 c 128,-1,28
 576 1495 576 1495 1018 1495 c 0,29,30
 1029 1495 1029 1495 1053 1494 c 128,-1,31
 1077 1493 1077 1493 1090 1493 c 2,9,-1
EndSplineSet
EndChar
StartChar: oe
Encoding: 339 339 339
Width: 2241
Flags: W
AnchorPoint: "above" 1130 1147 basechar 0
AnchorPoint: "below" 1130 0 basechar 0
Fore
1774 682 m 1,0,1
 1774 784 1774 784 1714.5 846.5 c 128,-1,2
 1655 909 1655 909 1559 909 c 0,3,4
 1455 909 1455 909 1390 850.5 c 128,-1,5
 1325 792 1325 792 1309 682 c 1,6,-1
 1774 682 l 1,0,1
2142 563 m 2,7,-1
 2142 461 l 1,8,-1
 1305 461 l 1,9,10
 1318 335 1318 335 1396 272 c 128,-1,11
 1474 209 1474 209 1614 209 c 0,12,13
 1727 209 1727 209 1845.5 242.5 c 128,-1,14
 1964 276 1964 276 2089 344 c 1,15,-1
 2089 68 l 1,16,17
 1963 20 1963 20 1835 -4.5 c 128,-1,18
 1707 -29 1707 -29 1581 -29 c 0,19,20
 1416 -29 1416 -29 1309 11.5 c 128,-1,21
 1202 52 1202 52 1130 139 c 1,22,23
 1048 55 1048 55 941.5 13 c 128,-1,24
 835 -29 835 -29 705 -29 c 0,25,26
 415 -29 415 -29 251.5 127 c 128,-1,27
 88 283 88 283 88 559 c 0,28,29
 88 835 88 835 251.5 991 c 128,-1,30
 415 1147 415 1147 705 1147 c 0,31,32
 839 1147 839 1147 942 1106 c 128,-1,33
 1045 1065 1045 1065 1126 979 c 1,34,35
 1208 1066 1208 1066 1307.5 1106.5 c 128,-1,36
 1407 1147 1407 1147 1542 1147 c 0,37,38
 1820 1147 1820 1147 1981 990 c 128,-1,39
 2142 833 2142 833 2142 563 c 2,7,-1
705 891 m 0,40,41
 586 891 586 891 523.5 805.5 c 128,-1,42
 461 720 461 720 461 559 c 0,43,44
 461 398 461 398 523.5 312.5 c 128,-1,45
 586 227 586 227 705 227 c 0,46,47
 822 227 822 227 884 312.5 c 128,-1,48
 946 398 946 398 946 559 c 0,49,50
 946 720 946 720 884 805.5 c 128,-1,51
 822 891 822 891 705 891 c 0,40,41
EndSplineSet
EndChar
StartChar: Tbar
Encoding: 358 358 358
Width: 1397
Flags: W
TeX: 0 0 0 0
Fore
10 1493 m 1,0,-1
 1386 1493 l 1,1,-1
 1386 1202 l 1,2,-1
 891 1202 l 1,3,-1
 891 697 l 1,4,-1
 1138 697 l 1,5,-1
 1138 505 l 1,6,-1
 891 505 l 1,7,-1
 891 0 l 1,8,-1
 506 0 l 1,9,-1
 506 505 l 1,10,-1
 259 505 l 1,11,-1
 259 697 l 1,12,-1
 506 697 l 1,13,-1
 506 1202 l 1,14,-1
 10 1202 l 1,15,-1
 10 1493 l 1,0,-1
EndSplineSet
EndChar
StartChar: tbar
Encoding: 359 359 359
Width: 979
Flags: W
TeX: 0 0 0 0
Fore
563 1438 m 1,0,-1
 563 1120 l 1,1,-1
 932 1120 l 1,2,-1
 932 864 l 1,3,-1
 563 864 l 1,4,-1
 563 722 l 1,5,-1
 747 722 l 1,6,-1
 747 530 l 1,7,-1
 563 530 l 1,8,-1
 563 389 l 2,9,10
 563 311 563 311 594 284 c 0,11,12
 625 256 625 256 717 256 c 2,13,-1
 901 256 l 1,14,-1
 901 0 l 1,15,-1
 594 0 l 2,16,17
 382 0 382 0 294 88 c 0,18,19
 205 177 205 177 205 389 c 2,20,-1
 205 530 l 1,21,-1
 27 530 l 1,22,-1
 27 722 l 1,23,-1
 205 722 l 1,24,-1
 205 864 l 1,25,-1
 27 864 l 1,26,-1
 27 1120 l 1,27,-1
 205 1120 l 1,28,-1
 205 1438 l 1,29,-1
 563 1438 l 1,0,-1
EndSplineSet
EndChar
StartChar: longs
Encoding: 383 383 383
Width: 891
Flags: W
TeX: 0 0 0 0
Fore
575 0 m 1,0,-1
 217 0 l 1,1,-1
 217 864 l 1,2,-1
 39 864 l 1,3,-1
 39 1120 l 1,4,-1
 217 1120 l 1,5,-1
 217 1198 l 2,6,7
 217 1381 217 1381 319 1468.5 c 128,-1,8
 421 1556 421 1556 635 1556 c 2,9,-1
 909 1556 l 1,10,-1
 909 1321 l 1,11,-1
 711 1321 l 2,12,13
 635 1321 635 1321 605 1293.5 c 0,14,15
 575 1265.29 575 1265.29 575 1198 c 2,16,-1
 575 0 l 1,0,-1
EndSplineSet
EndChar
StartChar: uni0180
Encoding: 384 384 384
Width: 1466
Flags: W
TeX: 117 0 0 0
AnchorPoint: "above" 356 1520 basechar 0
Fore
768 231 m 0,0,1
 883 231 883 231 943.5 315 c 128,-1,2
 1004 399 1004 399 1004 559 c 0,3,4
 1004 719 1004 719 943.5 803 c 128,-1,5
 883 887 883 887 768 887 c 0,6,7
 653 887 653 887 591.5 802.5 c 128,-1,8
 530 718 530 718 530 559 c 0,9,10
 530 400 530 400 591.5 315.5 c 128,-1,11
 653 231 653 231 768 231 c 0,0,1
530 956 m 1,12,13
 604 1054 604 1054 694 1100.5 c 128,-1,14
 784 1147 784 1147 901 1147 c 0,15,16
 1108 1147 1108 1147 1241 982.5 c 128,-1,17
 1374 818 1374 818 1374 559 c 0,18,19
 1374 300 1374 300 1241 135.5 c 128,-1,20
 1108 -29 1108 -29 901 -29 c 0,21,22
 784 -29 784 -29 694 17.5 c 128,-1,23
 604 64 604 64 530 162 c 1,24,-1
 530 0 l 1,25,-1
 172 0 l 1,26,-1
 172 1237 l 1,27,-1
 18 1237 l 1,28,-1
 18 1442 l 1,29,-1
 172 1442 l 1,30,-1
 172 1556 l 1,31,-1
 530 1556 l 1,32,-1
 530 1442 l 1,33,-1
 858 1442 l 1,34,-1
 858 1237 l 1,35,-1
 530 1237 l 1,36,-1
 530 956 l 1,12,13
EndSplineSet
EndChar
StartChar: uni0181
Encoding: 385 385 385
Width: 1661
Flags: W
TeX: 117 0 0 0
AnchorPoint: "above" 877 1520 basechar 0
Fore
886 915 m 2,0,1
 977 915 977 915 1024 955 c 128,-1,2
 1071 995 1071 995 1071 1073 c 0,3,4
 1071 1150 1071 1150 1024 1190.5 c 128,-1,5
 977 1231 977 1231 886 1231 c 2,6,-1
 673 1231 l 1,7,-1
 673 915 l 1,8,-1
 886 915 l 2,0,1
899 262 m 2,9,10
 1015 262 1015 262 1073.5 311 c 128,-1,11
 1132 360 1132 360 1132 459 c 0,12,13
 1132 556 1132 556 1074 604.5 c 128,-1,14
 1016 653 1016 653 899 653 c 2,15,-1
 673 653 l 1,16,-1
 673 262 l 1,17,-1
 899 262 l 2,9,10
1257 799 m 1,18,19
 1381 763 1381 763 1449 666 c 128,-1,20
 1517 569 1517 569 1517 428 c 0,21,22
 1517 212 1517 212 1371 106 c 128,-1,23
 1225 0 1225 0 927 0 c 2,24,-1
 288 0 l 1,25,-1
 288 1231 l 1,26,-1
 209 1231 l 2,27,28
 167 1231 167 1231 135 1203 c 0,29,30
 116 1186.48 116 1186.48 116 1126 c 2,31,-1
 116 1079 l 1,32,-1
 -140 1079 l 1,33,-1
 -140 1156 l 2,34,35
 -140 1326.89 -140 1326.89 -41 1412 c 0,36,37
 53.2246 1493 53.2246 1493 288 1493 c 2,38,-1
 866 1493 l 2,39,40
 1177 1493 1177 1493 1316.5 1399 c 128,-1,41
 1456 1305 1456 1305 1456 1098 c 0,42,43
 1456 989 1456 989 1405 912.5 c 128,-1,44
 1354 836 1354 836 1257 799 c 1,18,19
EndSplineSet
EndChar
StartChar: uni0183
Encoding: 387 387 387
Width: 1466
Flags: W
TeX: 117 0 0 0
Fore
768 231 m 0,0,1
 883 231 883 231 943.5 315 c 128,-1,2
 1004 399 1004 399 1004 559 c 0,3,4
 1004 719 1004 719 943.5 803 c 128,-1,5
 883 887 883 887 768 887 c 0,6,7
 653 887 653 887 591.5 802.5 c 128,-1,8
 530 718 530 718 530 559 c 0,9,10
 530 400 530 400 591.5 315.5 c 128,-1,11
 653 231 653 231 768 231 c 0,0,1
530 956 m 1,12,13
 604 1054 604 1054 694 1100.5 c 128,-1,14
 784 1147 784 1147 901 1147 c 0,15,16
 1108 1147 1108 1147 1241 982.5 c 128,-1,17
 1374 818 1374 818 1374 559 c 0,18,19
 1374 300 1374 300 1241 135.5 c 128,-1,20
 1108 -29 1108 -29 901 -29 c 0,21,22
 784 -29 784 -29 694 17.5 c 128,-1,23
 604 64 604 64 530 162 c 1,24,-1
 530 0 l 1,25,-1
 172 0 l 1,26,-1
 172 1556 l 1,27,-1
 1201 1556 l 1,28,-1
 1201 1265 l 1,29,-1
 530 1265 l 1,30,-1
 530 956 l 1,12,13
EndSplineSet
EndChar
StartChar: uni0184
Encoding: 388 388 388
Width: 1561
Flags: W
TeX: 117 0 0 0
Fore
880 262 m 2,0,1
 1001 262 1001 262 1055 307 c 0,2,3
 1113 356 1113 356 1113 449 c 0,4,5
 1113 540 1113 540 1055 588 c 0,6,7
 1002 633 1002 633 880 633 c 2,8,-1
 654 633 l 1,9,-1
 654 262 l 1,10,-1
 880 262 l 2,0,1
908 0 m 10,11,-1
 269 0 l 17,12,-1
 269 924 l 1,0,0
 81 1104 l 1,0,0
 654 1493 l 25,14,-1
 654 924 l 1,17,-1
 908 924 l 2,18,19
 1191 924 1191 924 1352 807 c 0,20,21
 1498 701 1498 701 1498 461 c 24,22,23
 1498 223 1498 223 1352 117 c 0,24,25
 1191 0 1191 0 908 0 c 10,11,-1
EndSplineSet
EndChar
StartChar: uni0185
Encoding: 389 389 389
Width: 1466
Flags: W
TeX: 117 0 0 0
Fore
582 956 m 1,0,1
 656 1054 656 1054 746 1100 c 0,2,3
 836 1147 836 1147 953 1147 c 0,4,5
 1160 1147 1160 1147 1293 982 c 0,6,7
 1426 818 1426 818 1426 559 c 128,-1,9
 1426 300 1426 300 1293 136 c 0,10,11
 1160 -29 1160 -29 953 -29 c 0,12,13
 836 -29 836 -29 746 18 c 0,14,15
 656 64 656 64 582 162 c 1,16,-1
 582 0 l 1,17,-1
 224 0 l 1,18,-1
 224 924 l 1,0,0
 52 1104 l 1,19,-1
 582 1556 l 1,20,-1
 582 956 l 1,0,1
820 231 m 128,-1,24
 935 231 935 231 996 315 c 0,25,26
 1056 399 1056 399 1056 559 c 128,-1,28
 1056 719 1056 719 996 803 c 0,29,30
 935 887 935 887 820 887 c 128,-1,32
 705 887 705 887 644 802 c 0,33,34
 582 718 582 718 582 559 c 128,-1,36
 582 400 582 400 644 316 c 0,37,38
 705 231 705 231 820 231 c 128,-1,24
EndSplineSet
EndChar
StartChar: uni0186
Encoding: 390 390 390
Width: 1503
Flags: W
TeX: 117 0 0 0
AnchorPoint: "above" 605 1520 basechar 0
Fore
102 1409 m 1,0,1
 208 1464 208 1464 323 1492 c 128,-1,2
 438 1520 438 1520 563 1520 c 0,3,4
 936 1520 936 1520 1154 1311.5 c 128,-1,5
 1372 1103 1372 1103 1372 745 c 0,6,7
 1372 388 1372 388 1154 179.5 c 128,-1,8
 936 -29 936 -29 563 -29 c 0,9,10
 438 -29 438 -29 323 -1 c 128,-1,11
 208 27 208 27 102 82 c 1,12,-1
 102 391 l 1,13,14
 209 318 209 318 313 284 c 128,-1,15
 417 250 417 250 532 250 c 0,16,17
 738 250 738 250 856 382 c 128,-1,18
 974 514 974 514 974 745 c 0,19,20
 974 977 974 977 856 1109 c 128,-1,21
 738 1241 738 1241 532 1241 c 0,22,23
 417 1241 417 1241 313 1207 c 128,-1,24
 209 1173 209 1173 102 1100 c 1,25,-1
 102 1409 l 1,0,1
EndSplineSet
EndChar
StartChar: uni0187
Encoding: 391 391 391
Width: 1503
Flags: W
TeX: 117 0 0 0
AnchorPoint: "above" 909 1520 basechar 0
Fore
1372 82 m 1,0,1
 1266 27 1266 27 1151 -1 c 128,-1,2
 1036 -29 1036 -29 911 -29 c 0,3,4
 538 -29 538 -29 320 179.5 c 128,-1,5
 102 388 102 388 102 745 c 0,6,7
 102 1103 102 1103 320 1311.5 c 128,-1,8
 538 1520 538 1520 911 1520 c 0,9,10
 959.115 1520 959.115 1520 1005.75 1515.85 c 1,11,12
 1040.3 1664.55 1040.3 1664.55 1138.5 1754 c 0,13,14
 1290 1892 1290 1892 1597 1892 c 2,15,-1
 1675 1892 l 1,16,-1
 1675 1601 l 1,17,-1
 1615 1601 l 2,18,19
 1495 1601 1495 1601 1433.5 1534 c 128,-1,20
 1372 1467 1372 1467 1372 1337 c 2,21,-1
 1372 1100 l 1,22,23
 1265 1173 1265 1173 1161 1207 c 128,-1,24
 1057 1241 1057 1241 942 1241 c 0,25,26
 736 1241 736 1241 618 1109 c 128,-1,27
 500 977 500 977 500 745 c 0,28,29
 500 514 500 514 618 382 c 128,-1,30
 736 250 736 250 942 250 c 0,31,32
 1057 250 1057 250 1161 284 c 128,-1,33
 1265 318 1265 318 1372 391 c 1,34,-1
 1372 82 l 1,0,1
EndSplineSet
EndChar
StartChar: uni0188
Encoding: 392 392 392
Width: 1214
Flags: W
TeX: 117 0 0 0
AnchorPoint: "below" 733 0 basechar 0
AnchorPoint: "above" 733 1147 basechar 0
Fore
1077 1021 m 2,0,-1
 1077 793 l 1,1,2
 1004 843 1004 843 930.5 867 c 128,-1,3
 857 891 857 891 778 891 c 0,4,5
 628 891 628 891 544.5 803.5 c 128,-1,6
 461 716 461 716 461 559 c 0,7,8
 461 402 461 402 544.5 314.5 c 128,-1,9
 628 227 628 227 778 227 c 0,10,11
 862 227 862 227 937.5 252 c 128,-1,12
 1013 277 1013 277 1077 326 c 1,13,-1
 1077 33 l 1,14,15
 993 2 993 2 906.5 -13.5 c 128,-1,16
 820 -29 820 -29 733 -29 c 0,17,18
 430 -29 430 -29 259 126.5 c 128,-1,19
 88 282 88 282 88 559 c 0,20,21
 88 836 88 836 247.5 991.5 c 128,-1,22
 407 1147 407 1147 727 1147 c 1,23,24
 750 1281 750 1281 827 1365 c 0,25,26
 935 1483 935 1483 1140 1483 c 2,27,-1
 1317 1483 l 1,28,-1
 1317 1248 l 1,29,-1
 1255 1248 l 2,30,31
 1153 1248 1153 1248 1115 1202 c 128,-1,32
 1077 1156 1077 1156 1077 1021 c 2,0,-1
EndSplineSet
EndChar
StartChar: uni018A
Encoding: 394 394 394
Width: 1800
Flags: W
TeX: 117 0 0 0
AnchorPoint: "above" 777 1520 basechar 0
AnchorPoint: "below" 777 0 basechar 0
Fore
673 1202 m 1,0,-1
 673 291 l 1,1,-1
 811 291 l 2,2,3
 1047 291 1047 291 1171.5 408 c 128,-1,4
 1296 525 1296 525 1296 748 c 0,5,6
 1296 970 1296 970 1172 1086 c 128,-1,7
 1048 1202 1048 1202 811 1202 c 2,8,-1
 673 1202 l 1,0,-1
288 1493 m 2,9,-1
 694 1493 l 2,10,11
 1034 1493 1034 1493 1200.5 1444.5 c 128,-1,12
 1367 1396 1367 1396 1486 1280 c 0,13,14
 1591 1179 1591 1179 1642 1047 c 128,-1,15
 1693 915 1693 915 1693 748 c 0,16,17
 1693 579 1693 579 1642 446.5 c 128,-1,18
 1591 314 1591 314 1486 213 c 0,19,20
 1366 97 1366 97 1198 48.5 c 128,-1,21
 1030 0 1030 0 694 0 c 2,22,-1
 288 0 l 1,23,-1
 288 1231 l 1,24,-1
 209 1231 l 2,25,26
 167 1231 167 1231 135 1203 c 0,27,28
 116 1186.48 116 1186.48 116 1126 c 2,29,-1
 116 1079 l 1,30,-1
 -140 1079 l 1,31,-1
 -140 1156 l 2,32,33
 -140 1326.89 -140 1326.89 -41 1412 c 0,34,35
 53.2246 1493 53.2246 1493 288 1493 c 2,9,-1
EndSplineSet
EndChar
StartChar: uni018B
Encoding: 395 395 395
Width: 1550
Flags: W
TeX: 117 0 0 0
Fore
731.16 0 m 18,0,1
 459 0 459 0 301.5 103.335 c 128,-1,2
 144 206.67 144 206.67 144 465.63 c 0,3,4
 144 719.82 144 719.82 302.76 821.91 c 128,-1,5
 461.521 924 461.521 924 731.16 924 c 2,6,-1
 985.16 924 l 1,7,-1
 985.16 1202 l 1,8,-1
 239.16 1202 l 1,9,-1
 239.16 1493 l 1,10,-1
 1370.16 1493 l 1,11,-1
 1370.16 0 l 1,12,-1
 731.16 0 l 18,0,1
526.16 449 m 0,13,14
 526.16 345 526.16 345 588.66 303.5 c 128,-1,15
 651.16 262 651.16 262 759.16 262 c 2,16,-1
 985.16 262 l 1,17,-1
 985.16 633 l 1,18,-1
 759.16 633 l 2,19,20
 652.16 633 652.16 633 589.16 592 c 128,-1,21
 526.16 551 526.16 551 526.16 449 c 0,13,14
EndSplineSet
EndChar
StartChar: uni018C
Encoding: 396 396 396
Width: 1466
Flags: W
TeX: 117 0 0 0
Fore
265 1265 m 1,0,-1
 265 1556 l 1,1,-1
 1294 1556 l 1,2,-1
 1294 0 l 1,3,-1
 934 0 l 1,4,-1
 934 162 l 1,5,6
 860 63 860 63 771 17 c 128,-1,7
 682 -29 682 -29 565 -29 c 0,8,9
 358 -29 358 -29 225 135.5 c 128,-1,10
 92 300 92 300 92 559 c 0,11,12
 92 818 92 818 225 982.5 c 128,-1,13
 358 1147 358 1147 565 1147 c 0,14,15
 681 1147 681 1147 770.5 1100.5 c 128,-1,16
 860 1054 860 1054 934 956 c 1,17,-1
 934 1265 l 1,18,-1
 265 1265 l 1,0,-1
698 231 m 0,19,20
 813 231 813 231 873.5 315 c 128,-1,21
 934 399 934 399 934 559 c 0,22,23
 934 719 934 719 873.5 803 c 128,-1,24
 813 887 813 887 698 887 c 0,25,26
 584 887 584 887 523.5 803 c 128,-1,27
 463 719 463 719 463 559 c 0,28,29
 463 399 463 399 523.5 315 c 128,-1,30
 584 231 584 231 698 231 c 0,19,20
EndSplineSet
EndChar
StartChar: uni018D
Encoding: 397 397 397
Width: 1408
Flags: W
TeX: 117 0 0 0
AnchorPoint: "above" 703 1147 basechar 0
Fore
252 -146 m 17,0,1
 374 -216 374 -216 694 -216 c 0,2,3
 864 -216 864 -216 864 -118 c 24,4,5
 864 -25 864 -25 631 10 c 0,6,7
 398 45 398 45 258 157 c 0,8,9
 88 292 88 292 88 563 c 0,10,11
 88 834 88 834 252 990.5 c 128,-1,12
 416 1147 416 1147 703 1147 c 0,13,14
 990 1147 990 1147 1155 990.5 c 128,-1,15
 1320 834 1320 834 1320 559 c 0,16,17
 1320 351 1320 351 1156 190 c 0,18,19
 1104 140 1104 140 1040 108 c 1,20,21
 1188 29 1188 29 1188 -130 c 8,22,23
 1188 -454 1188 -454 660 -454 c 0,24,25
 396 -454 396 -454 252 -384 c 9,26,-1
 252 -146 l 17,0,1
788 238 m 1,27,28
 842 260 842 260 884 316 c 0,29,30
 950 403 950 403 950 560 c 0,31,32
 950 717 950 717 884 805 c 128,-1,33
 818 893 818 893 705 893 c 0,34,35
 592 893 592 893 526 803.5 c 128,-1,36
 460 714 460 714 460 564 c 0,37,38
 460 415 460 415 531 339.5 c 128,-1,39
 602 264 602 264 700 253 c 0,40,41
 746 248 746 248 788 238 c 1,27,28
EndSplineSet
EndChar
StartChar: uni018E
Encoding: 398 398 398
Width: 1399
Flags: W
TeX: 117 0 0 0
AnchorPoint: "above" 690 1520 basechar 0
Fore
1249 1493 m 1,0,-1
 1249 0 l 1,1,-1
 188 0 l 1,2,-1
 188 291 l 1,3,-1
 864 291 l 1,4,-1
 864 633 l 1,5,-1
 249 633 l 1,6,-1
 249 924 l 1,7,-1
 864 924 l 1,8,-1
 864 1202 l 1,9,-1
 210 1202 l 1,10,-1
 210 1493 l 1,11,-1
 1249 1493 l 1,0,-1
EndSplineSet
EndChar
StartChar: uni018F
Encoding: 399 399 399
Width: 1739
Flags: W
TeX: 117 0 0 0
Fore
1236.81 829 m 16,0,1
 1236.81 986.421 1236.81 986.421 1114.66 1112.5 c 0,2,3
 990.156 1241 990.156 1241 760.156 1241 c 0,4,5
 636.156 1241 636.156 1241 512.656 1206 c 128,-1,6
 389.156 1171 389.156 1171 264.156 1100 c 1,7,-1
 264.156 1409 l 1,8,9
 385.156 1464 385.156 1464 521.656 1492 c 128,-1,10
 658.156 1520 658.156 1520 807.156 1520 c 0,11,12
 1193.16 1520 1193.16 1520 1415.16 1313 c 128,-1,13
 1637.16 1106 1637.16 1106 1637.16 745 c 24,14,15
 1637.16 383 1637.16 383 1433.16 177 c 128,-1,16
 1229.16 -29 1229.16 -29 869.156 -29 c 0,17,18
 521.973 -29 521.973 -29 305.656 177 c 0,19,20
 104.04 369 104.04 369 104.04 829 c 9,21,-1
 1236.81 829 l 16,0,1
1224.07 571 m 9,22,-1
 515.245 571 l 17,23,24
 538.661 457.056 538.661 457.056 596.156 380 c 0,25,26
 693.156 250 693.156 250 869.156 250 c 0,27,28
 1046.16 250 1046.16 250 1143.16 380 c 0,29,30
 1200.65 457.055 1200.65 457.055 1224.07 571 c 9,22,-1
EndSplineSet
EndChar
StartChar: uni0190
Encoding: 400 400 400
Width: 1425
Flags: W
TeX: 117 0 0 0
AnchorPoint: "above" 790 1520 basechar 0
Fore
445 805 m 1,0,1
 310 839 310 839 241 922.5 c 128,-1,2
 172 1006 172 1006 172 1137 c 0,3,4
 172 1329 172 1329 316.5 1424.5 c 128,-1,5
 461 1520 461 1520 752 1520 c 0,6,7
 860 1520 860 1520 972 1504 c 128,-1,8
 1084 1488 1084 1488 1198 1456 c 1,9,-1
 1198 1174 l 1,10,11
 1104 1215 1104 1215 1009 1236 c 128,-1,12
 914 1257 914 1257 821 1257 c 0,13,14
 695 1257 695 1257 626 1210 c 128,-1,15
 557 1163 557 1163 557 1077 c 0,16,17
 557 984 557 984 628 938.5 c 128,-1,18
 699 893 699 893 844 893 c 2,19,-1
 1006 893 l 1,20,-1
 1006 645 l 1,21,-1
 852 645 l 2,22,23
 689 645 689 645 605.5 592.5 c 128,-1,24
 522 540 522 540 522 438 c 0,25,26
 522 339 522 339 603.5 286 c 128,-1,27
 685 233 685 233 838 233 c 0,28,29
 941 233 941 233 1047.5 260.5 c 128,-1,30
 1154 288 1154 288 1262 342 c 1,31,-1
 1262 45 l 1,32,33
 1149 8 1149 8 1033.5 -10.5 c 128,-1,34
 918 -29 918 -29 803 -29 c 0,35,36
 477 -29 477 -29 307 86.5 c 128,-1,37
 137 202 137 202 137 424 c 0,38,39
 137 573 137 573 215.5 669.5 c 128,-1,40
 294 766 294 766 445 805 c 1,0,1
EndSplineSet
EndChar
StartChar: uni0191
Encoding: 401 401 401
Width: 1399
Flags: W
TeX: 117 0 0 0
Fore
188 1493 m 1,0,-1
 1227 1493 l 1,1,-1
 1227 1202 l 1,2,-1
 573 1202 l 1,3,-1
 573 924 l 1,4,-1
 1188 924 l 1,5,-1
 1188 633 l 1,6,-1
 573 633 l 1,7,-1
 573 145 l 2,8,9
 573 -134 573 -134 421.5 -272 c 128,-1,10
 270 -410 270 -410 -37 -410 c 2,11,-1
 -115 -410 l 1,12,-1
 -115 -119 l 1,13,-1
 -55 -119 l 2,14,15
 65 -119 65 -119 126.5 -52 c 128,-1,16
 188 15 188 15 188 145 c 2,17,-1
 188 1493 l 1,0,-1
EndSplineSet
EndChar
StartChar: florin
Encoding: 402 402 402
Width: 891
Flags: W
AnchorPoint: "above" 394 1520 basechar 0
Fore
909 1556 m 1,0,-1
 909 1321 l 1,1,-1
 711 1321 l 2,2,3
 635 1321 635 1321 605 1293 c 128,-1,4
 575 1265 575 1265 575 1198 c 2,5,-1
 575 1120 l 1,6,-1
 881 1120 l 1,7,-1
 881 864 l 1,8,-1
 575 864 l 1,9,-1
 575 -68 l 2,10,11
 575 -256 575 -256 469 -341 c 128,-1,12
 363 -426 363 -426 157 -426 c 2,13,-1
 -117 -426 l 1,14,-1
 -117 -191 l 1,15,-1
 81 -191 l 2,16,17
 157 -191 157 -191 187 -163 c 128,-1,18
 217 -135 217 -135 217 -68 c 2,19,-1
 217 864 l 1,20,-1
 39 864 l 1,21,-1
 39 1120 l 1,22,-1
 217 1120 l 1,23,-1
 217 1198 l 2,24,25
 217 1386 217 1386 323 1471 c 128,-1,26
 429 1556 429 1556 635 1556 c 2,27,-1
 909 1556 l 1,0,-1
EndSplineSet
EndChar
StartChar: uni0193
Encoding: 403 403 403
Width: 1681
Flags: W
TeX: 117 0 0 0
AnchorPoint: "above" 930 1520 basechar 0
Fore
1530 111 m 1,0,1
 1386 41 1386 41 1231 6 c 128,-1,2
 1076 -29 1076 -29 911 -29 c 0,3,4
 538 -29 538 -29 320 179.5 c 128,-1,5
 102 388 102 388 102 745 c 0,6,7
 102 1106 102 1106 324 1313 c 128,-1,8
 546 1520 546 1520 932 1520 c 0,9,10
 1021.97 1520 1021.97 1520 1107.37 1509.79 c 1,11,12
 1141.3 1662.73 1141.3 1662.73 1241.5 1754 c 0,13,14
 1393 1892 1393 1892 1700 1892 c 2,15,-1
 1778 1892 l 1,16,-1
 1778 1601 l 1,17,-1
 1718 1601 l 2,18,19
 1598 1601 1598 1601 1536.5 1534 c 128,-1,20
 1475 1467 1475 1467 1475 1337 c 2,21,-1
 1475 1100 l 1,22,23
 1350 1171 1350 1171 1226.5 1206 c 128,-1,24
 1103 1241 1103 1241 979 1241 c 0,25,26
 749 1241 749 1241 624.5 1112.5 c 128,-1,27
 500 984 500 984 500 745 c 0,28,29
 500 508 500 508 620 379 c 128,-1,30
 740 250 740 250 961 250 c 0,31,32
 1021 250 1021 250 1072.5 257.5 c 128,-1,33
 1124 265 1124 265 1165 281 c 1,34,-1
 1165 571 l 1,35,-1
 930 571 l 1,36,-1
 930 829 l 1,37,-1
 1530 829 l 1,38,-1
 1530 111 l 1,0,1
EndSplineSet
EndChar
StartChar: uni0194
Encoding: 404 404 404
Width: 1624
Flags: W
TeX: 0 0 0 0
Fore
812 176 m 1,0,1
 780 121 780 121 752.5 76.5 c 128,-1,2
 725 32 725 32 706.5 -15 c 128,-1,3
 688 -62 688 -62 688 -100 c 0,4,5
 688 -147 688 -147 725 -173.5 c 128,-1,6
 762 -200 762 -200 812 -200 c 0,7,8
 862 -200 862 -200 899 -173.5 c 128,-1,9
 936 -147 936 -147 936 -100 c 0,10,11
 936 -62 936 -62 917.5 -15 c 128,-1,12
 899 32 899 32 871.5 76.5 c 128,-1,13
 844 121 844 121 812 176 c 1,0,1
5 1493 m 25,14,-1
 397.1 1493 l 1,15,-1
 808 820 l 1,16,-1
 1232 1496 l 1,17,-1
 1624 1496 l 1,18,-1
 1008 500 l 1,19,20
 1058 420 1058 420 1106 336 c 128,-1,21
 1154 252 1154 252 1191.5 178 c 128,-1,22
 1229 104 1229 104 1252.5 26 c 128,-1,23
 1276 -52 1276 -52 1276 -120 c 0,24,25
 1276 -282 1276 -282 1169 -357 c 128,-1,26
 1062 -432 1062 -432 824 -432 c 0,27,28
 569 -432 569 -432 460.5 -362 c 128,-1,29
 352 -292 352 -292 352 -128 c 0,30,31
 352 -55 352 -55 374 24.5 c 128,-1,32
 396 104 396 104 439.5 189.5 c 128,-1,33
 483 275 483 275 520.5 337.5 c 128,-1,34
 558 400 558 400 616 488 c 1,35,-1
 5 1493 l 25,14,-1
EndSplineSet
EndChar
StartChar: uni0195
Encoding: 405 405 405
Width: 2140
Flags: W
TeX: 117 0 0 0
Fore
938 462 m 2,3,-1
 938 520 l 2,4,5
 938 667 938 667 931.5 722 c 128,-1,6
 925 777 925 777 909 803 c 0,7,8
 888 838 888 838 852 857.5 c 128,-1,9
 816 877 816 877 770 877 c 0,10,11
 658 877 658 877 594 790.5 c 128,-1,12
 530 704 530 704 530 551 c 2,13,-1
 530 0 l 1,14,-1
 172 0 l 1,15,-1
 172 1556 l 1,16,-1
 530 1556 l 1,17,-1
 530 956 l 1,18,19
 611 1054 611 1054 702 1100.5 c 128,-1,20
 793 1147 793 1147 903 1147 c 0,21,22
 1097 1147 1097 1147 1197.5 1028 c 128,-1,23
 1298 909 1298 909 1298 682 c 10,15,-1
 1298 462 l 2,16,17
 1298 314.318 1298 314.318 1324.5 262.5 c 0,18,19
 1339.59 233 1339.59 233 1395 233 c 2,20,-1
 1416 233 l 10,21,22
 1534 233 1534 233 1616 330 c 0,23,24
 1691 418 1691 418 1691 560 c 0,25,26
 1691 668 1691 668 1634 782 c 0,27,28
 1592 866 1592 866 1508 938 c 1,29,-1
 1508 1120 l 0,30,31
 1719 1120 1719 1120 1837 1027 c 24,0,1
 1919.16 962.25 1919.16 962.25 1989 835 c 0,2,3
 2048 727 2048 727 2048 569 c 0,4,5
 2048 315 2048 315 1895 158 c 0,6,7
 1741 0 1741 0 1498 0 c 2,8,-1
 1361 0 l 2,9,10
 1157.22 0 1157.22 0 1048 118 c 0,11,12
 938 238 938 238 938 462 c 2,3,-1
EndSplineSet
EndChar
StartChar: uni0196
Encoding: 406 406 406
Width: 892
Flags: W
TeX: 117 0 0 0
AnchorPoint: "above" 378 1520 basechar 0
Fore
188 1493 m 1,0,-1
 573 1493 l 1,1,-1
 573 555 l 2,2,3
 573 425 573 425 634.5 358 c 128,-1,4
 696 291 696 291 816 291 c 2,5,-1
 876 291 l 1,6,-1
 876 0 l 1,7,-1
 798 0 l 2,8,9
 491 0 491 0 339.5 138 c 128,-1,10
 188 276 188 276 188 555 c 2,11,-1
 188 1493 l 1,0,-1
EndSplineSet
EndChar
StartChar: uni0197
Encoding: 407 407 407
Width: 797
Flags: W
TeX: 117 0 0 0
AnchorPoint: "above" 378 1520 basechar 0
Fore
201 1493 m 1,0,-1
 586 1493 l 1,1,-1
 586 881 l 1,2,-1
 787 881 l 1,3,-1
 787 621 l 1,4,-1
 586 621 l 1,5,-1
 586 0 l 1,6,-1
 201 0 l 1,7,-1
 201 621 l 1,8,-1
 10 621 l 1,9,-1
 10 881 l 1,10,-1
 201 881 l 1,11,-1
 201 1493 l 1,0,-1
EndSplineSet
EndChar
StartChar: uni0198
Encoding: 408 408 408
Width: 1587
Flags: W
TeX: 117 0 0 0
AnchorPoint: "below" 881 0 basechar 0
AnchorPoint: "above" 670 1520 basechar 0
Fore
1228 1155.5 m 2,0,-1
 856 786 l 1,1,-1
 1649 0 l 1,2,-1
 1167 0 l 1,3,-1
 573 588 l 1,4,-1
 573 0 l 1,5,-1
 188 0 l 1,6,-1
 188 1493 l 1,7,-1
 573 1493 l 1,8,-1
 573 948 l 1,9,-1
 1057 1427 l 2,10,11
 1150.97 1520 1150.97 1520 1282 1520 c 0,12,13
 1417.07 1520 1417.07 1520 1508 1427 c 0,14,15
 1600 1332.86 1600 1332.86 1600 1203 c 2,16,-1
 1600 987 l 1,17,-1
 1360 987 l 1,18,-1
 1360 1100.5 l 2,19,20
 1360 1130.41 1360 1130.41 1343 1148.46 c 0,21,22
 1315.64 1177.5 1315.64 1177.5 1291.32 1177.5 c 0,23,24
 1250.15 1177.5 1250.15 1177.5 1228 1155.5 c 2,0,-1
EndSplineSet
EndChar
StartChar: uni0199
Encoding: 409 409 409
Width: 1362
Flags: W
TeX: 117 0 0 0
AnchorPoint: "above" 356 1520 basechar 0
Fore
530 709 m 1,0,-1
 942 1120 l 1,1,-1
 1358 1120 l 1,2,-1
 811 606 l 1,3,-1
 1401 0 l 1,4,-1
 967 0 l 1,5,-1
 530 467 l 1,6,-1
 530 0 l 1,7,-1
 172 0 l 1,8,-1
 172 1094 l 2,9,10
 172 1317 172 1317 282 1438 c 0,11,12
 390 1556 390 1556 595 1556 c 2,13,-1
 876 1556 l 1,14,-1
 876 1321 l 1,15,-1
 710 1321 l 2,16,17
 610 1321 610 1321 570 1275 c 128,-1,19
 530 1229 530 1229 530 1094 c 2,20,-1
 530 709 l 1,0,-1
EndSplineSet
EndChar
StartChar: uni019A
Encoding: 410 410 410
Width: 738
Flags: W
TeX: 117 0 0 0
AnchorPoint: "above" 377 1520 basechar 0
Fore
193 1556 m 1,0,-1
 551 1556 l 1,1,-1
 551 881 l 1,2,-1
 728 881 l 1,3,-1
 728 621 l 1,4,-1
 551 621 l 1,5,-1
 551 0 l 1,6,-1
 193 0 l 1,7,-1
 193 621 l 1,8,-1
 10 621 l 1,9,-1
 10 881 l 1,10,-1
 193 881 l 1,11,-1
 193 1556 l 1,0,-1
EndSplineSet
EndChar
StartChar: uni019B
Encoding: 411 411 411
Width: 1212
Flags: W
TeX: 117 0 0 0
AnchorPoint: "above" 601 1520 basechar 0
Fore
61 0 m 1,0,-1
 410 1020 l 1,1,-1
 333 1229 l 1,2,-1
 15 1128 l 1,3,-1
 -22 1257 l 1,4,-1
 287 1354 l 1,5,-1
 212 1556 l 1,6,-1
 570 1556 l 1,7,-1
 608 1455 l 1,8,-1
 936 1554 l 1,9,-1
 971 1425 l 1,10,-1
 655 1328 l 1,11,-1
 1151 0 l 1,12,-1
 793 0 l 1,13,-1
 601 514 l 1,14,-1
 419 0 l 1,15,-1
 61 0 l 1,0,-1
EndSplineSet
EndChar
StartChar: uni019C
Encoding: 412 412 412
Width: 2134
Flags: W
TeX: 117 0 0 0
Fore
932 186 m 1,0,1
 864 82 864 82 770 28 c 0,2,3
 677 -27 677 -27 565 -27 c 0,3,4
 383 -27 383 -27 271 92 c 0,5,6
 170 199 170 199 170 438 c 2,6,-1
 170 1493 l 1,7,-1
 530 1493 l 1,8,-1
 530 536 l 1,9,10
 529 523 529 523 528 509 c 0,11,12
 528 495 528 495 528 469 c 0,12,13
 528 350 528 350 563 296 c 0,14,15
 598 243 598 243 676 243 c 0,15,16
 778 243 778 243 834 327 c 0,17,18
 889 411 889 411 891 570 c 1,18,-1
 891 1493 l 1,19,-1
 1251 1493 l 1,20,-1
 1251 536 l 2,21,22
 1251 350 1251 350 1283 296 c 0,23,24
 1315 243 1315 243 1397 243 c 0,24,25
 1501 243 1501 243 1556 328 c 0,26,27
 1612 413 1612 413 1612 569 c 2,27,-1
 1612 1493 l 1,28,-1
 1972 1493 l 1,29,-1
 1972 0 l 1,30,-1
 1612 0 l 1,31,-1
 1612 164 l 1,32,33
 1546 69 1546 69 1460 21 c 0,34,35
 1375 -27 1375 -27 1272 -27 c 0,35,36
 1156 -27 1156 -27 1067 29 c 128,-1,37
 978 85 978 85 932 186 c 1,0,1
EndSplineSet
EndChar
StartChar: uni019D
Encoding: 413 413 413
Width: 1714
Flags: W
TeX: 117 0 0 0
AnchorPoint: "above" 879 1520 basechar 0
Fore
188 1493 m 1,0,-1
 618 1493 l 1,1,-1
 1161 469 l 1,2,-1
 1161 1493 l 1,3,-1
 1526 1493 l 1,4,-1
 1526 0 l 1,5,-1
 1096 0 l 1,6,-1
 553 1024 l 1,7,-1
 553 145 l 2,8,9
 553 -134 553 -134 401.5 -272 c 128,-1,10
 250 -410 250 -410 -57 -410 c 2,11,-1
 -115 -410 l 1,12,-1
 -115 -119 l 1,13,-1
 -55 -119 l 2,14,15
 65 -119 65 -119 126.5 -52 c 128,-1,16
 188 15 188 15 188 145 c 2,17,-1
 188 1493 l 1,0,-1
EndSplineSet
EndChar
StartChar: uni019F
Encoding: 415 415 415
Width: 1741
Flags: W
TeX: 117 0 0 0
Fore
870 1520 m 0,0,1
 1230 1520 1230 1520 1434 1314 c 128,-1,2
 1638 1108 1638 1108 1638 745 c 0,3,4
 1638 383 1638 383 1434 177 c 128,-1,5
 1230 -29 1230 -29 870 -29 c 0,6,7
 511 -29 511 -29 306 177 c 0,8,9
 102 383 102 383 102 745 c 0,10,11
 102 1108 102 1108 306 1314 c 0,12,13
 511 1520 511 1520 870 1520 c 0,0,1
870 1241 m 0,14,15
 694 1241 694 1241 597 1111 c 0,16,17
 518 1005 518 1005 503 829 c 1,18,-1
 1238 829 l 1,19,20
 1223 1005 1223 1005 1144 1111 c 0,21,22
 1047 1241 1047 1241 870 1241 c 0,14,15
516 571 m 1,23,24
 540 457 540 457 597 380 c 0,25,26
 694 250 694 250 870 250 c 0,27,28
 1047 250 1047 250 1144 380 c 0,29,30
 1201 457 1201 457 1225 571 c 1,31,-1
 516 571 l 1,23,24
EndSplineSet
EndChar
StartChar: uni01A2
Encoding: 418 418 418
Width: 2281
Flags: W
TeX: 117 0 0 0
Fore
870 1241 m 0,0,1
 694 1241 694 1241 597 1111 c 128,-1,3
 500 981 500 981 500 745 c 0,4,5
 500 510 500 510 597 380 c 128,-1,7
 694 250 694 250 870 250 c 0,8,9
 1047 250 1047 250 1144 380 c 1,10,-1
 1144 1111 l 1,11,12
 1047 1241 1047 1241 870 1241 c 0,0,1
1741 0 m 1,13,-1
 1741 938 l 2,14,15
 1741 1068 1741 1068 1680 1135 c 0,16,17
 1618 1202 1618 1202 1498 1202 c 2,18,-1
 1434 1202 l 1,19,-1
 1434 177 l 1,20,21
 1230 -29 1230 -29 870 -29 c 0,22,23
 511 -29 511 -29 306 177 c 0,24,25
 102 383 102 383 102 745 c 0,26,27
 102 1108 102 1108 306 1314 c 0,28,29
 511 1520 511 1520 870 1520 c 0,30,31
 1000 1520 1000 1520 1110 1493 c 2,32,-1
 1516 1493 l 2,33,34
 1826 1493 1826 1493 1974 1355 c 0,35,36
 2126 1215 2126 1215 2126 938 c 2,37,-1
 2126 0 l 1,38,-1
 1741 0 l 1,13,-1
EndSplineSet
EndChar
StartChar: uni01A3
Encoding: 419 419 419
Width: 1971
Flags: W
TeX: 117 0 0 0
Fore
705 891 m 0,0,1
 586 891 586 891 524 806 c 0,2,3
 461 720 461 720 461 559 c 128,-1,5
 461 398 461 398 524 312 c 0,6,7
 586 227 586 227 705 227 c 0,8,9
 822 227 822 227 884 312 c 1,10,-1
 884 806 l 1,11,12
 822 891 822 891 705 891 c 0,0,1
1407 -442 m 1,13,-1
 1407 658 l 2,14,15
 1407 793 1407 793 1369 839 c 128,-1,17
 1331 885 1331 885 1229 885 c 2,18,-1
 1156 885 l 1,19,-1
 1156 127 l 1,20,21
 994 -29 994 -29 705 -29 c 0,22,23
 415 -29 415 -29 252 127 c 0,24,25
 88 283 88 283 88 559 c 128,-1,27
 88 835 88 835 252 991 c 0,28,29
 415 1147 415 1147 705 1147 c 0,30,31
 825 1147 825 1147 924 1120 c 2,32,-1
 1344 1120 l 2,33,34
 1549 1120 1549 1120 1657 1002 c 0,35,36
 1765 883 1765 883 1765 658 c 2,37,-1
 1765 -442 l 1,38,-1
 1407 -442 l 1,13,-1
EndSplineSet
EndChar
StartChar: uni01A4
Encoding: 420 420 420
Width: 1601
Flags: W
TeX: 117 0 0 0
AnchorPoint: "above" 877 1520 basechar 0
Fore
673 1214 m 1,0,-1
 673 797 l 1,1,-1
 886 797 l 2,2,3
 998 797 998 797 1059 852 c 0,4,5
 1120 906 1120 906 1120 1006 c 128,-1,7
 1120 1106 1120 1106 1059 1160 c 128,-1,9
 998 1214 998 1214 886 1214 c 2,10,-1
 673 1214 l 1,0,-1
288 1231 m 1,11,12
 215 1231 215 1231 209 1230 c 0,13,14
 164 1226 164 1226 149 1210 c 0,15,16
 119 1176 119 1176 116 1126 c 0,17,18
 115 1112 115 1112 115 1079 c 1,19,-1
 -140 1079 l 1,20,-1
 -140 1156 l 2,21,22
 -140 1294 -140 1294 -92 1359 c 0,23,24
 -74 1383 -74 1383 -41 1412 c 0,25,26
 34 1475 34 1475 172 1488 c 0,27,28
 223 1493 223 1493 288 1493 c 2,29,-1
 927 1493 l 2,30,31
 1212 1493 1212 1493 1364 1366 c 0,32,33
 1517 1240 1517 1240 1517 1006 c 0,34,35
 1517 771 1517 771 1364 644 c 0,36,37
 1212 518 1212 518 927 518 c 2,38,-1
 673 518 l 1,39,-1
 673 0 l 1,40,-1
 288 0 l 1,41,-1
 288 1231 l 1,11,12
EndSplineSet
EndChar
StartChar: uni01A5
Encoding: 421 421 421
Width: 1466
Flags: W
TeX: 117 0 0 0
Fore
530 1198 m 2,0,-1
 530 956 l 1,1,2
 604 1054 604 1054 694 1100 c 0,3,4
 784 1147 784 1147 901 1147 c 0,5,6
 1108 1147 1108 1147 1241 982 c 0,7,8
 1374 818 1374 818 1374 559 c 128,-1,10
 1374 300 1374 300 1241 136 c 0,11,12
 1108 -29 1108 -29 901 -29 c 0,13,14
 784 -29 784 -29 694 18 c 0,15,16
 604 64 604 64 530 162 c 1,17,-1
 530 -426 l 1,18,-1
 172 -426 l 1,19,-1
 172 1198 l 2,20,21
 172 1366 172 1366 274 1468 c 0,22,23
 362 1556 362 1556 590 1556 c 2,24,-1
 864 1556 l 1,25,-1
 864 1321 l 1,26,-1
 666 1321 l 2,27,28
 590 1321 590 1321 560 1294 c 0,29,30
 530 1266 530 1266 530 1198 c 2,0,-1
768 887 m 128,-1,32
 653 887 653 887 592 802 c 0,33,34
 530 718 530 718 530 559 c 128,-1,36
 530 400 530 400 592 316 c 0,37,38
 653 231 653 231 768 231 c 128,-1,40
 883 231 883 231 944 315 c 0,41,42
 1004 399 1004 399 1004 559 c 128,-1,44
 1004 719 1004 719 944 803 c 0,45,46
 883 887 883 887 768 887 c 128,-1,32
EndSplineSet
EndChar
StartChar: uni01A6
Encoding: 422 422 422
Width: 1577
Flags: W
TeX: 117 0 0 0
Fore
735 573 m 2,0,1
 856 573 856 573 908.5 618 c 128,-1,2
 961 663 961 663 961 766 c 0,3,4
 961 868 961 868 908.5 912 c 128,-1,5
 856 956 856 956 735 956 c 2,6,-1
 573 956 l 1,7,-1
 573 573 l 1,8,-1
 735 573 l 2,0,1
573 307 m 1,9,-1
 573 0 l 1,10,-1
 188 0 l 1,11,-1
 188 1493 l 1,12,-1
 573 1493 l 1,0,0
 573 1235 l 1,0,0
 776 1235 l 2,13,14
 1071 1235 1071 1235 1208.5 1136 c 128,-1,15
 1346 1037 1346 1037 1346 823 c 0,16,17
 1346 675 1346 675 1274.5 580 c 128,-1,18
 1203 485 1203 485 1059 440 c 1,19,20
 1138 422 1138 422 1200.5 358.5 c 128,-1,21
 1263 295 1263 295 1327 166 c 2,22,-1
 1556 -299 l 1,23,-1
 1146 -299 l 1,24,-1
 944 113 l 2,25,26
 889 225 889 225 832.5 266 c 128,-1,27
 776 307 776 307 682 307 c 2,28,-1
 573 307 l 1,9,-1
EndSplineSet
EndChar
StartChar: uni01A7
Encoding: 423 423 423
Width: 1475
Flags: W
TeX: 117 0 0 0
AnchorPoint: "above" 703 1520 basechar 0
Fore
151 1446 m 1,0,1
 290 1483 290 1483 420 1502 c 0,2,3
 550 1520 550 1520 673 1520 c 0,4,5
 943 1520 943 1520 1087 1400 c 128,-1,6
 1231 1280 1231 1280 1231 1057 c 0,7,8
 1231 879 1231 879 1128 774 c 0,9,10
 1024 669 1024 669 800 621 c 2,11,-1
 651 588 l 2,12,13
 515 558 515 558 470 520 c 0,14,15
 424 482 424 482 424 412 c 0,16,17
 424 334 424 334 491 292 c 128,-1,18
 558 250 558 250 684 250 c 0,19,20
 808 250 808 250 942 288 c 0,21,22
 1075 327 1075 327 1218 403 c 1,23,-1
 1218 78 l 1,24,25
 1075 25 1075 25 932 -2 c 128,-1,26
 789 -29 789 -29 647 -29 c 0,27,28
 346 -29 346 -29 200 92 c 0,29,30
 53 212 53 212 53 459 c 0,31,32
 53 647 53 647 158 749 c 128,-1,33
 263 851 263 851 512 901 c 2,34,-1
 676 934 l 2,35,36
 793 958 793 958 838 992 c 0,37,38
 882 1025 882 1025 882 1085 c 0,39,40
 882 1165 882 1165 816 1203 c 128,-1,41
 750 1241 750 1241 612 1241 c 0,42,43
 508 1241 508 1241 391 1213 c 128,-1,44
 274 1185 274 1185 151 1130 c 1,45,-1
 151 1446 l 1,0,1
EndSplineSet
EndChar
StartChar: uni01A8
Encoding: 424 424 424
Width: 1219
Flags: W
TeX: 117 0 0 0
AnchorPoint: "above" 602 1147 basechar 0
Fore
106 1085 m 1,0,1
 234 1117 234 1117 343 1132 c 128,-1,2
 452 1147 452 1147 551 1147 c 0,3,4
 803 1147 803 1147 925 1061 c 128,-1,5
 1047 975 1047 975 1047 797 c 0,6,7
 1047 632 1047 632 951 551 c 128,-1,8
 855 470 855 470 616 440 c 2,9,-1
 553 432 l 2,10,11
 444 419 444 419 408 396 c 0,12,13
 371 372 371 372 371 324 c 0,14,15
 371 267 371 267 424 238 c 128,-1,16
 477 209 477 209 582 209 c 0,17,18
 698 209 698 209 810 235 c 0,19,20
 923 261 923 261 1030 313 c 1,21,-1
 1030 41 l 1,22,23
 905 6 905 6 786 -12 c 0,24,25
 668 -29 668 -29 557 -29 c 0,26,27
 295 -29 295 -29 163 61 c 128,-1,28
 31 151 31 151 31 330 c 0,29,30
 31 501 31 501 126 581 c 128,-1,31
 221 661 221 661 496 696 c 2,32,-1
 559 705 l 1,33,34
 656 716 656 716 694 739 c 0,35,36
 731 762 731 762 731 805 c 0,37,38
 731 858 731 858 682 884 c 0,39,40
 632 909 632 909 530 909 c 0,41,42
 435 909 435 909 328 885 c 128,-1,43
 221 861 221 861 106 813 c 1,44,-1
 106 1085 l 1,0,1
EndSplineSet
EndChar
StartChar: uni01AA
Encoding: 426 426 426
Width: 1130
Flags: W
TeX: 117 0 0 0
Fore
280 1556 m 2,31,32
 393 1556 l 2,30,-1
 580.149 1556 580.149 1556 706 1436 c 0,28,29
 811 1335.88 811 1335.88 811 1180 c 1,26,27
 982 1180 l 1,24,25
 982 968 l 1,23,-1
 814 968 l 1,22,-1
 814 -86 l 2,21,-1
 814 -154 814 -154 844 -182 c 0,19,20
 874 -209 874 -209 950 -209 c 2,17,18
 1148 -209 l 1,16,-1
 1148 -444 l 1,15,-1
 874 -444 l 2,14,-1
 660 -444 660 -444 558 -356 c 0,12,13
 456 -269 456 -269 456 -86 c 2,10,11
 456 968 l 1,9,-1
 247 968 l 1,8,-1
 -64 968 -64 968 -64 1245 c 0,6,7
 -64 1556 -64 1556 280 1556 c 2,31,32
451 1180 m 1,33,34
 442 1244 442 1244 418 1273 c 0,42,43
 380 1319 380 1319 278 1319 c 2,40,41
 235 1319 l 2,39,-1
 142 1319 142 1319 142 1254 c 0,37,38
 141.987 1180 141.987 1180 248 1180 c 2,35,36
 451 1180 l 1,33,34
EndSplineSet
EndChar
StartChar: uni01AB
Encoding: 427 427 427
Width: 979
Flags: W
TeX: 117 0 0 0
AnchorPoint: "above" 394 1520 basechar 0
Fore
563 1438 m 1,0,-1
 563 1120 l 1,1,-1
 932 1120 l 1,2,-1
 932 864 l 1,3,-1
 563 864 l 1,4,-1
 563 389 l 2,5,6
 563 311 563 311 594 284 c 0,7,8
 625 256 625 256 717 256 c 2,9,-1
 901 256 l 1,10,-1
 901 -0 l 2,11,12
 896 -210 896 -210 793 -324 c 0,13,14
 685 -442 685 -442 480 -442 c 2,15,-1
 303 -442 l 1,16,-1
 303 -207 l 1,17,-1
 365 -207 l 2,18,19
 467 -207 467 -207 505 -161 c 0,20,21
 540 -118 540 -118 543 1 c 1,22,23
 371 11 371 11 294 88 c 0,24,25
 205 177 205 177 205 389 c 2,26,-1
 205 864 l 1,27,-1
 27 864 l 1,28,-1
 27 1120 l 1,29,-1
 205 1120 l 1,30,-1
 205 1438 l 1,31,-1
 563 1438 l 1,0,-1
EndSplineSet
EndChar
StartChar: uni01AC
Encoding: 428 428 428
Width: 1447
Flags: W
TeX: 117 0 0 0
AnchorPoint: "below" 761 0 basechar 0
AnchorPoint: "above" 761 1520 basechar 0
Fore
436 1493 m 2,0,-1
 1436 1493 l 1,1,-1
 1436 1202 l 1,2,-1
 941 1202 l 1,3,-1
 941 0 l 1,4,-1
 556 0 l 1,5,-1
 556 1202 l 1,6,-1
 553 1202 l 2,7,8
 400 1202 400 1202 352 1164 c 0,9,10
 303 1126 303 1126 303 1021 c 2,11,-1
 303 972 l 1,12,-1
 30 972 l 1,13,-1
 30 1149 l 2,14,15
 30 1330 30 1330 126 1412 c 0,16,17
 222 1493 222 1493 436 1493 c 2,0,-1
EndSplineSet
EndChar
StartChar: uni01AD
Encoding: 429 429 429
Width: 979
Flags: W
TeX: 117 0 0 0
AnchorPoint: "above" 382 1520 basechar 0
AnchorPoint: "below" 382 0 basechar 0
Fore
563 1198 m 2,0,-1
 563 1120 l 1,1,-1
 932 1120 l 1,2,-1
 932 864 l 1,3,-1
 563 864 l 1,4,-1
 563 389 l 2,5,6
 563 311 563 311 594 283.5 c 128,-1,7
 625 256 625 256 717 256 c 2,8,-1
 901 256 l 1,9,-1
 901 0 l 1,10,-1
 594 0 l 2,11,12
 382 0 382 0 293.5 88.5 c 128,-1,13
 205 177 205 177 205 389 c 2,14,-1
 205 864 l 1,15,-1
 27 864 l 1,16,-1
 27 1120 l 1,17,-1
 205 1120 l 1,18,-1
 205 1198 l 2,19,20
 205 1381 205 1381 307 1468.5 c 128,-1,21
 409 1556 409 1556 623 1556 c 2,22,-1
 897 1556 l 1,23,-1
 897 1321 l 1,24,-1
 699 1321 l 2,25,26
 623 1321 623 1321 593 1293.5 c 128,-1,27
 563 1266 563 1266 563 1198 c 2,0,-1
EndSplineSet
EndChar
StartChar: uni01AE
Encoding: 430 430 430
Width: 1397
Flags: W
TeX: 117 0 0 0
AnchorPoint: "below" 698 -430 basechar 0
AnchorPoint: "above" 711 1520 basechar 0
Fore
10 1493 m 1,0,-1
 1386 1493 l 1,1,-1
 1386 1202 l 1,2,-1
 891 1202 l 1,3,-1
 891 145 l 2,4,5
 891 15 891 15 952.5 -52 c 128,-1,6
 1014 -119 1014 -119 1134 -119 c 2,7,-1
 1194 -119 l 1,8,-1
 1194 -410 l 1,9,-1
 1116 -410 l 2,10,11
 809 -410 809 -410 657.5 -272 c 128,-1,12
 506 -134 506 -134 506 145 c 2,13,-1
 506 1202 l 1,14,-1
 10 1202 l 1,15,-1
 10 1493 l 1,0,-1
EndSplineSet
EndChar
StartChar: uni01B1
Encoding: 433 433 433
Width: 1575
Flags: W
TeX: 117 0 0 0
Fore
1227 1224 m 1,0,-1
 1353 1103 1353 1103 1414 964 c 128,-1,39
 1475 825 1475 825 1475 661 c 0,36,37
 1475 348 1475 348 1287 160 c 0,34,35
 1099 -29 1099 -29 786 -29 c 0,32,33
 474 -29 474 -29 286 160 c 0,30,31
 98 348 98 348 98 661 c 0,28,29
 98 825 98 825 159 964 c 128,-1,27
 220 1103 220 1103 346 1224 c 1,24,25
 55 1224 l 1,23,-1
 55 1480 l 1,22,-1
 664 1480 l 1,21,-1
 664 1189 l 1,20,-1
 538 1104 538 1104 472 972 c 0,18,19
 406 839 406 839 406 675 c 0,16,17
 406 472 406 472 508 356 c 0,14,15
 609 239 609 239 786 239 c 0,12,13
 964 239 964 239 1066 356 c 0,10,11
 1167 472 1167 472 1167 675 c 0,8,9
 1167 840 1167 840 1101 972 c 0,6,7
 1035 1103 1035 1103 909 1189 c 1,4,5
 909 1480 l 1,3,-1
 1518 1480 l 1,2,-1
 1518 1224 l 1,1,-1
 1227 1224 l 1,0,-1
EndSplineSet
EndChar
StartChar: uni01B2
Encoding: 434 434 434
Width: 1666
Flags: W
TeX: 117 0 0 0
AnchorPoint: "above" 378 1520 basechar 0
Fore
876 0 m 0,32,33
 798 0 l 2,8,9
 491 0 491 0 340 138 c 0,10,11
 188 276 188 276 188 555 c 2,12,-1
 188 1493 l 1,13,-1
 573 1493 l 1,0,-1
 573 555 l 2,1,2
 573 425 573 425 634 358 c 0,3,4
 696 291 696 291 816 291 c 2,5,-1
 876 291 l 0,12,13
 1054 291 1054 291 1156 408 c 0,10,11
 1273 542 1273 542 1273 675 c 0,8,9
 1273 878 1273 878 1207 972 c 0,6,7
 1092 1134 1092 1134 924 1229 c 1,4,5
 924 1374 l 1,3,-1
 1194 1374 l 1,0,-1
 1384 1237 1384 1237 1520 964 c 0,38,39
 1581 841 1581 841 1581 661 c 0,36,37
 1581 408 1581 408 1377 212 c 0,34,35
 1157 -0 1157 -0 876 0 c 0,32,33
EndSplineSet
EndChar
StartChar: uni01B3
Encoding: 435 435 435
Width: 1633
Flags: W
TeX: 117 0 0 0
AnchorPoint: "above" 739 1527 basechar 0
Fore
1218 1061 m 2,0,-1
 934 629 l 1,1,-1
 934 0 l 1,2,-1
 549 0 l 1,3,-1
 549 629 l 1,4,-1
 -20 1493 l 1,5,-1
 401 1493 l 1,6,-1
 741 961 l 1,7,-1
 960 1303 l 2,8,9
 1098.96 1520 1098.96 1520 1312 1520 c 0,10,11
 1447.07 1520 1447.07 1520 1538 1427 c 0,12,13
 1630 1332.86 1630 1332.86 1630 1203 c 2,14,-1
 1630 987 l 1,15,-1
 1390 987 l 1,16,-1
 1390 1056 l 2,17,18
 1390 1085.91 1390 1085.91 1373 1103.96 c 0,19,20
 1345.64 1133 1345.64 1133 1321.32 1133 c 0,21,22
 1265.33 1133 1265.33 1133 1218 1061 c 2,0,-1
EndSplineSet
EndChar
StartChar: uni01B4
Encoding: 436 436 436
Width: 1594
Flags: W
TeX: 117 0 0 0
AnchorPoint: "above" 661 1147 basechar 0
AnchorPoint: "below" 661 -430 basechar 0
Fore
1594 646 m 17,0,-1
 1350.67 646 l 1,1,-1
 1350.67 706 l 1,2,3
 1350.67 739 1350.67 739 1337.23 767.5 c 128,-1,4
 1323.78 796 1323.78 796 1300.55 812.5 c 128,-1,5
 1277.33 829 1277.33 829 1250.02 829 c 129,-1,6
 1222.72 829 1222.72 829 1199.9 812 c 0,7,8
 1174.63 794 1174.63 794 1163.22 767 c 0,9,10
 1157.52 752 1157.52 752 1151 737 c 18,11,-1
 827 -106 l 2,12,13
 754.631 -294.294 754.631 -294.294 662 -368 c 0,14,15
 567 -442 567 -442 412 -442 c 2,16,-1
 205 -442 l 1,17,-1
 205 -207 l 1,18,-1
 317 -207 l 2,19,20
 408 -207 408 -207 450 -178 c 0,21,22
 489.63 -149.548 489.63 -149.548 514 -74 c 2,23,-1
 524 -43 l 1,24,-1
 25 1120 l 1,25,-1
 383 1120 l 1,26,-1
 684 360 l 1,27,-1
 874 924 l 10,28,29
 949.124 1147 949.124 1147 1220 1147 c 0,30,31
 1321 1147 1321 1147 1407 1097 c 128,-1,32
 1493 1047 1493 1047 1543.5 961 c 128,-1,33
 1594 875 1594 875 1594 773 c 1,34,-1
 1594 646 l 17,0,-1
EndSplineSet
EndChar
StartChar: uni01B5
Encoding: 437 437 437
Width: 1485
Flags: W
TeX: 117 0 0 0
AnchorPoint: "above" 717 1520 basechar 0
Fore
115 1493 m 1,0,-1
 1370 1493 l 1,1,-1
 1370 1260 l 1,2,-1
 1057 881 l 1,3,-1
 1251 881 l 1,4,-1
 1251 621 l 1,5,-1
 842 621 l 1,6,-1
 569 291 l 1,7,-1
 1393 291 l 1,8,-1
 1393 0 l 1,9,-1
 92 0 l 1,10,-1
 92 233 l 1,11,-1
 413 621 l 1,12,-1
 234 621 l 1,13,-1
 234 881 l 1,14,-1
 628 881 l 1,15,-1
 893 1202 l 1,16,-1
 115 1202 l 1,17,-1
 115 1493 l 1,0,-1
EndSplineSet
EndChar
StartChar: uni01B6
Encoding: 438 438 438
Width: 1192
Flags: W
TeX: 117 0 0 0
AnchorPoint: "above" 596 1147 basechar 0
Fore
117 1120 m 1,0,-1
 1094 1120 l 1,1,-1
 1094 870 l 1,2,-1
 913 682 l 1,3,-1
 1037 682 l 1,4,-1
 1037 461 l 1,5,-1
 701 461 l 1,6,-1
 504 256 l 1,7,-1
 1094 256 l 1,8,-1
 1094 0 l 1,9,-1
 92 0 l 1,10,-1
 92 250 l 1,11,-1
 295 461 l 1,12,-1
 178 461 l 1,13,-1
 178 682 l 1,14,-1
 507 682 l 1,15,-1
 682 864 l 1,16,-1
 117 864 l 1,17,-1
 117 1120 l 1,0,-1
EndSplineSet
EndChar
StartChar: uni01B7
Encoding: 439 439 439
Width: 1582
Flags: W
TeX: 117 0 0 0
Fore
784 195 m 8,0,1
 942 195 942 195 1024 248 c 0,2,3
 1105 301 1105 301 1105 400 c 0,3,4
 1105 502 1105 502 1022 554 c 0,5,6
 938 607 938 607 775 607 c 2,6,-1
 588 607 l 1,7,-1
 588 852 l 1,8,-1
 893 1202 l 1,9,-1
 148 1202 l 1,10,-1
 148 1493 l 1,11,-1
 1370 1493 l 1,12,-1
 1370 1243 l 1,13,-1
 985 809 l 1,14,15
 1118 798 1118 798 1200 777 c 0,16,17
 1326 744 1326 744 1412 632 c 0,18,19
 1490 529 1490 529 1490 386 c 0,20,21
 1490 164 1490 164 1320 48 c 0,22,23
 1150 -67 1150 -67 787 -67 c 16,23,24
 632 -67 632 -67 477 -37 c 0,25,26
 322 -6 322 -6 170 55 c 1,26,-1
 170 345 l 1,27,28
 326 271 326 271 481 233 c 0,29,30
 635 195 635 195 784 195 c 8,0,1
EndSplineSet
EndChar
StartChar: uni01B8
Encoding: 440 440 440
Width: 1582
Flags: W
TeX: 117 0 0 0
Fore
790 195 m 16,0,1
 939 195 939 195 1093 233 c 0,2,3
 1248 271 1248 271 1404 345 c 1,27,28
 1404 55 l 1,26,-1
 1252 -6 1252 -6 1097 -37 c 0,27,28
 942 -67 942 -67 787 -67 c 8,23,24
 424 -67 424 -67 254 48 c 0,25,26
 84 164 84 164 84 386 c 0,20,21
 84 529 84 529 162 632 c 0,18,19
 248 744 248 744 374 777 c 0,16,17
 456 798 456 798 589 809 c 1,14,15
 204 1243 l 1,13,-1
 204 1493 l 1,12,-1
 1426 1493 l 1,11,-1
 1426 1202 l 1,10,-1
 681 1202 l 1,9,-1
 986 852 l 1,8,-1
 986 607 l 1,7,-1
 799 607 l 2,6,-1
 636 607 636 607 552 554 c 0,7,8
 469 502 469 502 469 400 c 0,3,4
 469 301 469 301 550 248 c 0,5,6
 632 195 632 195 790 195 c 16,0,1
EndSplineSet
EndChar
StartChar: uni01B9
Encoding: 441 441 441
Width: 1312
Flags: W
TeX: 117 0 0 0
AnchorPoint: "above" 700 1147 basechar 0
Fore
978 479 m 1,0,-1
 978 234 l 1,1,-1
 791 234 l 2,2,3
 628 234 628 234 544 182 c 0,4,5
 461 129 461 129 461 27 c 0,6,7
 461 -72 461 -72 542 -125 c 0,8,9
 624 -178 624 -178 777 -178 c 0,10,11
 880 -178 880 -178 986 -150 c 0,12,13
 1093 -123 1093 -123 1201 -69 c 1,14,-1
 1201 -366 l 1,15,16
 1088 -403 1088 -403 972 -422 c 0,17,18
 857 -440 857 -440 742 -440 c 0,19,20
 416 -440 416 -440 246 -324 c 0,21,22
 76 -209 76 -209 76 13 c 0,23,24
 76 156 76 156 154 258 c 0,25,26
 240 371 240 371 366 404 c 0,27,28
 452 427 452 427 614 436 c 1,29,-1
 196 870 l 1,30,-1
 196 1120 l 1,31,-1
 1173 1120 l 1,32,-1
 1173 864 l 1,33,-1
 608 864 l 1,34,-1
 978 479 l 1,0,-1
EndSplineSet
EndChar
StartChar: uni01BA
Encoding: 442 442 442
Width: 1192
Flags: W
TeX: 117 0 0 0
Fore
783 546 m 17,0,0
 894 529 894 529 972 481 c 0,1,2
 1088 409 1088 409 1088 261 c 0,34,35
 1088 123 1088 123 996 56 c 0,36,37
 907 -9 907 -9 678 -36 c 2,31,32
 618 -43 l 2,30,-1
 513 -55 513 -55 480 -73 c 0,31,32
 445 -92 445 -92 445 -132 c 0,27,28
 445 -180 445 -180 496 -204 c 0,29,30
 546 -228 546 -228 646 -228 c 0,24,25
 756 -228 756 -228 863 -206 c 0,26,27
 970 -185 970 -185 1071 -142 c 1,21,22
 1071 -368 l 1,20,-1
 944 -399 944 -399 841 -412 c 0,21,22
 728 -426 728 -426 622 -426 c 0,17,18
 376 -426 376 -426 248 -351 c 0,19,20
 122 -277 122 -277 122 -127 c 0,14,15
 122 14 122 14 213 81 c 0,16,17
 290 138 290 138 564 175 c 2,11,12
 624 183 l 2,10,-1
 724 196 724 196 751 210 c 0,11,12
 787 228 787 228 787 266 c 0,7,8
 787 311 787 311 740 331 c 0,9,10
 690 352 690 352 442 352 c 10,4,5
 190 352 l 17,24,-1
 682 864 l 1,25,-1
 117 864 l 1,26,-1
 117 1120 l 1,27,-1
 1094 1120 l 1,28,-1
 1094 870 l 1,29,-1
 783 546 l 17,0,0
EndSplineSet
EndChar
StartChar: uni01BB
Encoding: 443 443 443
Width: 1425
Flags: W
TeX: 117 0 0 0
Fore
590 283 m 1,0,-1
 1247 283 l 1,1,-1
 1247 0 l 1,2,-1
 162 0 l 1,3,-1
 162 283 l 1,4,-1
 460 546 l 1,5,-1
 234 546 l 1,6,-1
 234 806 l 1,7,-1
 750 806 l 1,8,9
 791 850 791 850 815 893 c 0,10,11
 850 956 850 956 850 1024 c 0,12,13
 850 1129 850 1129 780 1193 c 0,14,15
 709 1257 709 1257 592 1257 c 0,16,17
 502 1257 502 1257 395 1218 c 0,18,19
 288 1180 288 1180 166 1104 c 1,20,-1
 166 1432 l 1,21,22
 296 1475 296 1475 423 1498 c 0,23,24
 550 1520 550 1520 672 1520 c 0,25,26
 940 1520 940 1520 1088 1402 c 0,27,28
 1237 1284 1237 1284 1237 1073 c 0,29,30
 1237 951 1237 951 1174 846 c 0,31,32
 1163 827 1163 827 1147 806 c 1,33,-1
 1174 806 l 1,34,-1
 1174 546 l 1,35,-1
 890 546 l 1,36,-1
 590 283 l 1,0,-1
EndSplineSet
EndChar
StartChar: uni01BC
Encoding: 444 444 444
Width: 1582
Flags: W
TeX: 117 0 0 0
Fore
188 607 m 1,0,-1
 188 852 l 1,1,-1
 188 1493 l 1,2,-1
 1249 1493 l 1,3,-1
 1249 1202 l 1,4,-1
 573 1202 l 1,5,-1
 573 852 l 1,6,-1
 792 852 l 2,7,8
 1047 852 1047 852 1216 792 c 0,9,10
 1329 752 1329 752 1412 632 c 0,11,12
 1490 517 1490 517 1490 386 c 0,13,14
 1490 164 1490 164 1320 48 c 0,15,16
 1150 -67 1150 -67 787 -67 c 0,17,18
 406 -67 406 -67 254 48 c 0,19,20
 84 178 84 178 84 400 c 1,21,-1
 469 400 l 1,22,23
 469 301 469 301 550 248 c 0,24,25
 632 195 632 195 785 195 c 0,26,27
 942 195 942 195 1024 248 c 0,28,29
 1105 301 1105 301 1105 400 c 0,30,31
 1105 502 1105 502 1022 554 c 0,32,33
 938 607 938 607 775 607 c 2,34,-1
 573 607 l 1,35,-1
 188 607 l 1,0,-1
EndSplineSet
EndChar
StartChar: uni01BD
Encoding: 445 445 445
Width: 1312
Flags: W
TeX: 117 0 0 0
Fore
172 234 m 1,0,-1
 172 479 l 1,1,-1
 172 1120 l 1,2,-1
 1021 1120 l 1,3,-1
 1021 899 l 1,4,-1
 530 899 l 1,5,-1
 530 479 l 1,6,-1
 536 479 l 2,7,8
 779 479 779 479 888 432 c 0,9,10
 1050 362 1050 362 1122 258 c 0,11,12
 1201 143 1201 143 1201 13 c 0,13,14
 1201 -209 1201 -209 1031 -324 c 0,15,16
 861 -440 861 -440 535 -440 c 0,17,18
 420 -440 420 -440 304 -422 c 0,19,20
 189 -403 189 -403 76 -366 c 1,21,-1
 76 -69 l 1,22,23
 184 -123 184 -123 290 -150 c 0,24,25
 397 -178 397 -178 500 -178 c 0,26,27
 653 -178 653 -178 734 -125 c 0,28,29
 816 -72 816 -72 816 27 c 0,30,31
 816 129 816 129 732 182 c 0,32,33
 649 234 649 234 486 234 c 2,34,-1
 172 234 l 1,0,-1
EndSplineSet
EndChar
StartChar: uni01BE
Encoding: 446 446 446
Width: 1173
Flags: W
TeX: 117 0 0 0
Fore
272 789 m 1,0,-1
 272 1096 l 1,1,-1
 115 1096 l 1,2,-1
 115 1290 l 1,3,-1
 272 1290 l 1,4,-1
 272 1438 l 1,5,-1
 630 1438 l 1,6,-1
 630 1290 l 1,7,-1
 888 1290 l 1,8,-1
 888 1096 l 1,9,-1
 630 1096 l 1,10,-1
 630 1029 l 1,11,12
 818 998 818 998 920 904 c 0,13,14
 1075 759 1075 759 1075 528 c 0,15,16
 1075 313 1075 313 943 180 c 0,17,18
 734 -30 734 -30 493 -30 c 0,19,20
 312 -30 312 -30 231 -12 c 0,21,22
 150 5 150 5 74 40 c 1,23,-1
 74 338 l 1,24,25
 152 295 152 295 230 274 c 0,26,27
 309 252 309 252 389 252 c 0,28,29
 568 252 568 252 667 366 c 0,30,31
 724 432 724 432 725 528 c 0,32,33
 725 599 725 599 668 675 c 0,34,35
 582 789 582 789 365 789 c 2,36,-1
 272 789 l 1,0,-1
EndSplineSet
EndChar
StartChar: uni01BF
Encoding: 447 447 447
Width: 1466
Flags: W
TeX: 117 0 0 0
Fore
530 -132 m 1,1,-1
 530 -426 l 1,2,-1
 172 -426 l 1,3,-1
 172 1120 l 1,4,-1
 530 1120 l 1,5,-1
 530 955 l 1,6,7
 617 1066 617 1066 703 1103 c 0,8,9
 808 1147 808 1147 1001 1147 c 0,10,11
 1205 1147 1205 1147 1283 1035 c 0,12,13
 1374 908 1374 908 1374 769 c 0,14,15
 1374 349 1374 349 530 -132 c 1,1,-1
530 145 m 17,17,18
 1004 479 1004 479 1004 643 c 0,19,20
 1004 756 1004 756 947 822 c 0,21,22
 891 887 891 887 765 887 c 0,23,24
 677 887 677 887 530 684 c 1,25,26
 530 145 l 17,17,18
EndSplineSet
EndChar
StartChar: uni01C0
Encoding: 448 448 448
Width: 762
Flags: W
TeX: 117 0 0 0
Fore
188 1493 m 1,0,-1
 573 1493 l 1,1,-1
 573 -426 l 1,2,-1
 188 -426 l 1,3,-1
 188 1493 l 1,0,-1
EndSplineSet
EndChar
StartChar: uni01C2
Encoding: 450 450 450
Width: 1114
Flags: W
TeX: 117 0 0 0
Fore
361 1493 m 1,0,-1
 746 1493 l 1,1,-1
 746 933 l 1,2,-1
 1097 933 l 1,3,-1
 1097 698 l 1,4,-1
 746 698 l 1,5,-1
 746 478 l 1,6,-1
 1097 478 l 1,7,-1
 1097 241 l 1,8,-1
 746 241 l 1,9,-1
 746 -426 l 1,10,-1
 361 -426 l 1,11,-1
 361 241 l 1,12,-1
 10 241 l 1,13,-1
 10 478 l 1,14,-1
 361 478 l 1,15,-1
 361 698 l 1,16,-1
 10 698 l 1,17,-1
 10 933 l 1,18,-1
 361 933 l 1,19,-1
 361 1493 l 1,0,-1
EndSplineSet
EndChar
StartChar: uni01E4
Encoding: 484 484 484
Width: 1681
Flags: W
Fore
1530 388 m 1,0,-1
 1530 111 l 1,1,2
 1386 41 1386 41 1231 6 c 128,-1,3
 1076 -29 1076 -29 911 -29 c 0,4,5
 538 -29 538 -29 320 180 c 0,6,7
 102 388 102 388 102 745 c 0,7,8
 102 1106 102 1106 324 1313 c 128,-1,9
 546 1520 546 1520 932 1520 c 0,10,11
 1081 1520 1081 1520 1218 1492 c 0,12,13
 1354 1464 1354 1464 1475 1409 c 1,13,-1
 1475 1100 l 1,14,15
 1350 1171 1350 1171 1226 1206 c 0,16,17
 1103 1241 1103 1241 979 1241 c 0,17,18
 749 1241 749 1241 624 1112 c 0,19,20
 500 984 500 984 500 745 c 0,20,21
 500 508 500 508 620 379 c 128,-1,22
 740 250 740 250 961 250 c 0,23,24
 1021 250 1021 250 1072 258 c 0,25,26
 1124 265 1124 265 1165 281 c 1,26,-1
 1165 388 l 1,27,-1
 1016 388 l 1,28,-1
 1016 462 l 1,29,-1
 1165 462 l 1,30,-1
 1165 571 l 1,31,-1
 930 571 l 1,32,-1
 930 829 l 1,33,-1
 1530 829 l 1,34,-1
 1530 462 l 1,35,-1
 1621 462 l 1,36,-1
 1621 388 l 1,37,-1
 1530 388 l 1,0,-1
EndSplineSet
EndChar
StartChar: uni01E5
Encoding: 485 485 485
Width: 1466
Flags: W
Fore
698 887 m 0,0,1
 587 887 587 887 525 805 c 128,-1,2
 463 723 463 723 463 573 c 0,3,4
 463 419 463 419 523 340 c 0,5,6
 583 260 583 260 698 260 c 0,6,7
 810 260 810 260 872 342 c 128,-1,8
 934 424 934 424 934 573 c 0,9,10
 934 723 934 723 872 805 c 128,-1,11
 810 887 810 887 698 887 c 0,0,1
905 -50 m 1,12,13
 934 16 934 16 934 113 c 2,14,-1
 934 190 l 1,15,16
 860 92 860 92 771 46 c 128,-1,17
 682 0 682 0 565 0 c 0,18,19
 360 0 360 0 226 162 c 0,20,21
 92 323 92 323 92 573 c 0,21,22
 92 824 92 824 226 984 c 0,23,24
 360 1145 360 1145 565 1145 c 0,24,25
 682 1145 682 1145 771 1099 c 128,-1,26
 860 1053 860 1053 934 954 c 1,27,-1
 934 1120 l 1,28,-1
 1294 1120 l 1,29,-1
 1294 113 l 2,30,31
 1294 24 1294 24 1276 -51 c 1,32,-1
 1381 -51 l 1,33,-1
 1381 -140 l 1,34,-1
 1245 -140 l 1,35,36
 1203 -233 1203 -233 1124 -299 c 0,37,38
 953 -442 953 -442 629 -442 c 0,39,40
 524 -442 524 -442 426 -426 c 128,-1,41
 328 -410 328 -410 229 -377 c 1,42,-1
 229 -98 l 1,43,44
 323 -152 323 -152 413 -178 c 0,45,46
 503 -205 503 -205 594 -205 c 0,46,47
 756 -205 756 -205 838 -139 c 1,48,-1
 507 -140 l 1,49,-1
 507 -51 l 1,50,-1
 905 -50 l 1,12,13
EndSplineSet
EndChar
StartChar: uni01F6
Encoding: 502 502 502
Width: 2639
Flags: W
TeX: 117 0 0 0
Fore
1141 924 m 1,0,-1
 1141 1493 l 1,1,-1
 1526 1493 l 1,2,-1
 1526 598 l 2,3,4
 1526 413 1526 413 1586 334 c 0,5,6
 1647 254 1647 254 1784 254 c 0,7,8
 1922 254 1922 254 1982 334 c 0,9,10
 2043 413 2043 413 2043 598 c 2,11,-1
 2043 1120 l 1,12,-1
 2428 1120 l 1,13,-1
 2428 598 l 2,14,15
 2428 281 2428 281 2269 126 c 128,-1,17
 2110 -29 2110 -29 1784 -29 c 0,18,19
 1460 -30 1460 -30 1300 126 c 0,20,21
 1141 281 1141 281 1141 598 c 2,22,-1
 1141 633 l 1,23,-1
 573 633 l 1,24,-1
 573 0 l 1,25,-1
 188 0 l 1,26,-1
 188 1493 l 1,27,-1
 573 1493 l 1,28,-1
 573 924 l 1,29,-1
 1141 924 l 1,0,-1
EndSplineSet
EndChar
StartChar: uni01F7
Encoding: 503 503 503
Width: 1612
VWidth: 2216
Flags: W
TeX: 117 0 0 0
Fore
582 113 m 1,1,-1
 582 -426 l 1,2,-1
 188 -426 l 1,3,-1
 188 1493 l 1,4,-1
 582 1493 l 1,5,-1
 582 1308 l 1,6,7
 675 1428 675 1428 772 1471 c 0,8,9
 884 1520 884 1520 1100 1520 c 0,10,11
 1324 1520 1324 1520 1410 1396 c 0,12,13
 1510 1254 1510 1254 1510 1104 c 0,14,15
 1510 642 1510 642 582 113 c 1,1,-1
582 417 m 17,16,17
 1103 785 1103 785 1103 965 c 0,18,19
 1103 1089 1103 1089 1040 1162 c 0,20,21
 979 1234 979 1234 840 1234 c 0,22,23
 743 1234 743 1234 582 1010 c 1,24,-1
 582 417 l 17,16,17
EndSplineSet
EndChar
StartChar: uni021C
Encoding: 540 540 540
Width: 1414
Flags: W
TeX: 117 0 0 0
Fore
137 -147 m 1,0,1
 294 -112 294 -112 509 -25 c 0,2,3
 666 39 666 39 774 132 c 0,4,5
 862 207 862 207 862 300 c 0,6,7
 862 389 862 389 796 444 c 0,8,9
 731 498 731 498 646 498 c 0,10,11
 590 498 590 498 526 473 c 2,12,-1
 310 388 l 1,13,-1
 310 642 l 1,14,-1
 544 737 l 2,15,16
 689 796 689 796 770 880 c 0,17,18
 841 954 841 954 841 1066 c 0,19,20
 841 1160 841 1160 768 1207 c 0,21,22
 693 1256 693 1256 590 1256 c 0,23,24
 510 1256 510 1256 394 1208 c 0,25,26
 312 1174 312 1174 201 1100 c 1,27,28
 201 1356 l 1,29,30
 323 1424 323 1424 416 1464 c 0,31,32
 545 1520 545 1520 676 1520 c 0,33,34
 921 1520 921 1520 1064 1416 c 0,35,36
 1227 1298 1227 1298 1227 1133 c 0,37,38
 1227 967 1227 967 1156 864 c 0,39,40
 1075 747 1075 747 944 674 c 1,41,42
 1091 655 1091 655 1173 546 c 0,43,44
 1262 427 1262 427 1262 311 c 0,45,46
 1262 132 1262 132 1023 -46 c 0,47,48
 863 -165 863 -165 555 -298 c 0,49,50
 344 -389 344 -389 137 -430 c 1,51,-1
 137 -147 l 1,0,1
EndSplineSet
EndChar
StartChar: uni021D
Encoding: 541 541 541
Width: 1244
Flags: W
TeX: 117 0 0 0
Fore
101 -204 m 1,0,1
 254 -173 254 -173 436 -105 c 0,2,3
 581 -50 581 -50 675 22 c 0,4,5
 754 83 754 83 754 159 c 0,6,7
 754 231 754 231 694 275 c 0,8,9
 636 319 636 319 559 319 c 0,10,11
 507 319 507 319 451 299 c 2,12,-1
 257 230 l 1,13,-1
 257 436 l 1,14,-1
 468 513 l 2,15,16
 593 559 593 559 671 628 c 0,17,18
 735 686 735 686 735 779 c 0,19,20
 735 854 735 854 669 893 c 0,21,22
 602 933 602 933 509 933 c 0,23,24
 437 933 437 933 333 894 c 0,25,26
 258 866 258 866 159 807 c 1,27,-1
 159 1014 l 1,28,29
 249 1060 249 1060 352 1101 c 0,30,31
 468 1147 468 1147 586 1147 c 0,32,33
 807 1147 807 1147 936 1063 c 0,34,35
 1082 967 1082 967 1082 833 c 128,-1,36
 1082 699 1082 699 1018 615 c 0,37,38
 945 520 945 520 828 461 c 1,39,40
 961 446 961 446 1034 358 c 0,41,42
 1114 261 1114 261 1114 167 c 0,43,44
 1114 21 1114 21 899 -122 c 0,45,46
 751 -221 751 -221 477 -326 c 0,47,48
 287 -399 287 -399 101 -433 c 1,49,-1
 101 -204 l 1,0,1
EndSplineSet
EndChar
StartChar: uni0220
Encoding: 544 544 544
Width: 1714
Flags: W
TeX: 117 0 0 0
Fore
1135 691 m 18,0,1
 1135 873 1135 873 1124 956 c 0,2,3
 1115 1029 1115 1029 1090 1064 c 0,4,5
 1057 1110 1057 1110 1002 1136 c 0,6,7
 946 1162 946 1162 875 1162 c 0,8,9
 718 1162 718 1162 629 1047 c 128,-1,10
 540 932 540 932 540 730 c 2,11,-1
 540 0 l 1,12,-1
 172 0 l 1,13,-1
 172 1493 l 1,14,-1
 544 1493 l 1,15,-1
 544 1266 l 1,16,17
 655 1401 655 1401 768 1459 c 0,18,19
 887 1520 887 1520 1032 1520 c 0,20,21
 1259 1520 1259 1520 1378 1362 c 0,22,23
 1496 1204 1496 1204 1496 903 c 2,24,-1
 1496 -426 l 1,25,-1
 1135 -426 l 9,26,-1
 1135 691 l 18,0,1
EndSplineSet
EndChar
StartChar: uni0221
Encoding: 545 545 545
Width: 1771
Flags: W
TeX: 117 0 0 0
AnchorPoint: "above" 1114 1520 basechar 0
AnchorPoint: "below" 729 0 basechar 0
Fore
1392 230 m 0,0,1
 1526 230 1526 230 1524 319 c 0,2,3
 1524 344 1524 344 1497 344 c 0,4,5
 1422 344 1422 344 1380 293 c 2,6,-1
 1343 246 l 1,7,8
 1365 230 1365 230 1392 230 c 0,0,1
698 231 m 0,9,10
 813 231 813 231 874 315 c 0,11,12
 934 399 934 399 934 559 c 128,-1,13
 934 719 934 719 874 803 c 0,14,15
 813 887 813 887 698 887 c 0,16,17
 584 887 584 887 524 803 c 0,18,19
 463 719 463 719 463 559 c 128,-1,20
 463 399 463 399 524 315 c 0,21,22
 584 231 584 231 698 231 c 0,9,10
1294 514 m 9,23,24
 1370 606 1370 606 1476 606 c 0,25,26
 1570 606 1570 606 1621 550 c 0,27,28
 1685 481 1685 481 1683 327 c 0,29,30
 1683 167 1683 167 1617 80 c 0,31,32
 1540 -25 1540 -25 1374 -26 c 0,33,34
 1283 -26 1283 -26 1212 0 c 17,35,36
 1176 -74 1176 -74 1146 -154 c 25,37,-1
 982 -82 l 17,38,39
 1002 -27 1002 -27 1048 86 c 17,40,41
 1032 100 1032 100 1020 118 c 1,42,43
 975 50 975 50 905 15 c 0,44,45
 817 -29 817 -29 565 -29 c 0,46,47
 358 -29 358 -29 225 136 c 0,48,49
 92 300 92 300 92 559 c 128,-1,50
 92 818 92 818 225 982 c 0,51,52
 358 1147 358 1147 565 1147 c 0,53,54
 681 1147 681 1147 770 1100 c 0,55,56
 860 1054 860 1054 934 956 c 1,57,-1
 934 1556 l 1,58,-1
 1294 1556 l 1,59,-1
 1294 514 l 9,23,24
EndSplineSet
EndChar
StartChar: uni0222
Encoding: 546 546 546
Width: 1657
Flags: W
TeX: 117 0 0 0
Fore
830 668 m 0,0,1
 669 668 669 668 582 609 c 0,2,3
 494 550 494 550 494 440 c 128,-1,4
 494 330 494 330 582 272 c 0,5,6
 669 213 669 213 830 213 c 0,6,7
 992 213 992 213 1077 272 c 0,8,9
 1162 330 1162 330 1162 440 c 0,9,10
 1162 551 1162 551 1077 610 c 0,11,12
 992 668 992 668 830 668 c 0,0,1
890 1346 m 9,0,0
 890 1519 l 1,0,0
 1171 1511 1171 1511 1325 1422 c 0,1,2
 1494 1323 1494 1323 1494 1133 c 0,21,22
 1494 1006 1494 1006 1411 921 c 0,23,24
 1327 836 1327 836 1164 795 c 1,24,25
 1346 753 1346 753 1439 658 c 0,26,27
 1532 564 1532 564 1532 420 c 0,27,28
 1532 198 1532 198 1355 84 c 0,29,30
 1178 -29 1178 -29 830 -29 c 0,30,31
 481 -29 481 -29 303 84 c 0,32,33
 125 198 125 198 125 420 c 0,33,34
 125 564 125 564 218 658 c 0,35,36
 311 753 311 753 493 795 c 1,12,13
 325 825 325 825 247 911 c 0,14,15
 164 1003 164 1003 164 1083 c 0,15,16
 164 1191 164 1191 333 1291 c 0,17,18
 449 1360 449 1360 764 1369 c 1,0,0
 764 1215 l 17,0,0
 652 1217 652 1217 598 1180 c 0,1,2
 516 1124 516 1124 516 1064 c 0,36,37
 516 995 516 995 598 947 c 0,38,39
 662 909 662 909 830 909 c 0,39,40
 963 909 963 909 1060 967 c 0,41,42
 1141 1015 1141 1015 1141 1134 c 0,42,43
 1141 1241 1141 1241 1060 1290 c 0,44,45
 981 1338 981 1338 890 1346 c 9,0,0
EndSplineSet
EndChar
StartChar: uni0223
Encoding: 547 547 547
Width: 1349
Flags: W
TeX: 117 0 0 0
Fore
826 1218 m 9,0,-1
 1181 1323 l 1,1,2
 1229 1244 1229 1244 1229 1133 c 24,3,4
 1229 1007 1229 1007 1159 921 c 0,5,6
 1090 836 1090 836 954 795 c 1,7,8
 1104 754 1104 754 1183 658 c 0,9,10
 1261 564 1261 564 1261 420 c 0,11,12
 1261 198 1261 198 1113 84 c 0,13,14
 966 -29 966 -29 676 -29 c 0,15,16
 385 -29 385 -29 237 84 c 0,17,18
 88 198 88 198 88 420 c 0,19,20
 88 564 88 564 165 658 c 0,21,22
 243 753 243 753 395 795 c 1,23,24
 259 836 259 836 190 921 c 128,-1,25
 121 1006 121 1006 121 1133 c 0,26,27
 121 1244 121 1244 169 1323 c 1,28,-1
 523 1218 l 17,29,30
 485 1171 485 1171 485 1094 c 0,31,32
 485 1005 485 1005 535 957 c 0,33,34
 584 909 584 909 676 909 c 0,35,36
 766 909 766 909 815 957 c 128,-1,37
 864 1005 864 1005 864 1094 c 24,38,39
 864 1171 864 1171 826 1218 c 9,0,-1
676 668 m 0,40,41
 568 668 568 668 510 609 c 128,-1,42
 452 550 452 550 452 440 c 128,-1,43
 452 330 452 330 510 272 c 0,44,45
 568 213 568 213 676 213 c 0,46,47
 783 213 783 213 840 272 c 0,48,49
 897 330 897 330 897 440 c 0,50,51
 897 551 897 551 840 610 c 0,52,53
 783 668 783 668 676 668 c 0,40,41
EndSplineSet
EndChar
StartChar: uni0224
Encoding: 548 548 548
Width: 1485
Flags: W
TeX: 117 0 0 0
Fore
1393 0 m 1,0,1
 1387 -268 1387 -268 1222 -377 c 0,2,3
 1123 -442 1123 -442 970 -442 c 2,4,-1
 689 -442 l 1,5,-1
 689 -207 l 1,6,-1
 855 -207 l 2,7,8
 957 -207 957 -207 995 -161 c 0,9,10
 1030 -118 1030 -118 1033 -0 c 1,11,-1
 92 0 l 1,12,-1
 92 233 l 1,13,-1
 893 1202 l 1,14,-1
 115 1202 l 1,15,-1
 115 1493 l 1,16,-1
 1370 1493 l 1,17,-1
 1370 1260 l 1,18,-1
 569 291 l 1,19,-1
 1393 291 l 1,20,-1
 1393 0 l 1,0,1
EndSplineSet
EndChar
StartChar: uni0225
Encoding: 549 549 549
Width: 1192
Flags: W
TeX: 117 0 0 0
Fore
1094 0 m 1,0,1
 1088 -268 1088 -268 923 -377 c 0,2,3
 824 -442 824 -442 671 -442 c 2,4,-1
 390 -442 l 1,5,-1
 390 -207 l 1,6,-1
 556 -207 l 2,7,8
 658 -207 658 -207 696 -161 c 0,9,10
 731 -118 731 -118 734 0 c 1,11,-1
 92 0 l 1,12,-1
 92 250 l 1,13,-1
 682 864 l 1,14,-1
 117 864 l 1,15,-1
 117 1120 l 1,16,-1
 1094 1120 l 1,17,-1
 1094 870 l 1,18,-1
 504 256 l 1,19,-1
 1094 256 l 1,20,-1
 1094 0 l 1,0,1
EndSplineSet
EndChar
StartChar: uni0234
Encoding: 564 564 564
Width: 1007
Flags: W
TeX: 117 0 0 0
AnchorPoint: "above" 356 1520 basechar 0
AnchorPoint: "below" 356 0 basechar 0
Fore
641 230 m 0,0,1
 775 230 775 230 773 319 c 0,2,3
 773 344 773 344 746 344 c 0,4,5
 671 344 671 344 629 293 c 2,6,-1
 592 246 l 1,7,8
 614 230 614 230 641 230 c 0,0,1
530 514 m 9,9,10
 606 606 606 606 712 606 c 0,11,12
 799 606 799 606 850 558 c 0,13,14
 921 490 921 490 919 327 c 0,15,16
 919 166 919 166 853 78 c 0,17,18
 776 -26 776 -26 610 -26 c 0,19,20
 519 -26 519 -26 448 0 c 17,21,22
 412 -74 412 -74 382 -154 c 25,23,-1
 218 -82 l 17,24,25
 238 -27 238 -27 284 86 c 17,26,27
 172 198 172 198 172 559 c 18,28,-1
 172 1556 l 1,29,-1
 530 1556 l 1,30,-1
 530 514 l 9,9,10
EndSplineSet
EndChar
StartChar: uni0235
Encoding: 565 565 565
Width: 1775
Flags: W
TeX: 117 0 0 0
Fore
1298 514 m 25,0,0
 1374 606 1374 606 1480 606 c 0,0,0
 1561 606 1561 606 1611 564 c 0,0,0
 1689 498 1689 498 1687 327 c 0,0,0
 1685 154 1685 154 1611 66 c 0,0,0
 1534 -26 1534 -26 1378 -26 c 0,0,0
 1287 -26 1287 -26 1216 0 c 17,0,0
 1180 -74 1180 -74 1150 -154 c 25,0,0
 986 -82 l 17,0,0
 1006 -27 1006 -27 1052 86 c 17,0,0
 934 205 934 205 938 522 c 0,4,5
 940 656 940 656 932 722 c 0,6,7
 925 777 925 777 909 803 c 0,7,8
 888 838 888 838 852 858 c 0,9,10
 816 877 816 877 770 877 c 0,10,11
 658 877 658 877 594 790 c 0,12,13
 530 704 530 704 530 551 c 2,13,-1
 530 0 l 1,14,-1
 172 0 l 1,15,-1
 172 1120 l 1,16,-1
 530 1120 l 1,17,-1
 530 956 l 1,18,19
 611 1054 611 1054 702 1100 c 0,20,21
 793 1147 793 1147 903 1147 c 0,21,22
 1097 1147 1097 1147 1198 1028 c 0,23,24
 1298 909 1298 909 1298 682 c 10,0,-1
 1298 514 l 25,0,0
1409 230 m 0,0,0
 1543 234 1543 234 1541 319 c 0,1,2
 1540 344 1540 344 1514 344 c 0,0,0
 1439 346 1439 346 1397 293 c 2,0,0
 1360 246 l 1,1,2
 1382 230 1382 230 1409 230 c 0,0,0
EndSplineSet
EndChar
StartChar: uni0236
Encoding: 566 566 566
Width: 1048
Flags: W
TeX: 117 0 0 0
AnchorPoint: "above" 394 1520 basechar 0
AnchorPoint: "below" 394 0 basechar 0
Fore
665 240 m 0,0,1
 799 244 799 244 797 329 c 0,2,3
 796 354 796 354 770 354 c 0,4,5
 695 356 695 356 653 303 c 2,6,-1
 616 256 l 1,7,8
 638 240 638 240 665 240 c 0,0,1
563 1438 m 1,9,-1
 563 1120 l 1,10,-1
 932 1120 l 1,11,-1
 932 864 l 1,12,-1
 563 864 l 1,13,-1
 564 508 l 25,14,15
 647 604 647 604 753 604 c 0,16,17
 844 604 844 604 895 552 c 0,18,19
 962 483 962 483 960 325 c 0,20,21
 958 167 958 167 896 80 c 0,22,23
 820 -28 820 -28 651 -28 c 0,24,25
 560 -28 560 -28 489 -2 c 17,26,27
 453 -76 453 -76 423 -156 c 25,28,-1
 259 -84 l 17,29,30
 280 -22 280 -22 318 68 c 1,31,32
 305 77 305 77 294 88 c 16,33,34
 205 177 205 177 205 389 c 2,35,-1
 205 864 l 1,36,-1
 27 864 l 1,37,-1
 27 1120 l 1,38,-1
 205 1120 l 1,39,-1
 205 1438 l 1,40,-1
 563 1438 l 1,9,-1
EndSplineSet
EndChar
StartChar: dotlessj
Encoding: 567 567 567
Width: 702
Flags: W
AnchorPoint: "below" 351 -430 basechar 0
AnchorPoint: "above" 351 1147 basechar 0
Fore
172 1120 m 1,0,-1
 530 1120 l 1,1,-1
 530 20 l 2,2,3
 530 -205 530 -205 422 -323.5 c 128,-1,4
 314 -442 314 -442 109 -442 c 2,5,-1
 -68 -442 l 1,6,-1
 -68 -207 l 1,7,-1
 -6 -207 l 2,8,9
 96 -207 96 -207 134 -161 c 128,-1,10
 172 -115 172 -115 172 20 c 2,11,-1
 172 1120 l 1,0,-1
EndSplineSet
EndChar
StartChar: uni0238
Encoding: 568 568 568
Width: 2228
Flags: W
TeX: 117 0 0 0
Fore
698 231 m 0,0,1
 813 231 813 231 874 315 c 0,2,3
 934 399 934 399 934 559 c 128,-1,5
 934 719 934 719 874 803 c 0,6,7
 813 887 813 887 698 887 c 0,8,9
 584 887 584 887 524 803 c 0,10,11
 463 719 463 719 463 559 c 128,-1,13
 463 399 463 399 524 315 c 0,14,15
 584 231 584 231 698 231 c 0,0,1
1530 231 m 128,-1,17
 1645 231 1645 231 1706 315 c 0,18,19
 1766 399 1766 399 1766 559 c 128,-1,21
 1766 719 1766 719 1706 803 c 0,22,23
 1645 887 1645 887 1530 887 c 128,-1,25
 1415 887 1415 887 1354 802 c 0,26,27
 1303 733 1303 733 1294 614 c 2,28,-1
 1294 504 l 2,29,30
 1303 385 1303 385 1354 316 c 0,31,32
 1415 231 1415 231 1530 231 c 128,-1,17
1292 1556 m 1,33,-1
 1294 1556 l 1,34,-1
 1294 959 l 1,35,36
 1367 1055 1367 1055 1456 1100 c 0,37,38
 1546 1147 1546 1147 1663 1147 c 0,39,40
 1870 1147 1870 1147 2003 982 c 0,41,42
 2136 818 2136 818 2136 559 c 128,-1,44
 2136 300 2136 300 2003 136 c 0,45,46
 1870 -29 1870 -29 1663 -29 c 0,47,48
 1546 -29 1546 -29 1456 18 c 0,49,50
 1367 63 1367 63 1294 159 c 1,51,-1
 1294 0 l 1,52,-1
 1292 0 l 1,53,-1
 934 0 l 1,54,-1
 934 162 l 1,55,56
 860 63 860 63 771 17 c 128,-1,58
 682 -29 682 -29 565 -29 c 0,59,60
 358 -29 358 -29 225 136 c 0,61,62
 92 300 92 300 92 559 c 128,-1,64
 92 818 92 818 225 982 c 0,65,66
 358 1147 358 1147 565 1147 c 0,67,68
 681 1147 681 1147 770 1100 c 0,69,70
 860 1054 860 1054 934 956 c 1,71,-1
 934 1556 l 1,72,-1
 1292 1556 l 1,33,-1
EndSplineSet
EndChar
StartChar: uni0239
Encoding: 569 569 569
Width: 2228
Flags: W
TeX: 117 0 0 0
Fore
698 887 m 0,0,1
 584 887 584 887 524 803 c 0,2,3
 463 719 463 719 463 559 c 128,-1,5
 463 399 463 399 524 315 c 0,6,7
 584 231 584 231 698 231 c 0,8,9
 813 231 813 231 874 315 c 0,10,11
 934 399 934 399 934 559 c 128,-1,13
 934 719 934 719 874 803 c 0,14,15
 813 887 813 887 698 887 c 0,0,1
1530 887 m 128,-1,17
 1415 887 1415 887 1354 802 c 0,18,19
 1303 733 1303 733 1294 614 c 2,20,-1
 1294 504 l 2,21,22
 1303 385 1303 385 1354 316 c 0,23,24
 1415 231 1415 231 1530 231 c 128,-1,26
 1645 231 1645 231 1706 315 c 0,27,28
 1766 399 1766 399 1766 559 c 128,-1,30
 1766 719 1766 719 1706 803 c 0,31,32
 1645 887 1645 887 1530 887 c 128,-1,17
1294 159 m 1,33,-1
 1294 -426 l 1,34,-1
 1292 -426 l 1,35,-1
 934 -426 l 1,36,-1
 934 162 l 1,37,38
 860 63 860 63 771 17 c 128,-1,40
 682 -29 682 -29 565 -29 c 0,41,42
 358 -29 358 -29 225 136 c 0,43,44
 92 300 92 300 92 559 c 128,-1,46
 92 818 92 818 225 982 c 0,47,48
 358 1145 358 1145 565 1145 c 0,49,50
 682 1145 682 1145 771 1099 c 128,-1,52
 860 1053 860 1053 934 954 c 1,53,-1
 934 1120 l 1,54,-1
 1292 1120 l 1,55,-1
 1294 1120 l 1,56,-1
 1294 959 l 1,57,58
 1367 1055 1367 1055 1456 1100 c 0,59,60
 1546 1147 1546 1147 1663 1147 c 0,61,62
 1870 1147 1870 1147 2003 982 c 0,63,64
 2136 818 2136 818 2136 559 c 128,-1,66
 2136 300 2136 300 2003 136 c 0,67,68
 1870 -29 1870 -29 1663 -29 c 0,69,70
 1546 -29 1546 -29 1456 18 c 0,71,72
 1367 63 1367 63 1294 159 c 1,33,-1
EndSplineSet
EndChar
StartChar: uni023A
Encoding: 570 570 570
Width: 1585
Flags: W
TeX: 117 0 0 0
Fore
1094 272 m 1,0,-1
 492 272 l 1,1,-1
 397 0 l 1,2,-1
 159 -0 l 1,3,-1
 85 -74 l 1,4,-1
 11 0 l 1,5,-1
 10 0 l 1,6,-1
 10 1 l 1,7,-1
 -28 39 l 1,8,-1
 55 122 l 1,9,-1
 563 1493 l 1,10,-1
 1022 1493 l 1,11,-1
 1131 1198 l 1,12,-1
 1500 1567 l 1,13,-1
 1613 1452 l 1,14,-1
 1193 1032 l 1,15,-1
 1575 0 l 1,16,-1
 1188 0 l 1,17,-1
 1094 272 l 1,0,-1
644 711 m 1,18,-1
 865 932 l 1,19,-1
 793 1143 l 1,20,-1
 644 711 l 1,18,-1
709 549 m 1,21,-1
 997 549 l 1,22,-1
 923 763 l 1,23,-1
 709 549 l 1,21,-1
EndSplineSet
EndChar
StartChar: uni023B
Encoding: 571 571 571
Width: 1503
Flags: W
TeX: 117 0 0 0
Fore
44 -74 m 1,0,-1
 -69 39 l 1,1,-1
 209 317 l 1,2,3
 102 495 102 495 102 745 c 0,4,5
 102 1103 102 1103 320 1312 c 0,6,7
 538 1520 538 1520 911 1520 c 0,8,9
 1036 1520 1036 1520 1151 1492 c 0,10,11
 1240 1470 1240 1470 1324 1432 c 1,12,-1
 1459 1567 l 1,13,-1
 1572 1452 l 1,14,-1
 1372 1252 l 1,15,-1
 1372 1100 l 1,16,17
 1324 1133 1324 1133 1277 1157 c 1,18,-1
 569 450 l 1,19,20
 590 413 590 413 618 382 c 0,21,22
 736 250 736 250 942 250 c 0,23,24
 1057 250 1057 250 1161 284 c 128,-1,26
 1265 318 1265 318 1372 391 c 1,27,-1
 1372 82 l 1,28,29
 1266 27 1266 27 1151 -1 c 128,-1,31
 1036 -29 1036 -29 911 -29 c 0,32,33
 538 -29 538 -29 320 180 c 2,34,-1
 309 190 l 1,35,-1
 44 -74 l 1,0,-1
510 618 m 1,36,-1
 1113 1221 l 1,37,38
 1031 1241 1031 1241 942 1241 c 0,39,40
 736 1241 736 1241 618 1109 c 128,-1,42
 500 977 500 977 500 745 c 0,43,44
 500 677 500 677 510 618 c 1,36,-1
EndSplineSet
EndChar
StartChar: uni023C
Encoding: 572 572 572
Width: 1214
Flags: W
TeX: 117 0 0 0
Fore
98 -94 m 1,0,-1
 -14 0 l 1,1,-1
 184 213 l 1,2,3
 88 352 88 352 88 559 c 0,4,5
 88 836 88 836 259 992 c 0,6,7
 430 1147 430 1147 733 1147 c 0,8,9
 821 1147 821 1147 906 1132 c 0,10,11
 961 1122 961 1122 1016 1105 c 1,12,-1
 1120 1217 l 1,13,-1
 1228 1116 l 1,14,-1
 1077 954 l 1,15,-1
 1077 793 l 1,16,17
 1028 827 1028 827 978 849 c 1,18,-1
 515 352 l 1,19,20
 528 332 528 332 544 314 c 0,21,22
 628 227 628 227 778 227 c 0,23,24
 862 227 862 227 938 252 c 0,25,26
 1013 277 1013 277 1077 326 c 1,27,-1
 1077 33 l 1,28,29
 993 2 993 2 906 -14 c 0,30,31
 820 -29 820 -29 733 -29 c 0,32,33
 451 -29 451 -29 284 105 c 1,34,-1
 98 -94 l 1,0,-1
463 512 m 1,35,-1
 815 890 l 1,36,37
 796 891 796 891 778 891 c 0,38,39
 628 891 628 891 544 804 c 0,40,41
 461 716 461 716 461 559 c 0,42,43
 461 535 461 535 463 512 c 1,35,-1
EndSplineSet
EndChar
StartChar: uni023D
Encoding: 573 573 573
Width: 1305
Flags: W
TeX: 117 0 0 0
Fore
188 1493 m 1,0,-1
 573 1493 l 1,1,-1
 573 881 l 1,2,-1
 774 881 l 1,3,-1
 774 621 l 1,4,-1
 573 621 l 1,5,-1
 573 291 l 1,6,-1
 1249 291 l 1,7,-1
 1249 0 l 1,8,-1
 188 0 l 1,9,-1
 188 621 l 1,10,-1
 -3 621 l 1,11,-1
 -3 881 l 1,12,-1
 188 881 l 1,13,-1
 188 1493 l 1,0,-1
EndSplineSet
EndChar
StartChar: uni023E
Encoding: 574 574 574
Width: 1397
Flags: W
TeX: 117 0 0 0
Fore
1387 1320 m 1,0,-1
 1387 1202 l 1,15,-1
 1269 1202 l 1,14,-1
 891 825 l 1,13,-1
 891 0 l 1,12,-1
 506 0 l 1,11,-1
 506 440 l 1,10,-1
 -9 -74 l 1,9,-1
 -122 39 l 1,8,-1
 506 667 l 1,7,-1
 506 1202 l 1,6,-1
 11 1202 l 1,5,-1
 11 1493 l 1,4,-1
 1332 1493 l 1,3,-1
 1406 1567 l 1,2,-1
 1519 1452 l 1,1,-1
 1387 1320 l 1,0,-1
891 1052 m 1,16,-1
 1041 1202 l 1,18,-1
 891 1202 l 1,17,-1
 891 1052 l 1,16,-1
EndSplineSet
EndChar
StartChar: uni023F
Encoding: 575 575 575
Width: 1219
Flags: W
TeX: 117 0 0 0
Fore
1047 1085 m 1,0,-1
 1047 813 l 1,1,2
 932 861 932 861 825 885 c 128,-1,4
 718 909 718 909 623 909 c 0,5,6
 521 909 521 909 472 884 c 0,7,8
 422 858 422 858 422 805 c 0,9,10
 422 762 422 762 460 739 c 0,11,12
 497 716 497 716 594 705 c 2,13,-1
 657 696 l 2,14,15
 932 661 932 661 1027 581 c 128,-1,17
 1122 501 1122 501 1122 330 c 0,18,19
 1122 151 1122 151 990 61 c 0,20,21
 867 -23 867 -23 633 -29 c 1,22,-1
 835 -186 l 2,23,24
 926 -257 926 -257 1004 -257 c 2,25,-1
 1219 -257 l 1,26,-1
 1219 -492 l 1,27,-1
 1012 -492 l 2,28,29
 845 -492 845 -492 690 -372 c 2,30,-1
 460 -192 l 2,31,32
 195 14 195 14 134 38 c 2,33,-1
 123 41 l 1,34,-1
 123 313 l 1,35,36
 230 261 230 261 342 235 c 0,37,38
 455 209 455 209 571 209 c 0,39,40
 676 209 676 209 729 238 c 128,-1,42
 782 267 782 267 782 324 c 0,43,44
 782 372 782 372 746 396 c 0,45,46
 711 418 711 418 600 432 c 2,47,-1
 537 440 l 2,48,49
 298 470 298 470 202 551 c 128,-1,51
 106 632 106 632 106 797 c 0,52,53
 106 975 106 975 228 1061 c 128,-1,55
 350 1147 350 1147 602 1147 c 0,56,57
 701 1147 701 1147 810 1132 c 128,-1,59
 919 1117 919 1117 1047 1085 c 1,0,-1
EndSplineSet
EndChar
StartChar: uni0240
Encoding: 576 576 576
Width: 1192
Flags: W
TeX: 117 0 0 0
Fore
117 1120 m 1,0,-1
 1094 1120 l 1,1,-1
 1094 870 l 1,2,-1
 389 141 l 1,3,4
 490 83 490 83 605 -7 c 2,5,-1
 835 -186 l 2,6,7
 926 -257 926 -257 1004 -257 c 2,8,-1
 1219 -257 l 1,9,-1
 1219 -492 l 1,10,-1
 1012 -492 l 2,11,12
 845 -492 845 -492 690 -372 c 2,13,-1
 460 -192 l 2,14,15
 235 -17 235 -17 92 0 c 1,16,-1
 92 250 l 1,17,-1
 682 864 l 1,18,-1
 117 864 l 1,19,-1
 117 1120 l 1,0,-1
EndSplineSet
EndChar
StartChar: uni0241
Encoding: 577 577 577
Width: 1601
Flags: W
TeX: 117 0 0 0
Fore
509 1214 m 1,0,-1
 431 1214 431 1214 430 1213 c 2,13,14
 387 1213 387 1213 370 1193 c 0,15,16
 339 1156 339 1156 337 1109 c 0,17,18
 336 1095 336 1095 336 1062 c 1,19,-1
 81 1062 l 1,20,-1
 81 1139 l 2,21,22
 81 1294 81 1294 129 1359 c 0,23,24
 147 1383 147 1383 180 1412 c 0,25,26
 255 1475 255 1475 393 1488 c 0,27,28
 444 1493 444 1493 509 1493 c 2,29,-1
 927 1493 l 2,30,31
 1212 1493 1212 1493 1364 1366 c 0,32,33
 1517 1240 1517 1240 1517 1006 c 0,34,35
 1517 771 1517 771 1364 644 c 0,36,37
 1212 518 1212 518 927 518 c 2,38,-1
 894 518 l 1,39,-1
 894 0 l 1,40,-1
 509 0 l 1,41,-1
 509 797 l 1,1,-1
 886 797 l 2,2,3
 998 797 998 797 1059 852 c 0,4,5
 1120 906 1120 906 1120 1006 c 128,-1,7
 1120 1106 1120 1106 1059 1160 c 128,-1,9
 998 1214 998 1214 886 1214 c 2,10,-1
 509 1214 l 1,0,-1
EndSplineSet
EndChar
StartChar: uni0242
Encoding: 578 578 578
Width: 1258
Flags: W
TeX: 117 0 0 0
Fore
543 451 m 2,0,1
 654 451 654 451 716 506 c 0,2,3
 777 560 777 560 777 660 c 128,-1,5
 777 760 777 760 716 814 c 128,-1,7
 655 868 655 868 543 868 c 0,8,9
 411 868 411 868 411 716 c 1,10,-1
 86 716 l 1,11,12
 90 1148 90 1148 544 1147 c 0,13,14
 867 1147 867 1147 1021 1020 c 0,15,16
 1174 894 1174 894 1174 660 c 0,17,18
 1174 425 1174 425 1021 298 c 0,19,20
 914 210 914 210 742 183 c 1,21,-1
 742 0 l 1,22,-1
 357 0 l 1,23,-1
 357 451 l 1,24,-1
 543 451 l 2,0,1
EndSplineSet
EndChar
StartChar: uni0243
Encoding: 579 579 579
Width: 1561
Flags: W
TeX: 0 0 0 0
AnchorPoint: "below" 800 0 basechar 0
AnchorPoint: "above" 800 1520 basechar 0
Fore
1157 799 m 1,0,1
 1281 763 1281 763 1349 666 c 128,-1,2
 1417 569 1417 569 1417 428 c 0,3,4
 1417 212 1417 212 1271 106 c 128,-1,5
 1125 0 1125 0 827 0 c 2,6,-1
 188 0 l 1,7,-1
 188 321 l 1,8,-1
 12 321 l 1,9,-1
 12 581 l 1,10,-1
 188 581 l 1,11,-1
 188 1493 l 1,12,-1
 766 1493 l 2,13,14
 1077 1493 1077 1493 1216 1399 c 0,15,16
 1356 1305 1356 1305 1356 1098 c 0,16,17
 1356 989 1356 989 1305 912 c 0,18,19
 1254 836 1254 836 1157 799 c 1,0,1
799 262 m 2,19,20
 915 262 915 262 974 311 c 0,21,22
 1032 360 1032 360 1032 459 c 0,22,23
 1032 556 1032 556 974 604 c 0,24,25
 916 653 916 653 799 653 c 2,25,-1
 573 653 l 1,26,-1
 573 581 l 1,27,-1
 806 581 l 1,28,-1
 806 321 l 1,29,-1
 573 321 l 1,30,-1
 573 262 l 1,31,-1
 799 262 l 2,19,20
786 915 m 2,32,33
 877 915 877 915 924 955 c 128,-1,34
 971 995 971 995 971 1073 c 0,35,36
 971 1150 971 1150 924 1190 c 0,37,38
 877 1231 877 1231 786 1231 c 2,38,-1
 573 1231 l 1,39,-1
 573 915 l 1,40,-1
 786 915 l 2,32,33
EndSplineSet
EndChar
StartChar: uni0244
Encoding: 580 580 580
Width: 1663
Flags: W
TeX: 0 0 0 0
AnchorPoint: "above" 830 1520 basechar 0
AnchorPoint: "below" 830 0 basechar 0
Fore
573 696 m 1,0,-1
 573 598 l 2,1,2
 573 413 573 413 633.5 333.5 c 128,-1,3
 694 254 694 254 831 254 c 0,4,5
 969 254 969 254 1029.5 333.5 c 128,-1,6
 1090 413 1090 413 1090 598 c 2,7,-1
 1090 696 l 1,8,-1
 573 696 l 1,0,-1
188 1493 m 1,9,-1
 573 1493 l 1,10,-1
 573 890 l 1,11,-1
 1090 890 l 1,12,-1
 1090 1493 l 1,13,-1
 1475 1493 l 1,14,-1
 1475 890 l 1,15,-1
 1616 890 l 1,16,-1
 1616 696 l 1,17,-1
 1475 696 l 1,18,-1
 1475 598 l 2,19,20
 1475 281 1475 281 1316 126 c 128,-1,21
 1157 -29 1157 -29 831 -29 c 0,22,23
 506 -29 506 -29 347 126 c 128,-1,24
 188 281 188 281 188 598 c 2,25,-1
 188 696 l 1,26,-1
 48 696 l 1,27,-1
 48 890 l 1,28,-1
 188 890 l 1,29,-1
 188 1493 l 1,9,-1
EndSplineSet
EndChar
StartChar: uni0246
Encoding: 582 582 582
Width: 1399
Flags: W
TeX: 0 0 0 0
AnchorPoint: "below" 690 0 basechar 0
AnchorPoint: "above" 690 1520 basechar 0
Fore
1040 1683 m 1,0,-1
 1212 1683 l 1,1,-1
 1154.79 1493 l 1,2,-1
 1227 1493 l 1,3,-1
 1227 1202 l 1,4,-1
 1067.16 1202 l 1,5,-1
 983.449 924 l 1,6,-1
 1188 924 l 1,7,-1
 1188 633 l 1,8,-1
 895.823 633 l 1,9,-1
 792.839 291 l 1,10,-1
 1249 291 l 1,11,-1
 1249 0 l 1,12,-1
 705.213 2.08167e-14 l 1,13,-1
 648 -190 l 1,14,-1
 477 -190 l 1,15,-1
 534.112 -5.17641e-15 l 1,16,-1
 188 0 l 1,17,-1
 188 1493 l 1,18,-1
 982.888 1493 l 1,19,-1
 1040 1683 l 1,0,-1
621.582 291 m 1,20,-1
 724.383 633 l 1,21,-1
 573 633 l 1,22,-1
 573 291 l 1,23,-1
 621.582 291 l 1,20,-1
811.854 924 m 1,24,-1
 895.418 1202 l 1,25,-1
 573 1202 l 1,26,-1
 573 924 l 1,27,-1
 811.854 924 l 1,24,-1
EndSplineSet
EndChar
StartChar: uni0247
Encoding: 583 583 583
Width: 1389
Flags: W
TeX: 0 0 0 0
AnchorPoint: "below" 729 0 basechar 0
AnchorPoint: "above" 729 1147 basechar 0
Fore
1290 563 m 2,0,-1
 1290 461 l 1,1,-1
 726.368 461 l 1,2,-1
 612.183 233.237 l 1,3,4
 675.165 209 675.165 209 762 209 c 0,5,6
 875 209 875 209 993.5 242.5 c 128,-1,7
 1112 276 1112 276 1237 344 c 1,8,-1
 1237 68 l 1,9,10
 1110 20 1110 20 983 -4.5 c 128,-1,11
 856 -29 856 -29 729 -29 c 0,12,13
 599.599 -29 599.599 -29 494.749 -1.0065 c 1,14,-1
 400 -190 l 1,15,-1
 229 -190 l 1,16,-1
 352.255 56.181 l 1,17,18
 299.886 85.7191 299.886 85.7191 256.5 125.5 c 0,19,20
 88 280 88 280 88 559 c 0,21,22
 88 833 88 833 253.5 990 c 128,-1,23
 419 1147 419 1147 709 1147 c 0,24,25
 805.423 1147 805.423 1147 887.772 1125.79 c 1,26,-1
 980 1310 l 1,27,-1
 1152 1310 l 1,28,-1
 1030.24 1067.12 l 1,29,30
 1085.34 1034.3 1085.34 1034.3 1131.5 988 c 0,31,32
 1290 829 1290 829 1290 563 c 2,0,-1
665.581 682 m 1,33,-1
 774.711 899.969 l 1,34,35
 743.493 909 743.493 909 707 909 c 0,36,37
 603 909 603 909 538 850.5 c 128,-1,38
 473 792 473 792 457 682 c 1,39,-1
 665.581 682 l 1,33,-1
491.239 333.78 m 1,40,-1
 554.934 461 l 1,41,-1
 453 461 l 1,42,43
 460.704 386.326 460.704 386.326 491.239 333.78 c 1,40,-1
837.163 682 m 1,44,-1
 922 682 l 1,45,46
 922 749.35 922 749.35 896.059 799.479 c 1,47,-1
 837.163 682 l 1,44,-1
EndSplineSet
EndChar
StartChar: uni0248
Encoding: 584 584 584
Width: 762
Flags: W
TeX: 0 0 0 0
AnchorPoint: "below" 378 -430 basechar 0
AnchorPoint: "above" 378 1520 basechar 0
Fore
188 1493 m 1,0,-1
 573 1493 l 1,1,-1
 573 831 l 1,2,-1
 737 831 l 1,3,-1
 737 565 l 1,4,-1
 573 565 l 1,5,-1
 573 145 l 2,6,7
 573 -134 573 -134 421.5 -272 c 128,-1,8
 270 -410 270 -410 -37 -410 c 2,9,-1
 -115 -410 l 1,10,-1
 -115 -119 l 1,11,-1
 -55 -119 l 2,12,13
 65 -119 65 -119 126.5 -52 c 128,-1,14
 188 15 188 15 188 145 c 2,15,-1
 188 565 l 1,16,-1
 0 565 l 1,17,-1
 0 831 l 1,18,-1
 188 831 l 1,19,-1
 188 1493 l 1,0,-1
EndSplineSet
EndChar
StartChar: uni0249
Encoding: 585 585 585
Width: 702
Flags: W
TeX: 0 0 0 0
AnchorPoint: "above" 351 1583 basechar 0
AnchorPoint: "below" 351 -430 basechar 0
Fore
172 1120 m 1,0,-1
 530 1120 l 1,1,-1
 530 632 l 1,2,-1
 738 632 l 1,3,-1
 738 438 l 1,4,-1
 530 438 l 1,5,-1
 530 20 l 2,6,7
 530 -205 530 -205 422 -323.5 c 128,-1,8
 314 -442 314 -442 109 -442 c 2,9,-1
 -68 -442 l 1,10,-1
 -68 -207 l 1,11,-1
 -6 -207 l 2,12,13
 96 -207 96 -207 134 -161 c 128,-1,14
 172 -115 172 -115 172 20 c 2,15,-1
 172 438 l 1,16,-1
 -36 438 l 1,17,-1
 -36 632 l 1,18,-1
 172 632 l 1,19,-1
 172 1120 l 1,0,-1
172 1556 m 1,20,-1
 530 1556 l 1,21,-1
 530 1264 l 1,22,-1
 172 1264 l 1,23,-1
 172 1556 l 1,20,-1
EndSplineSet
Substitution: 0 65534 'DTLS' uni025F
EndChar
StartChar: uni024A
Encoding: 586 586 586
Width: 1762
Flags: W
TeX: 117 0 0 0
Fore
854 250 m 0,0,1
 1027 250 1027 250 1118.5 377 c 128,-1,2
 1210 504 1210 504 1210 745 c 0,3,4
 1210 987 1210 987 1118.5 1114 c 128,-1,5
 1027 1241 1027 1241 854 1241 c 0,6,7
 682 1241 682 1241 590.5 1114 c 128,-1,8
 499 987 499 987 499 745 c 0,9,10
 499 504 499 504 590.5 377 c 128,-1,11
 682 250 682 250 854 250 c 0,0,1
1210 222 m 1,12,13
 1112 92 1112 92 994.5 31.5 c 128,-1,14
 877 -29 877 -29 723 -29 c 0,15,16
 450 -29 450 -29 274.5 187.5 c 128,-1,17
 99 404 99 404 99 744 c 0,18,19
 99 1085 99 1085 274.5 1301 c 128,-1,20
 450 1517 450 1517 723 1517 c 0,21,22
 876 1517 876 1517 994 1456 c 128,-1,23
 1112 1395 1112 1395 1210 1266 c 1,24,-1
 1210 1493 l 1,25,-1
 1575 1493 l 1,26,-1
 1575 145 l 2,27,28
 1575 15 1575 15 1636.5 -52 c 128,-1,29
 1698 -119 1698 -119 1818 -119 c 2,30,-1
 1898 -119 l 1,31,-1
 1898 -410 l 1,32,-1
 1820 -410 l 2,33,34
 1513 -410 1513 -410 1361.5 -272 c 128,-1,35
 1210 -134 1210 -134 1210 145 c 2,36,-1
 1210 222 l 1,12,13
EndSplineSet
EndChar
StartChar: uni024B
Encoding: 587 587 587
Width: 1620
Flags: W
TeX: 117 0 0 0
AnchorPoint: "above" 1114 1520 basechar 0
AnchorPoint: "below" 729 -430 basechar 0
Fore
698 231 m 0,0,1
 813 231 813 231 874 315 c 0,2,3
 934 399 934 399 934 559 c 128,-1,4
 934 719 934 719 874 803 c 0,5,6
 813 887 813 887 698 887 c 0,7,8
 584 887 584 887 524 803 c 0,9,10
 463 719 463 719 463 559 c 128,-1,11
 463 399 463 399 524 315 c 0,12,13
 584 231 584 231 698 231 c 0,0,1
1357 -442 m 2,14,15
 1051 -442 1051 -442 965 -187 c 0,16,17
 937 -104 937 -104 934 -0 c 1,18,-1
 934 162 l 1,19,20
 860 63 860 63 771 17 c 128,-1,21
 682 -29 682 -29 565 -29 c 0,22,23
 358 -29 358 -29 225 136 c 0,24,25
 92 300 92 300 92 559 c 128,-1,26
 92 818 92 818 225 982 c 0,27,28
 358 1147 358 1147 565 1147 c 0,29,30
 681 1147 681 1147 770 1100 c 0,31,32
 860 1054 860 1054 934 956 c 1,33,-1
 934 1120 l 1,34,-1
 1294 1120 l 1,35,-1
 1294 20 l 2,36,37
 1294 -115 1294 -115 1332 -161 c 128,-1,38
 1370 -207 1370 -207 1472 -207 c 2,39,-1
 1638 -207 l 1,40,-1
 1638 -442 l 1,41,-1
 1357 -442 l 2,14,15
EndSplineSet
EndChar
StartChar: uni024C
Encoding: 588 588 588
Width: 1577
Flags: W
TeX: 0 0 0 0
AnchorPoint: "above" 711 1520 basechar 0
AnchorPoint: "below" 711 0 basechar 0
Fore
735 831 m 2,0,1
 856 831 856 831 908.5 876 c 128,-1,2
 961 921 961 921 961 1024 c 0,3,4
 961 1126 961 1126 908.5 1170 c 128,-1,5
 856 1214 856 1214 735 1214 c 2,6,-1
 573 1214 l 1,7,-1
 573 831 l 1,8,-1
 735 831 l 2,0,1
573 565 m 1,9,-1
 573 0 l 1,10,-1
 188 0 l 9,11,-1
 188 565 l 17,12,-1
 12 565 l 1,13,-1
 12 825 l 1,14,-1
 188 825 l 9,15,-1
 188 1493 l 17,16,-1
 776 1493 l 2,17,18
 1071 1493 1071 1493 1208.5 1394 c 128,-1,19
 1346 1295 1346 1295 1346 1081 c 0,20,21
 1346 933 1346 933 1274.5 838 c 128,-1,22
 1203 743 1203 743 1059 698 c 1,23,24
 1138 680 1138 680 1200.5 616.5 c 128,-1,25
 1263 553 1263 553 1327 424 c 2,26,-1
 1536 0 l 1,27,-1
 1126 0 l 1,28,-1
 944 371 l 2,29,30
 889 483 889 483 832.5 524 c 128,-1,31
 776 565 776 565 682 565 c 2,32,-1
 573 565 l 1,9,-1
EndSplineSet
EndChar
StartChar: uni024D
Encoding: 589 589 589
Width: 1010
Flags: W
TeX: 0 0 0 0
AnchorPoint: "above" 597 1147 basechar 0
AnchorPoint: "below" 350 0 basechar 0
Fore
1004 815 m 1,0,1
 957 837 957 837 910.5 847.5 c 128,-1,2
 864 858 864 858 817 858 c 0,3,4
 704 858 704 858 638 804 c 128,-1,5
 572 750 572 750 540.045 632 c 1,6,-1
 731 632 l 1,7,-1
 731 438 l 1,8,-1
 530 438 l 1,9,-1
 530 0 l 1,10,-1
 172 0 l 1,11,-1
 172 438 l 1,12,-1
 -42 438 l 1,13,-1
 -42 632 l 1,14,-1
 172 632 l 1,15,-1
 172 1120 l 1,16,-1
 530 1120 l 1,17,-1
 530 936 l 1,18,19
 599 1046 599 1046 688.5 1096.5 c 128,-1,20
 778 1147 778 1147 903 1147 c 0,21,22
 921 1147 921 1147 942 1145.5 c 128,-1,23
 963 1144 963 1144 1003 1139 c 1,24,-1
 1004 815 l 1,0,1
EndSplineSet
EndChar
StartChar: uni024E
Encoding: 590 590 590
Width: 1483
Flags: W
TeX: 117 0 0 0
AnchorPoint: "below" 741 0 basechar 0
AnchorPoint: "above" 741 1527 basechar 0
Fore
-20 1493 m 1,0,-1
 401 1493 l 1,1,-1
 521 1306 l 1,2,-1
 961 1306 l 1,3,-1
 1081 1493 l 1,4,-1
 1503 1493 l 1,5,-1
 1380 1306 l 1,6,-1
 1492 1306 l 1,7,-1
 1492 1112 l 1,8,-1
 1252 1112 l 1,9,-1
 934 629 l 1,10,-1
 934 0 l 1,11,-1
 549 0 l 1,12,-1
 549 629 l 1,13,-1
 231 1112 l 1,14,-1
 -10 1112 l 1,15,-1
 -10 1306 l 1,16,-1
 103 1306 l 1,17,-1
 -20 1493 l 1,0,-1
838 1112 m 1,18,-1
 644 1112 l 1,19,-1
 741 961 l 1,20,-1
 838 1112 l 1,18,-1
EndSplineSet
EndChar
StartChar: uni024F
Encoding: 591 591 591
Width: 1335
Flags: W
TeX: 117 0 0 0
AnchorPoint: "below" 661 -430 basechar 0
AnchorPoint: "above" 661 1147 basechar 0
Fore
25 1120 m 1,0,-1
 383 1120 l 1,1,-1
 556 682 l 1,2,-1
 792 682 l 1,3,-1
 940 1120 l 1,4,-1
 1298 1120 l 1,5,-1
 1130 682 l 1,6,-1
 1343 682 l 1,7,-1
 1343 488 l 1,8,-1
 1055 488 l 1,9,-1
 827 -106 l 2,10,11
 755 -294 755 -294 662 -368 c 0,12,13
 567 -442 567 -442 412 -442 c 2,14,-1
 205 -442 l 1,15,-1
 205 -207 l 1,16,-1
 317 -207 l 2,17,18
 408 -207 408 -207 450 -178 c 0,19,20
 491 -149 491 -149 514 -74 c 2,21,-1
 524 -43 l 1,22,-1
 296 488 l 1,23,-1
 -9 488 l 1,24,-1
 -9 682 l 1,25,-1
 213 682 l 1,26,-1
 25 1120 l 1,0,-1
727 488 m 1,27,-1
 633 488 l 1,28,-1
 684 360 l 1,29,-1
 727 488 l 1,27,-1
EndSplineSet
EndChar
StartChar: uni0250
Encoding: 592 592 592
Width: 1382
Flags: W
AnchorPoint: "below" 770 0 basechar 0
AnchorPoint: "above" 770 1147 basechar 0
Fore
707 614 m 2,0,1
 819 614 819 614 875.5 652 c 128,-1,2
 932 690 932 690 932 764 c 0,3,4
 932 832 932 832 886.5 870.5 c 128,-1,5
 841 909 841 909 760 909 c 0,6,7
 659 909 659 909 590 836.5 c 128,-1,8
 521 764 521 764 521 655 c 2,9,-1
 521 614 l 1,10,-1
 707 614 l 2,0,1
160 479 m 2,11,-1
 160 1118 l 1,12,-1
 521 1118 l 1,13,-1
 521 952 l 1,14,15
 593 1054 593 1054 683 1100.5 c 128,-1,16
 773 1147 773 1147 902 1147 c 0,17,18
 1076 1147 1076 1147 1184.5 1045.5 c 128,-1,19
 1293 944 1293 944 1293 782 c 0,20,21
 1293 585 1293 585 1157.5 493 c 128,-1,22
 1022 401 1022 401 732 401 c 2,23,-1
 521 401 l 1,24,-1
 521 373 l 2,25,26
 521 288 521 288 588 248.5 c 128,-1,27
 655 209 655 209 797 209 c 0,28,29
 912 209 912 209 1011 232 c 128,-1,30
 1110 255 1110 255 1195 301 c 1,31,-1
 1195 28 l 1,32,33
 1080 0 1080 0 964 -14.5 c 128,-1,34
 848 -29 848 -29 732 -29 c 0,35,36
 429 -29 429 -29 294.5 90.5 c 128,-1,37
 160 210 160 210 160 479 c 2,11,-1
EndSplineSet
EndChar
StartChar: uni0251
Encoding: 593 593 593
Width: 1466
Flags: W
TeX: 0 0 0 0
AnchorPoint: "below" 698 0 basechar 0
AnchorPoint: "above" 698 1147 basechar 0
Fore
934 956 m 1,0,-1
 934 1120 l 1,1,-1
 1294 1120 l 1,2,-1
 1294 0 l 1,3,-1
 934 0 l 1,4,-1
 934 162 l 1,5,6
 860 63 860 63 771 17 c 128,-1,7
 682 -29 682 -29 565 -29 c 0,8,9
 358 -29 358 -29 225 135.5 c 128,-1,10
 92 300 92 300 92 559 c 0,11,12
 92 818 92 818 225 982.5 c 128,-1,13
 358 1147 358 1147 565 1147 c 0,14,15
 681 1147 681 1147 770.5 1100.5 c 128,-1,16
 860 1054 860 1054 934 956 c 1,0,-1
698 231 m 0,17,18
 813 231 813 231 873.5 315 c 128,-1,19
 934 399 934 399 934 559 c 0,20,21
 934 719 934 719 873.5 803 c 128,-1,22
 813 887 813 887 698 887 c 0,23,24
 584 887 584 887 523.5 803 c 128,-1,25
 463 719 463 719 463 559 c 0,26,27
 463 399 463 399 523.5 315 c 128,-1,28
 584 231 584 231 698 231 c 0,17,18
EndSplineSet
EndChar
StartChar: uni0252
Encoding: 594 594 594
Width: 1466
Flags: W
TeX: 0 0 0 0
AnchorPoint: "below" 776 2 basechar 0
AnchorPoint: "above" 776 1149 basechar 0
Fore
768 231 m 0,0,1
 883 231 883 231 943.5 315 c 128,-1,2
 1004 399 1004 399 1004 559 c 0,3,4
 1004 719 1004 719 943.5 803 c 128,-1,5
 883 887 883 887 768 887 c 0,6,7
 653 887 653 887 591.5 802.5 c 128,-1,8
 530 718 530 718 530 559 c 0,9,10
 530 400 530 400 591.5 315.5 c 128,-1,11
 653 231 653 231 768 231 c 0,0,1
530 956 m 1,12,13
 604 1054 604 1054 694 1100.5 c 128,-1,14
 784 1147 784 1147 901 1147 c 0,15,16
 1108 1147 1108 1147 1241 982.5 c 128,-1,17
 1374 818 1374 818 1374 559 c 0,18,19
 1374 300 1374 300 1241 135.5 c 128,-1,20
 1108 -29 1108 -29 901 -29 c 0,21,22
 784 -29 784 -29 694 17.5 c 128,-1,23
 604 64 604 64 530 162 c 1,24,-1
 530 0 l 1,25,-1
 172 0 l 1,26,-1
 172 1120 l 1,27,-1
 530 1120 l 1,28,-1
 530 956 l 1,12,13
EndSplineSet
EndChar
StartChar: uni0253
Encoding: 595 595 595
Width: 1466
Flags: W
TeX: 0 0 0 0
AnchorPoint: "below" 698 0 basechar 0
AnchorPoint: "above" 356 1520 basechar 0
Fore
768 231 m 0,0,1
 883 231 883 231 943.5 315 c 128,-1,2
 1004 399 1004 399 1004 559 c 0,3,4
 1004 719 1004 719 943.5 803 c 128,-1,5
 883 887 883 887 768 887 c 0,6,7
 653 887 653 887 591.5 802.5 c 128,-1,8
 530 718 530 718 530 559 c 0,9,10
 530 400 530 400 591.5 315.5 c 128,-1,11
 653 231 653 231 768 231 c 0,0,1
530 956 m 1,12,13
 604 1054 604 1054 694 1100.5 c 128,-1,14
 784 1147 784 1147 901 1147 c 0,15,16
 1108 1147 1108 1147 1241 982.5 c 128,-1,17
 1374 818 1374 818 1374 559 c 0,18,19
 1374 300 1374 300 1241 135.5 c 128,-1,20
 1108 -29 1108 -29 901 -29 c 0,21,22
 784 -29 784 -29 694 17.5 c 128,-1,23
 604 64 604 64 530 162 c 1,24,-1
 530 0 l 1,25,-1
 172 0 l 1,26,-1
 172 1094 l 2,27,28
 172 1319 172 1319 280 1437.5 c 128,-1,29
 388 1556 388 1556 593 1556 c 2,30,-1
 876 1556 l 1,31,-1
 876 1321 l 1,32,-1
 708 1321 l 2,33,34
 606 1321 606 1321 568 1275 c 128,-1,35
 530 1229 530 1229 530 1094 c 2,36,-1
 530 956 l 1,12,13
EndSplineSet
EndChar
StartChar: uni0254
Encoding: 596 596 596
Width: 1214
Flags: W
AnchorPoint: "below" 441 0 basechar 0
AnchorPoint: "above" 441 1147 basechar 0
Fore
88 1085 m 1,0,1
 173 1116 173 1116 258.5 1131.5 c 128,-1,2
 344 1147 344 1147 432 1147 c 0,3,4
 735 1147 735 1147 906 991.5 c 128,-1,5
 1077 836 1077 836 1077 559 c 128,-1,6
 1077 282 1077 282 906 126.5 c 128,-1,7
 735 -29 735 -29 432 -29 c 0,8,9
 345 -29 345 -29 258.5 -13.5 c 128,-1,10
 172 2 172 2 88 33 c 1,11,-1
 88 326 l 1,12,13
 152 277 152 277 227.5 252 c 128,-1,14
 303 227 303 227 387 227 c 0,15,16
 537 227 537 227 620.5 314.5 c 128,-1,17
 704 402 704 402 704 559 c 128,-1,18
 704 716 704 716 620.5 803.5 c 128,-1,19
 537 891 537 891 387 891 c 0,20,21
 308 891 308 891 234.5 867 c 128,-1,22
 161 843 161 843 88 793 c 1,23,-1
 88 1085 l 1,0,1
EndSplineSet
EndChar
StartChar: uni0255
Encoding: 597 597 597
Width: 1214
Flags: W
TeX: 0 0 0 0
AnchorPoint: "above" 733 1147 basechar 0
AnchorPoint: "below" 733 0 basechar 0
Fore
1077 1085 m 1,0,-1
 1077 793 l 1,1,2
 1004 843 1004 843 930.5 867 c 128,-1,3
 857 891 857 891 778 891 c 0,4,5
 628 891 628 891 544.5 803.5 c 128,-1,6
 461 716 461 716 461 559 c 0,7,8
 461 436 461 436 512 356 c 1,9,10
 614 532 614 532 781 532 c 0,11,12
 1070 526.948 1070 526.948 1070 294 c 0,13,14
 1070 -30 1070 -30 726 -29 c 0,15,16
 654 -29 654 -29 648 -27 c 1,17,-1
 648 -141 l 1,18,-1
 448 -140 l 1,19,20
 448 -53 448 -53 449 15 c 1,21,22
 339 53 339 53 259 126 c 0,23,24
 88 282 88 282 88 559 c 0,25,26
 88 836 88 836 259 991.5 c 128,-1,27
 430 1147 430 1147 733 1147 c 0,28,29
 821 1147 821 1147 906.5 1131.5 c 128,-1,30
 992 1116 992 1116 1077 1085 c 1,0,-1
661 232 m 1,31,32
 719.093 207.076 719.093 207.076 777 207 c 0,33,34
 924 207 924 207 923 264 c 0,35,36
 922 339 922 339 791 339 c 0,37,38
 708 339 708 339 661 232 c 1,31,32
EndSplineSet
EndChar
StartChar: uni0256
Encoding: 598 598 598
Width: 1468
Flags: W
TeX: 0 0 0 0
AnchorPoint: "above" 1114 1520 basechar 0
AnchorPoint: "below" 729 -430 basechar 0
Fore
934 956 m 1,0,-1
 934 1556 l 1,1,-1
 1294 1556 l 1,2,-1
 1294 20 l 2,3,4
 1294 -114.997 1294 -114.997 1332 -161 c 128,-1,5
 1370 -207 1370 -207 1472 -207 c 2,6,-1
 1536 -207 l 1,7,-1
 1536 -442 l 1,8,-1
 1357 -442 l 2,9,10
 1152 -442 1152 -442 1044 -323.5 c 128,-1,11
 936 -205 936 -205 936 20 c 10,12,-1
 936 162 l 17,13,14
 862 63 862 63 772 17 c 128,-1,15
 682 -29 682 -29 565 -29 c 0,16,17
 358 -29 358 -29 225 135.5 c 128,-1,18
 92 300 92 300 92 559 c 0,19,20
 92 818 92 818 225 982.5 c 128,-1,21
 358 1147 358 1147 565 1147 c 0,22,23
 681 1147 681 1147 770.5 1100.5 c 128,-1,24
 860 1054 860 1054 934 956 c 1,0,-1
698 231 m 0,25,26
 813 231 813 231 873.5 315 c 128,-1,27
 934 399 934 399 934 559 c 0,28,29
 934 719 934 719 873.5 803 c 128,-1,30
 813 887 813 887 698 887 c 0,31,32
 584 887 584 887 523.5 803 c 128,-1,33
 463 719 463 719 463 559 c 0,34,35
 463 399 463 399 523.5 315 c 128,-1,36
 584 231 584 231 698 231 c 0,25,26
EndSplineSet
EndChar
StartChar: uni0257
Encoding: 599 599 599
Width: 1622
Flags: W
TeX: 0 0 0 0
AnchorPoint: "below" 729 0 basechar 0
AnchorPoint: "above" 1114 1520 basechar 0
Fore
934 956 m 9,0,-1
 934 1094 l 18,1,2
 934 1319 934 1319 1042 1437.5 c 128,-1,3
 1150 1556 1150 1556 1355 1556 c 2,4,-1
 1640 1556 l 1,5,-1
 1640 1321 l 1,6,-1
 1472 1321 l 2,7,8
 1370 1321 1370 1321 1332 1275 c 128,-1,9
 1294 1229 1294 1229 1294 1094 c 10,10,-1
 1294 0 l 17,11,-1
 934 0 l 1,12,-1
 934 162 l 1,13,14
 860 63 860 63 771 17 c 128,-1,15
 682 -29 682 -29 565 -29 c 0,16,17
 358 -29 358 -29 225 135.5 c 128,-1,18
 92 300 92 300 92 559 c 0,19,20
 92 818 92 818 225 982.5 c 128,-1,21
 358 1147 358 1147 565 1147 c 0,22,23
 681 1147 681 1147 770.5 1100.5 c 128,-1,24
 860 1054 860 1054 934 956 c 9,0,-1
698 231 m 0,25,26
 813 231 813 231 873.5 315 c 128,-1,27
 934 399 934 399 934 559 c 0,28,29
 934 719 934 719 873.5 803 c 128,-1,30
 813 887 813 887 698 887 c 0,31,32
 584 887 584 887 523.5 803 c 128,-1,33
 463 719 463 719 463 559 c 0,34,35
 463 399 463 399 523.5 315 c 128,-1,36
 584 231 584 231 698 231 c 0,25,26
EndSplineSet
EndChar
StartChar: uni0258
Encoding: 600 600 600
Width: 1389
Flags: W
AnchorPoint: "below" 693 0 basechar 0
AnchorPoint: "above" 693 1147 basechar 0
Fore
88 563 m 2,0,1
 88 829 88 829 246 988 c 0,2,3
 405 1147 405 1147 669 1147 c 0,4,5
 959 1147 959 1147 1124 990 c 0,6,7
 1290 833 1290 833 1290 559 c 0,8,9
 1290 280 1290 280 1122 126 c 0,10,11
 953 -29 953 -29 649 -29 c 0,12,13
 522 -29 522 -29 395 -4 c 0,14,15
 268 20 268 20 141 68 c 1,16,-1
 141 344 l 1,17,18
 266 276 266 276 384 242 c 0,19,20
 503 209 503 209 616 209 c 0,21,22
 756 209 756 209 834 272 c 128,-1,23
 912 335 912 335 925 461 c 1,24,-1
 88 461 l 1,25,-1
 88 563 l 2,0,1
456 682 m 1,26,-1
 921 682 l 1,27,28
 905 792 905 792 840 850 c 0,29,30
 775 909 775 909 671 909 c 0,31,32
 575 909 575 909 516 846 c 0,33,34
 456 784 456 784 456 682 c 1,26,-1
EndSplineSet
EndChar
StartChar: uni0259
Encoding: 601 601 601
Width: 1389
Flags: W
AnchorPoint: "below" 693 0 basechar 0
AnchorPoint: "above" 693 1147 basechar 0
Fore
88 555 m 2,0,-1
 88 657 l 1,1,-1
 925 657 l 1,2,3
 912 783 912 783 834 846 c 128,-1,4
 756 909 756 909 616 909 c 0,5,6
 503 909 503 909 384.5 875.5 c 128,-1,7
 266 842 266 842 141 774 c 1,8,-1
 141 1050 l 1,9,10
 268 1098 268 1098 395 1122.5 c 128,-1,11
 522 1147 522 1147 649 1147 c 0,12,13
 953 1147 953 1147 1121.5 992.5 c 128,-1,14
 1290 838 1290 838 1290 559 c 0,15,16
 1290 285 1290 285 1124.5 128 c 128,-1,17
 959 -29 959 -29 669 -29 c 0,18,19
 405 -29 405 -29 246.5 130 c 128,-1,20
 88 289 88 289 88 555 c 2,0,-1
456 436 m 1,21,22
 456 334 456 334 515.5 271.5 c 128,-1,23
 575 209 575 209 671 209 c 0,24,25
 775 209 775 209 840 267.5 c 128,-1,26
 905 326 905 326 921 436 c 1,27,-1
 456 436 l 1,21,22
EndSplineSet
EndChar
StartChar: uni025A
Encoding: 602 602 602
Width: 1794
Flags: W
TeX: 0 0 0 0
AnchorPoint: "below" 693 0 basechar 0
AnchorPoint: "above" 693 1147 basechar 0
Fore
921 540 m 1,0,-1
 496 295 l 1,1,2
 505 283 505 283 516 272 c 0,3,4
 575 209 575 209 671 209 c 0,5,6
 775 209 775 209 840 268 c 0,7,8
 905 326 905 326 921 436 c 2,9,-1
 921 540 l 1,0,-1
1270 736 m 1,10,11
 1290 655 1290 655 1290 559 c 0,12,13
 1290 285 1290 285 1124 128 c 0,14,15
 959 -29 959 -29 669 -29 c 0,16,17
 405 -29 405 -29 246 130 c 0,18,19
 161 216 161 216 121 334 c 1,20,-1
 890 777 l 1,21,22
 868 818 868 818 834 846 c 0,23,24
 756 909 756 909 616 909 c 0,25,26
 503 909 503 909 384 876 c 0,27,28
 266 842 266 842 141 774 c 1,29,-1
 141 1050 l 1,30,31
 268 1098 268 1098 395 1122 c 0,32,33
 522 1147 522 1147 649 1147 c 0,34,35
 953 1147 953 1147 1122 992 c 0,36,37
 1147 969 1147 969 1169 942 c 1,38,-1
 1389 1072 l 1,39,-1
 1588 1074 l 1,40,-1
 1588 903 l 2,41,42
 1588 727 1588 727 1626 671 c 0,43,44
 1664 616 1664 616 1769 616 c 2,45,-1
 1812 616 l 1,46,-1
 1812 436 l 1,47,-1
 1716 436 l 2,48,49
 1533 436 1533 436 1454 547 c 0,50,51
 1389 638 1389 638 1389 804 c 1,52,-1
 1270 736 l 1,10,11
EndSplineSet
EndChar
StartChar: uni025C
Encoding: 604 604 604
Width: 1116
Flags: W
TeX: 0 0 0 0
AnchorPoint: "below" 493 0 basechar 0
AnchorPoint: "above" 493 1147 basechar 0
Fore
763 604 m 1,0,1
 884 574 884 574 947 502 c 128,-1,2
 1010 430 1010 430 1010 318 c 0,3,4
 1010 145 1010 145 874 58 c 128,-1,5
 738 -29 738 -29 477 -29 c 0,6,7
 385 -29 385 -29 292 -15 c 0,8,9
 200 -1 200 -1 110 27 c 1,10,-1
 110 279 l 1,11,12
 181 243 181 243 275 221 c 0,13,14
 360 201 360 201 437 201 c 0,15,16
 553 201 553 201 618 240 c 0,17,18
 684 280 684 280 684 338 c 0,19,20
 684 398 684 398 617 437 c 0,21,22
 555 474 555 474 426 474 c 2,23,-1
 308 474 l 1,24,-1
 308 698 l 1,25,-1
 432 698 l 2,26,27
 549 698 549 698 599 728 c 0,28,29
 656 762 656 762 656 806 c 0,30,31
 656 848 656 848 600 884 c 0,32,33
 545 919 545 919 450 919 c 0,34,35
 391 919 391 919 306 903 c 128,-1,36
 221 887 221 887 161 860 c 1,37,-1
 161 1099 l 1,38,39
 252 1123 252 1123 342 1135 c 0,40,41
 431 1147 431 1147 518 1147 c 0,42,43
 750 1147 750 1147 866 1075 c 0,44,45
 982 1004 982 1004 982 853 c 0,46,47
 982 756 982 756 926 692 c 0,48,49
 871 629 871 629 763 604 c 1,0,1
EndSplineSet
EndChar
StartChar: uni025D
Encoding: 605 605 605
Width: 1669
Flags: W
TeX: 0 0 0 0
AnchorPoint: "below" 493 0 basechar 0
AnchorPoint: "above" 493 1147 basechar 0
Fore
763 604 m 1,0,1
 884 574 884 574 947 502 c 0,2,3
 1010 430 1010 430 1010 318 c 0,4,5
 1010 145 1010 145 874 58 c 0,6,7
 738 -29 738 -29 477 -29 c 0,8,9
 385 -29 385 -29 292 -15 c 0,10,11
 200 -1 200 -1 110 27 c 1,12,-1
 110 279 l 1,13,14
 181 243 181 243 275 221 c 0,15,16
 360 201 360 201 437 201 c 0,17,18
 553 201 553 201 618 240 c 0,19,20
 684 280 684 280 684 338 c 0,21,22
 684 398 684 398 617 437 c 0,23,24
 555 474 555 474 426 474 c 2,25,-1
 308 474 l 1,26,-1
 308 698 l 1,27,-1
 432 698 l 2,28,29
 549 698 549 698 599 728 c 0,30,31
 656 762 656 762 656 806 c 0,32,33
 656 848 656 848 600 884 c 0,34,35
 545 919 545 919 450 919 c 0,36,37
 391 919 391 919 306 903 c 0,38,39
 221 887 221 887 161 860 c 1,40,-1
 161 1099 l 1,41,42
 251 1123 251 1123 342 1135 c 0,43,44
 431 1147 431 1147 518 1147 c 0,45,46
 749 1147 749 1147 866 1075 c 0,47,48
 937 1032 937 1032 964 959 c 1,49,-1
 1152 1072 l 1,50,-1
 1351 1074 l 1,51,-1
 1351 903 l 2,52,53
 1351 727 1351 727 1389 671 c 0,54,55
 1427 616 1427 616 1532 616 c 2,56,-1
 1575 616 l 1,57,-1
 1575 436 l 1,58,-1
 1479 436 l 2,59,60
 1295 436 1295 436 1217 547 c 0,61,62
 1151 638 1151 638 1152 804 c 1,63,-1
 838 626 l 1,64,-1
 838 629 l 1,65,66
 804 614 804 614 763 604 c 1,0,1
EndSplineSet
EndChar
StartChar: uni025E
Encoding: 606 606 606
Width: 1498
Flags: W
TeX: 0 0 0 0
AnchorPoint: "below" 838 0 basechar 0
AnchorPoint: "above" 838 1147 basechar 0
Fore
788 201 m 24,0,1
 904 201 904 201 969 240 c 0,2,3
 1035 280 1035 280 1035 338 c 0,4,5
 1035 398 1035 398 968 437 c 0,6,7
 906 474 906 474 777 474 c 2,8,-1
 659 474 l 1,9,-1
 659 698 l 1,10,-1
 783 698 l 2,11,12
 900 698 900 698 950 728 c 0,13,14
 1007 762 1007 762 1007 806 c 0,15,16
 1007 848 1007 848 951 884 c 0,17,18
 896 919 896 919 801 919 c 24,19,20
 665 920 665 920 566 820 c 0,21,22
 483 738 483 738 483 559 c 0,23,24
 483 389 483 389 566 296 c 0,25,26
 653 200 653 200 788 201 c 24,0,1
828 -29 m 24,27,28
 452 -29 452 -29 281 126 c 128,-1,29
 110 282 110 282 110 559 c 128,-1,30
 110 836 110 836 281 992 c 128,-1,31
 452 1147 452 1147 869 1147 c 24,32,33
 1101 1147 1101 1147 1217 1075 c 0,34,35
 1333 1004 1333 1004 1333 853 c 0,36,37
 1333 756 1333 756 1277 692 c 0,38,39
 1222 629 1222 629 1114 604 c 1,40,41
 1235 574 1235 574 1298 502 c 128,-1,42
 1361 430 1361 430 1361 318 c 0,43,44
 1361 145 1361 145 1225 58 c 128,-1,45
 1089 -29 1089 -29 828 -29 c 24,27,28
EndSplineSet
EndChar
StartChar: uni025F
Encoding: 607 607 607
Width: 702
Flags: W
AnchorPoint: "above" 351 1147 basechar 0
AnchorPoint: "below" 351 -430 basechar 0
Fore
-36 438 m 1,0,-1
 -36 632 l 1,1,-1
 172 632 l 1,2,-1
 172 1120 l 1,3,-1
 530 1120 l 1,4,-1
 530 632 l 1,5,-1
 738 632 l 1,6,-1
 738 438 l 1,7,-1
 530 438 l 1,8,-1
 530 20 l 2,9,10
 530 -205 530 -205 422 -324 c 0,11,12
 314 -442 314 -442 109 -442 c 2,13,-1
 -68 -442 l 1,14,-1
 -68 -207 l 1,15,-1
 -6 -207 l 2,16,17
 96 -207 96 -207 134 -161 c 0,18,19
 172 -115 172 -115 172 20 c 2,20,-1
 172 438 l 1,21,-1
 -36 438 l 1,0,-1
EndSplineSet
EndChar
StartChar: uni0260
Encoding: 608 608 608
Width: 1622
Flags: W
TeX: 0 0 0 0
AnchorPoint: "below" 698 -430 basechar 0
AnchorPoint: "above" 698 1520 basechar 0
Fore
934 190 m 1,0,1
 860 92 860 92 771 46 c 128,-1,2
 682 0 682 0 565 0 c 0,3,4
 360 0 360 0 226 161.5 c 128,-1,5
 92 323 92 323 92 573 c 0,6,7
 92 824 92 824 226 984.5 c 128,-1,8
 360 1145 360 1145 565 1145 c 0,9,10
 682 1145 682 1145 771 1099 c 128,-1,11
 860 1053 860 1053 934 954 c 1,12,-1
 934 1094 l 2,13,14
 934 1319 934 1319 1042 1437.5 c 128,-1,15
 1150 1556 1150 1556 1355 1556 c 2,16,-1
 1640 1556 l 1,17,-1
 1640 1321 l 1,18,-1
 1472 1321 l 2,19,20
 1370 1321 1370 1321 1332 1275 c 128,-1,21
 1294 1229 1294 1229 1294 1094 c 2,22,-1
 1294 113 l 2,23,24
 1294 -157 1294 -157 1123.5 -299.5 c 128,-1,25
 953 -442 953 -442 629 -442 c 0,26,27
 524 -442 524 -442 426 -426 c 128,-1,28
 328 -410 328 -410 229 -377 c 1,29,-1
 229 -98 l 1,30,31
 323 -152 323 -152 413 -178.5 c 128,-1,32
 503 -205 503 -205 594 -205 c 0,33,34
 770 -205 770 -205 852 -128 c 128,-1,35
 934 -51 934 -51 934 113 c 2,36,-1
 934 190 l 1,0,1
698 887 m 0,37,38
 587 887 587 887 525 805 c 128,-1,39
 463 723 463 723 463 573 c 0,40,41
 463 419 463 419 523 339.5 c 128,-1,42
 583 260 583 260 698 260 c 0,43,44
 810 260 810 260 872 342 c 128,-1,45
 934 424 934 424 934 573 c 0,46,47
 934 723 934 723 872 805 c 128,-1,48
 810 887 810 887 698 887 c 0,37,38
EndSplineSet
EndChar
StartChar: uni0261
Encoding: 609 609 609
Width: 1466
Flags: W
TeX: 0 0 0 0
AnchorPoint: "below" 698 -430 basechar 0
AnchorPoint: "above" 698 1147 basechar 0
Fore
934 190 m 1,0,1
 860 92 860 92 771 46 c 128,-1,2
 682 0 682 0 565 0 c 0,3,4
 360 0 360 0 226 162 c 128,-1,5
 92 323 92 323 92 573 c 0,6,7
 92 799 92 799 226 960 c 128,-1,8
 360 1120 360 1120 565 1120 c 2,9,-1
 934 1120 l 1,10,-1
 1294 1120 l 1,11,-1
 1294 113 l 2,12,13
 1294 -157 1294 -157 1124 -300 c 128,-1,14
 953 -442 953 -442 629 -442 c 0,15,16
 524 -442 524 -442 426 -426 c 128,-1,17
 328 -410 328 -410 229 -377 c 1,18,-1
 229 -98 l 1,19,20
 323 -152 323 -152 413 -178 c 128,-1,21
 503 -205 503 -205 594 -205 c 0,22,23
 770 -205 770 -205 852 -128 c 128,-1,24
 934 -51 934 -51 934 113 c 2,25,-1
 934 190 l 1,0,1
698 887 m 1,26,27
 587 887 587 887 525 805 c 128,-1,28
 463 723 463 723 463 573 c 0,29,30
 463 419 463 419 523 340 c 128,-1,31
 583 260 583 260 698 260 c 0,32,33
 810 260 810 260 872 342 c 128,-1,34
 934 424 934 424 934 573 c 1,35,-1
 934 887 l 1,36,-1
 698 887 l 1,26,27
EndSplineSet
EndChar
